SplineFontDB: 3.2
FontName: mana
FullName: mana
FamilyName: mana
Weight: Book
Version: 1.0
ItalicAngle: 0
UnderlinePosition: 0
UnderlineWidth: 0
Ascent: 960
Descent: 64
InvalidEm: 0
sfntRevision: 0x00010000
LayerCount: 2
Layer: 0 1 "Back" 1
Layer: 1 1 "Fore" 0
XUID: [1021 867 -1752634913 6191]
StyleMap: 0x0040
FSType: 0
OS2Version: 3
OS2_WeightWidthSlopeOnly: 0
OS2_UseTypoMetrics: 0
CreationTime: 1499257809
ModificationTime: 1750652554
PfmFamily: 81
TTFWeight: 400
TTFWidth: 5
LineGap: 0
VLineGap: 0
Panose: 0 0 0 0 0 0 0 0 0 0
OS2TypoAscent: 960
OS2TypoAOffset: 0
OS2TypoDescent: -64
OS2TypoDOffset: 0
OS2TypoLinegap: 64
OS2WinAscent: 960
OS2WinAOffset: 0
OS2WinDescent: 64
OS2WinDOffset: 0
HheadAscent: 960
HheadAOffset: 0
HheadDescent: -64
HheadDOffset: 0
OS2SubXSize: 665
OS2SubYSize: 716
OS2SubXOff: 0
OS2SubYOff: 143
OS2SupXSize: 665
OS2SupYSize: 716
OS2SupXOff: 0
OS2SupYOff: 491
OS2StrikeYSize: 51
OS2StrikeYPos: 265
OS2Vendor: 'PfEd'
OS2CodePages: 00000001.00000000
OS2UnicodeRanges: 00000001.10000000.00000000.00000000
DEI: 91125
ShortTable: maxp 16
  1
  0
  88
  3707
  133
  0
  0
  2
  0
  1
  1
  0
  64
  0
  0
  0
EndShort
LangName: 1033 "" "" "Regular" "mana" "" "Version 1.0" "" "" "" "" "Font generated by IcoMoon."
GaspTable: 1 65535 2 0
Encoding: UnicodeBmp
UnicodeInterp: none
NameList: AGL For New Fonts
DisplaySize: -48
AntiAlias: 1
FitToEm: 0
WinInfo: 58786 38 13
BeginChars: 65538 91

StartChar: uni0000
Encoding: 0 0 1
Width: 0
GlyphClass: 1
Flags: W
LayerCount: 2
Fore
SplineSet
0 0 m 1024,0,-1
EndSplineSet
Validated: 1
EndChar

StartChar: uni0001
Encoding: 1 1 3
Width: 0
GlyphClass: 1
Flags: W
LayerCount: 2
Fore
SplineSet
0 0 m 1024,0,-1
EndSplineSet
Validated: 1
EndChar

StartChar: space
Encoding: 32 32 4
Width: 512
GlyphClass: 1
Flags: W
LayerCount: 2
Fore
SplineSet
0 0 m 1024,0,-1
EndSplineSet
Validated: 1
EndChar

StartChar: uniE5FF
Encoding: 58879 58879 5
Width: 1024
GlyphClass: 2
Flags: W
LayerCount: 2
Fore
SplineSet
500 946 m 1,0,1
 654 792 654 792 654 669 c 0,2,3
 654 640 654 640 627.5 618 c 128,-1,4
 601 596 601 596 567 586 c 128,-1,5
 533 576 533 576 500 576 c 128,-1,6
 467 576 467 576 433 586 c 128,-1,7
 399 596 399 596 372.5 618 c 128,-1,8
 346 640 346 640 346 669 c 0,9,10
 346 792 346 792 500 946 c 1,0,1
253 588 m 0,11,12
 284 587 284 587 317 568 c 0,13,14
 337 557 337 557 344.5 530.5 c 128,-1,15
 352 504 352 504 340 484 c 128,-1,16
 328 464 328 464 302 457 c 128,-1,17
 276 450 276 450 256 461 c 0,18,19
 238 472 238 472 228.5 480 c 128,-1,20
 219 488 219 488 205 512.5 c 128,-1,21
 191 537 191 537 180 576 c 1,22,23
 224 588 224 588 253 588 c 0,11,12
747 588 m 0,24,25
 776 588 776 588 820 576 c 1,26,27
 809 537 809 537 795 512.5 c 128,-1,28
 781 488 781 488 771.5 480 c 128,-1,29
 762 472 762 472 744 461 c 0,30,31
 724 450 724 450 698 457 c 128,-1,32
 672 464 672 464 660 484 c 128,-1,33
 648 504 648 504 655.5 530.5 c 128,-1,34
 663 557 663 557 683 568 c 0,35,36
 716 587 716 587 747 588 c 0,24,25
500 515 m 128,-1,38
 551 515 551 515 587 479 c 128,-1,39
 623 443 623 443 623 392 c 128,-1,40
 623 341 623 341 587 304.5 c 128,-1,41
 551 268 551 268 500 268 c 128,-1,42
 449 268 449 268 413 304.5 c 128,-1,43
 377 341 377 341 377 392 c 128,-1,44
 377 443 377 443 413 479 c 128,-1,37
 449 515 449 515 500 515 c 128,-1,38
212 394 m 0,45,46
 246 395 246 395 282.5 365.5 c 128,-1,47
 319 336 319 336 340 299 c 0,48,49
 357 271 357 271 365.5 236.5 c 128,-1,50
 374 202 374 202 368 168 c 128,-1,51
 362 134 362 134 337 120 c 0,52,53
 230 58 230 58 20 114 c 1,54,55
 76 325 76 325 183 386 c 0,56,57
 196 394 196 394 212 394 c 0,45,46
785 394 m 0,58,59
 803 395 803 395 817 386 c 0,60,61
 924 325 924 325 980 114 c 1,62,63
 770 58 770 58 663 120 c 0,64,65
 638 134 638 134 632 168 c 128,-1,66
 626 202 626 202 634.5 236.5 c 128,-1,67
 643 271 643 271 660 299 c 0,68,69
 681 335 681 335 716.5 364.5 c 128,-1,70
 752 394 752 394 785 394 c 0,58,59
500 207 m 128,-1,72
 523 207 523 207 542.5 187.5 c 128,-1,73
 562 168 562 168 562 145 c 0,74,75
 562 125 562 125 559.5 112.5 c 128,-1,76
 557 100 557 100 543 75.5 c 128,-1,77
 529 51 529 51 500 22 c 1,78,79
 471 51 471 51 457 75.5 c 128,-1,80
 443 100 443 100 440.5 112.5 c 128,-1,81
 438 125 438 125 438 145 c 0,82,83
 438 168 438 168 457.5 187.5 c 128,-1,71
 477 207 477 207 500 207 c 128,-1,72
EndSplineSet
Validated: 33
EndChar

StartChar: uniE600
Encoding: 58880 58880 6
Width: 1024
GlyphClass: 1
Flags: W
LayerCount: 2
Fore
SplineSet
1021 373 m 1,0,1
 969 402 969 402 935 417 c 128,-1,2
 901 432 901 432 887 432 c 0,3,4
 876 432 876 432 867.5 423.5 c 128,-1,5
 859 415 859 415 853 399 c 0,6,7
 847 382 847 382 835 374 c 128,-1,8
 823 366 823 366 804 366 c 0,9,10
 797 366 797 366 782 368.5 c 128,-1,11
 767 371 767 371 744 377 c 1,12,13
 731 357 731 357 724.5 344.5 c 128,-1,14
 718 332 718 332 718 327 c 0,15,16
 718 319 718 319 723.5 310.5 c 128,-1,17
 729 302 729 302 740 292 c 128,-1,18
 751 282 751 282 760.5 276.5 c 128,-1,19
 770 271 770 271 777 271 c 0,20,21
 782 271 782 271 788.5 272 c 128,-1,22
 795 273 795 273 804 276 c 0,23,24
 812 278 812 278 817.5 279 c 128,-1,25
 823 280 823 280 826 280 c 0,26,27
 834 280 834 280 838 264.5 c 128,-1,28
 842 249 842 249 842 219 c 0,29,30
 842 190 842 190 835.5 145.5 c 128,-1,31
 829 101 829 101 815 41 c 1,32,33
 798 110 798 110 779.5 144.5 c 128,-1,34
 761 179 761 179 741 179 c 0,35,36
 738 179 738 179 732.5 176.5 c 128,-1,37
 727 174 727 174 719 170 c 0,38,39
 710 166 710 166 704 164 c 128,-1,40
 698 162 698 162 694 162 c 0,41,42
 674 162 674 162 656.5 180 c 128,-1,43
 639 198 639 198 624 234 c 1,44,45
 593 229 593 229 577.5 213 c 128,-1,46
 562 197 562 197 562 170 c 0,47,48
 562 157 562 157 568 146 c 128,-1,49
 574 135 574 135 587 127 c 0,50,51
 599 119 599 119 605.5 113.5 c 128,-1,52
 612 108 612 108 612 104 c 0,53,54
 612 86 612 86 585 58 c 128,-1,55
 558 30 558 30 505 -7 c 0,56,57
 477 -28 477 -28 457.5 -42 c 128,-1,58
 438 -56 438 -56 427 -64 c 1,59,60
 437 -52 437 -52 446 -36 c 128,-1,61
 455 -20 455 -20 465 -1 c 0,62,63
 476 22 476 22 481 39 c 128,-1,64
 486 56 486 56 486 68 c 0,65,66
 486 75 486 75 478.5 84.5 c 128,-1,67
 471 94 471 94 455 106 c 0,68,69
 440 118 440 118 432 130.5 c 128,-1,70
 424 143 424 143 424 157 c 0,71,72
 424 168 424 168 428 182.5 c 128,-1,73
 432 197 432 197 441 214 c 1,74,75
 432 224 432 224 421.5 229 c 128,-1,76
 411 234 411 234 399 234 c 0,77,78
 372 234 372 234 358.5 225 c 128,-1,79
 345 216 345 216 345 199 c 1,80,81
 345 211 345 211 345 202 c 2,82,-1
 345 162 l 2,83,84
 346 140 346 140 329 129 c 128,-1,85
 312 118 312 118 278 118 c 0,86,87
 251 118 251 118 207 124 c 128,-1,88
 163 130 163 130 101 142 c 1,89,90
 171 160 171 160 206 180 c 128,-1,91
 241 200 241 200 241 223 c 1,92,93
 241 220 241 220 239.5 228 c 128,-1,94
 238 236 238 236 236 255 c 0,95,96
 233 276 233 276 248 295 c 128,-1,97
 263 314 263 314 295 331 c 1,98,99
 289 362 289 362 273 377.5 c 128,-1,100
 257 393 257 393 230 393 c 0,101,102
 226 393 226 393 219 386 c 128,-1,103
 212 379 212 379 201 364 c 0,104,105
 190 350 190 350 180 343 c 128,-1,106
 170 336 170 336 160 336 c 0,107,108
 144 336 144 336 123 353.5 c 128,-1,109
 102 371 102 371 77 406 c 0,110,111
 65 424 65 424 46.5 450 c 128,-1,112
 28 476 28 476 3 510 c 1,113,114
 18 502 18 502 33.5 494 c 128,-1,115
 49 486 49 486 65 478 c 0,116,117
 85 468 85 468 101 463.5 c 128,-1,118
 117 459 117 459 129 459 c 0,119,120
 139 459 139 459 148 467 c 128,-1,121
 157 475 157 475 166 492 c 0,122,123
 176 508 176 508 187.5 516.5 c 128,-1,124
 199 525 199 525 214 525 c 0,125,126
 216 525 216 525 229.5 521 c 128,-1,127
 243 517 243 517 268 509 c 1,128,129
 281 528 281 528 287.5 542.5 c 128,-1,130
 294 557 294 557 294 567 c 0,131,132
 294 575 294 575 289 584 c 128,-1,133
 284 593 284 593 274 604 c 0,134,135
 264 614 264 614 255.5 619.5 c 128,-1,136
 247 625 247 625 239 625 c 0,137,138
 235 625 235 625 230 623.5 c 128,-1,139
 225 622 225 622 218 620 c 128,-1,140
 211 618 211 618 205.5 617 c 128,-1,141
 200 616 200 616 197 616 c 0,142,143
 185 616 185 616 178.5 631.5 c 128,-1,144
 172 647 172 647 172 677 c 0,145,146
 172 685 172 685 180 731 c 128,-1,147
 188 777 188 777 204 862 c 1,148,149
 203 852 203 852 207.5 833 c 128,-1,150
 212 814 212 814 221 786 c 0,151,152
 232 752 232 752 245.5 735.5 c 128,-1,153
 259 719 259 719 275 719 c 0,154,155
 278 719 278 719 283 721 c 128,-1,156
 288 723 288 723 296 727 c 0,157,158
 305 731 305 731 311 733 c 128,-1,159
 317 735 317 735 322 735 c 0,160,161
 338 735 338 735 350.5 726 c 128,-1,162
 363 717 363 717 373 700 c 2,163,-1
 393 664 l 1,164,165
 408 664 408 664 419.5 669 c 128,-1,166
 431 674 431 674 441 684 c 0,167,168
 450 694 450 694 454.5 706 c 128,-1,169
 459 718 459 718 459 732 c 0,170,171
 459 747 459 747 453 758.5 c 128,-1,172
 447 770 447 770 435 777 c 0,173,174
 422 785 422 785 416 791 c 128,-1,175
 410 797 410 797 410 801 c 0,176,177
 410 815 410 815 432 839 c 128,-1,178
 454 863 454 863 499 897 c 0,179,180
 534 924 534 924 557.5 939.5 c 128,-1,181
 581 955 581 955 592 960 c 1,182,183
 563 921 563 921 548.5 892.5 c 128,-1,184
 534 864 534 864 534 845 c 0,185,186
 534 836 534 836 539.5 826 c 128,-1,187
 545 816 545 816 556 805 c 0,188,189
 571 792 571 792 579 783 c 128,-1,190
 587 774 587 774 589 769 c 0,191,192
 596 753 596 753 595 732 c 128,-1,193
 594 711 594 711 586 684 c 1,194,195
 604 671 604 671 618 664.5 c 128,-1,196
 632 658 632 658 641 658 c 0,197,198
 661 658 661 658 670.5 668 c 128,-1,199
 680 678 680 678 680 699 c 0,200,201
 680 701 680 701 679.5 707 c 128,-1,202
 679 713 679 713 677 724 c 128,-1,203
 675 735 675 735 674.5 741 c 128,-1,204
 674 747 674 747 675 748 c 0,205,206
 678 758 678 758 696.5 762.5 c 128,-1,207
 715 767 715 767 749 767 c 0,208,209
 771 767 771 767 815.5 761 c 128,-1,210
 860 755 860 755 928 743 c 1,211,212
 914 739 914 739 892 733 c 2,213,-1
 839 719 l 2,214,215
 812 711 812 711 799 702 c 128,-1,216
 786 693 786 693 786 682 c 0,217,218
 786 678 786 678 787.5 670 c 128,-1,219
 789 662 789 662 792 650 c 0,220,221
 796 639 796 639 797.5 630.5 c 128,-1,222
 799 622 799 622 799 616 c 0,223,224
 799 607 799 607 793 598.5 c 128,-1,225
 787 590 787 590 775 581 c 2,226,-1
 729 549 l 1,227,228
 737 534 737 534 742.5 525.5 c 128,-1,229
 748 517 748 517 751 514 c 0,230,231
 757 506 757 506 766 502 c 128,-1,232
 775 498 775 498 787 498 c 0,233,234
 795 498 795 498 802.5 505 c 128,-1,235
 810 512 810 512 817 526 c 0,236,237
 823 540 823 540 834 547 c 128,-1,238
 845 554 845 554 860 554 c 0,239,240
 878 554 878 554 898.5 537.5 c 128,-1,241
 919 521 919 521 942 487 c 2,242,-1
 974 440 l 2,243,244
 994 411 994 411 1021 373 c 1,0,1
722 451 m 0,245,246
 722 494 722 494 706.5 531.5 c 128,-1,247
 691 569 691 569 659 600 c 0,248,249
 627 632 627 632 589.5 648 c 128,-1,250
 552 664 552 664 509 664 c 128,-1,251
 466 664 466 664 428 648 c 128,-1,252
 390 632 390 632 358 601 c 0,253,254
 327 570 327 570 310.5 532 c 128,-1,255
 294 494 294 494 294 451 c 0,256,257
 293 408 293 408 309 370.5 c 128,-1,258
 325 333 325 333 358 302 c 0,259,260
 390 270 390 270 428 254.5 c 128,-1,261
 466 239 466 239 509 239 c 0,262,263
 555 239 555 239 593.5 254 c 128,-1,264
 632 269 632 269 662 299 c 0,265,266
 693 329 693 329 708 367 c 128,-1,267
 723 405 723 405 722 451 c 0,245,246
702 451 m 0,268,269
 702 410 702 410 688 376 c 128,-1,270
 674 342 674 342 647 315 c 0,271,272
 619 288 619 288 584.5 274.5 c 128,-1,273
 550 261 550 261 509 261 c 0,274,275
 470 261 470 261 436 274.5 c 128,-1,276
 402 288 402 288 373 316 c 0,277,278
 345 344 345 344 331 377.5 c 128,-1,279
 317 411 317 411 317 451 c 0,280,281
 317 490 317 490 331 523.5 c 128,-1,282
 345 557 345 557 374 585 c 128,-1,283
 403 613 403 613 436.5 627 c 128,-1,284
 470 641 470 641 509 641 c 128,-1,285
 548 641 548 641 582 626.5 c 128,-1,286
 616 612 616 612 645 584 c 0,287,288
 673 556 673 556 687.5 522.5 c 128,-1,289
 702 489 702 489 702 451 c 0,268,269
EndSplineSet
Validated: 37
EndChar

StartChar: uniE601
Encoding: 58881 58881 7
Width: 1024
GlyphClass: 1
Flags: W
LayerCount: 2
Fore
SplineSet
740 29 m 0,0,1
 694 -18 694 -18 637.5 -41 c 128,-1,2
 581 -64 581 -64 514 -64 c 0,3,4
 439 -64 439 -64 379.5 -38.5 c 128,-1,5
 320 -13 320 -13 276 39 c 0,6,7
 235 88 235 88 214 150 c 128,-1,8
 193 212 193 212 193 288 c 0,9,10
 193 329 193 329 202 372.5 c 128,-1,11
 211 416 211 416 228.5 462.5 c 128,-1,12
 246 509 246 509 273 558.5 c 128,-1,13
 300 608 300 608 335 660 c 0,14,15
 364 703 364 703 395.5 743 c 128,-1,16
 427 783 427 783 461 820.5 c 128,-1,17
 495 858 495 858 531.5 893 c 128,-1,18
 568 928 568 928 607 960 c 1,19,20
 596 908 596 908 590.5 871 c 128,-1,21
 585 834 585 834 585 812 c 0,22,23
 585 761 585 761 600.5 711.5 c 128,-1,24
 616 662 616 662 648 614 c 0,25,26
 687 557 687 557 717 514.5 c 128,-1,27
 747 472 747 472 767 445 c 0,28,29
 799 397 799 397 815 350 c 128,-1,30
 831 303 831 303 831 257 c 0,31,32
 831 190 831 190 808 132.5 c 128,-1,33
 785 75 785 75 740 29 c 0,0,1
738 377 m 128,-1,35
 726 404 726 404 711.5 422.5 c 128,-1,36
 697 441 697 441 681 450 c 1,37,38
 683 445 683 445 684.5 438 c 128,-1,39
 686 431 686 431 686 422 c 0,40,41
 686 405 686 405 681 380.5 c 128,-1,42
 676 356 676 356 666 324 c 2,43,-1
 645 259 l 1,44,45
 645 230 645 230 659 216 c 128,-1,46
 673 202 673 202 702 202 c 0,47,48
 732 202 732 202 747 222 c 128,-1,49
 762 242 762 242 762 282 c 0,50,51
 762 302 762 302 756 326 c 128,-1,34
 750 350 750 350 738 377 c 128,-1,35
EndSplineSet
Validated: 1
EndChar

StartChar: uniE602
Encoding: 58882 58882 8
Width: 1024
GlyphClass: 1
Flags: W
LayerCount: 2
Fore
SplineSet
1005 465 m 1,0,1
 1005 415 1005 415 987 380.5 c 128,-1,2
 969 346 969 346 932 328 c 0,3,4
 921 323 921 323 888 315.5 c 128,-1,5
 855 308 855 308 798 299 c 0,6,7
 762 293 762 293 743.5 279 c 128,-1,8
 725 265 725 265 725 243 c 2,9,-1
 725 120 l 2,10,11
 725 116 725 116 726.5 104.5 c 128,-1,12
 728 93 728 93 730 73 c 2,13,-1
 735 24 l 2,14,15
 735 13 735 13 732 -5.5 c 128,-1,16
 729 -24 729 -24 724 -50 c 1,17,18
 710 -53 710 -53 693 -56.5 c 128,-1,19
 676 -60 676 -60 657 -64 c 1,20,21
 651 -41 651 -41 648 -25.5 c 128,-1,22
 645 -10 645 -10 645 -2 c 0,23,24
 645 2 645 2 646 8 c 128,-1,25
 647 14 647 14 649 21 c 0,26,27
 651 29 651 29 652 34.5 c 128,-1,28
 653 40 653 40 653 44 c 0,29,30
 653 49 653 49 648 64 c 128,-1,31
 643 79 643 79 634 103 c 1,32,-1
 610 103 l 1,33,34
 608 99 608 99 607 94 c 128,-1,35
 606 89 606 89 607 83 c 0,36,37
 610 70 610 70 611 59 c 128,-1,38
 612 48 612 48 612 39 c 1,39,40
 599 30 599 30 581 18 c 128,-1,41
 563 6 563 6 540 -9 c 0,42,43
 535 -8 535 -8 533 -7 c 128,-1,44
 531 -6 531 -6 532 -6 c 1,45,-1
 532 102 l 2,46,47
 531 105 531 105 527 106.5 c 128,-1,48
 523 108 523 108 517 108 c 2,49,-1
 499 108 l 1,50,-1
 481 -35 l 1,51,52
 470 -36 470 -36 457 -36 c 128,-1,53
 444 -36 444 -36 429 -35 c 1,54,55
 424 -10 424 -10 414.5 27 c 128,-1,56
 405 64 405 64 391 114 c 1,57,-1
 379 114 l 1,58,59
 371 87 371 87 366.5 72.5 c 128,-1,60
 362 58 362 58 361 56 c 0,61,62
 361 53 361 53 362 47 c 128,-1,63
 363 41 363 41 365 32 c 0,64,65
 367 24 367 24 367.5 18 c 128,-1,66
 368 12 368 12 368 9 c 0,67,68
 368 7 368 7 367.5 1 c 128,-1,69
 367 -5 367 -5 365 -14 c 2,70,-1
 361 -50 l 2,71,72
 359 -52 359 -52 357 -52.5 c 128,-1,73
 355 -53 355 -53 353 -53 c 0,74,75
 330 -53 330 -53 315 -47.5 c 128,-1,76
 300 -42 300 -42 292 -31 c 0,77,78
 285 -19 285 -19 282 -3 c 128,-1,79
 279 13 279 13 280 33 c 2,80,-1
 292 216 l 2,81,82
 292 218 292 218 293 221 c 128,-1,83
 294 224 294 224 295 228 c 0,84,85
 297 232 297 232 298 234.5 c 128,-1,86
 299 237 299 237 299 238 c 0,87,88
 299 244 299 244 292.5 256.5 c 128,-1,89
 286 269 286 269 273 287 c 0,90,91
 270 288 270 288 258.5 290.5 c 128,-1,92
 247 293 247 293 226 298 c 0,93,94
 213 301 213 301 187.5 306 c 128,-1,95
 162 311 162 311 124 319 c 0,96,97
 71 329 71 329 45 371 c 128,-1,98
 19 413 19 413 19 488 c 0,99,100
 19 543 19 543 30.5 594 c 128,-1,101
 42 645 42 645 64.5 691 c 128,-1,102
 87 737 87 737 121.5 778.5 c 128,-1,103
 156 820 156 820 201 857 c 1,104,105
 205 836 205 836 211.5 808.5 c 128,-1,106
 218 781 218 781 227 747 c 1,107,108
 234 746 234 746 249 742.5 c 128,-1,109
 264 739 264 739 286 734 c 0,110,111
 291 732 291 732 314 723.5 c 128,-1,112
 337 715 337 715 379 700 c 1,113,114
 358 713 358 713 330 734 c 128,-1,115
 302 755 302 755 268 784 c 0,116,117
 255 799 255 799 248.5 824.5 c 128,-1,118
 242 850 242 850 242 886 c 0,119,120
 242 894 242 894 256.5 904 c 128,-1,121
 271 914 271 914 300 925 c 0,122,123
 326 936 326 936 345.5 942 c 128,-1,124
 365 948 365 948 378 949 c 0,125,126
 419 955 419 955 450.5 957.5 c 128,-1,127
 482 960 482 960 504 960 c 0,128,129
 551 960 551 960 594 954 c 128,-1,130
 637 948 637 948 675.5 936 c 128,-1,131
 714 924 714 924 747.5 905.5 c 128,-1,132
 781 887 781 887 810 863 c 1,133,134
 791 841 791 841 758.5 817.5 c 128,-1,135
 726 794 726 794 680 769 c 1,136,137
 698 768 698 768 724.5 775 c 128,-1,138
 751 782 751 782 786 797 c 0,139,140
 821 813 821 813 836 820.5 c 128,-1,141
 851 828 851 828 845 828 c 1,142,143
 852 828 852 828 864 815.5 c 128,-1,144
 876 803 876 803 894 779 c 0,145,146
 908 761 908 761 919 744.5 c 128,-1,147
 930 728 930 728 938 714 c 0,148,149
 962 671 962 671 978.5 624 c 128,-1,150
 995 577 995 577 1003 527 c 0,151,152
 1003 510 1003 510 1003.5 497 c 128,-1,153
 1004 484 1004 484 1005 477 c 2,154,-1
 1005 465 l 1,155,-1
 1005 465 l 1,0,1
423 437 m 0,156,157
 423 470 423 470 409 501 c 128,-1,158
 395 532 395 532 366 561 c 0,159,160
 338 590 338 590 307.5 605 c 128,-1,161
 277 620 277 620 244 620 c 0,162,163
 215 620 215 620 189.5 607.5 c 128,-1,164
 164 595 164 595 142 571 c 0,165,166
 120 546 120 546 109 519 c 128,-1,167
 98 492 98 492 98 462 c 0,168,169
 98 436 98 436 110.5 419.5 c 128,-1,170
 123 403 123 403 148 395 c 0,171,172
 164 390 164 390 186.5 387.5 c 128,-1,173
 209 385 209 385 238 384 c 2,174,-1
 321 384 l 2,175,176
 372 383 372 383 397.5 396.5 c 128,-1,177
 423 410 423 410 423 437 c 0,156,157
589 249 m 2,178,-1
 589 296 l 1,179,180
 583 306 583 306 578 316 c 128,-1,181
 573 326 573 326 567 337 c 0,182,183
 563 352 563 352 554.5 373.5 c 128,-1,184
 546 395 546 395 534 422 c 1,185,-1
 517 244 l 2,186,187
 517 234 517 234 515 228.5 c 128,-1,188
 513 223 513 223 508 223 c 0,189,190
 505 223 505 223 503 224 c 2,191,-1
 499 226 l 1,192,193
 494 307 494 307 491 342 c 128,-1,194
 488 377 488 377 488 366 c 1,195,-1
 488 419 l 2,196,197
 487 421 487 421 485 422.5 c 128,-1,198
 483 424 483 424 481 424 c 0,199,200
 455 397 455 397 442 354 c 128,-1,201
 429 311 429 311 429 252 c 0,202,203
 429 219 429 219 432 199 c 128,-1,204
 435 179 435 179 441 172 c 1,205,206
 447 173 447 173 454 175.5 c 128,-1,207
 461 178 461 178 469 182 c 0,208,209
 472 184 472 184 480.5 184.5 c 128,-1,210
 489 185 489 185 504 185 c 0,211,212
 518 185 518 185 535.5 180.5 c 128,-1,213
 553 176 553 176 574 167 c 0,214,215
 581 167 581 167 585 187.5 c 128,-1,216
 589 208 589 208 589 249 c 2,178,-1
932 461 m 0,217,218
 932 491 932 491 920.5 518.5 c 128,-1,219
 909 546 909 546 887 570 c 0,220,221
 864 594 864 594 837.5 606 c 128,-1,222
 811 618 811 618 782 618 c 0,223,224
 750 618 750 618 720 603.5 c 128,-1,225
 690 589 690 589 662 560 c 0,226,227
 635 530 635 530 621 499.5 c 128,-1,228
 607 469 607 469 607 437 c 0,229,230
 607 411 607 411 620 397.5 c 128,-1,231
 633 384 633 384 659 384 c 2,232,-1
 833 384 l 2,233,234
 883 385 883 385 907.5 404 c 128,-1,235
 932 423 932 423 932 461 c 0,217,218
EndSplineSet
Validated: 37
EndChar

StartChar: uniE603
Encoding: 58883 58883 9
Width: 1024
GlyphClass: 1
Flags: W
LayerCount: 2
Fore
SplineSet
987 246 m 0,0,1
 954 166 954 166 887.5 126.5 c 128,-1,2
 821 87 821 87 722 87 c 0,3,4
 703 87 703 87 683.5 84.5 c 128,-1,5
 664 82 664 82 643 78 c 0,6,7
 611 71 611 71 595 61.5 c 128,-1,8
 579 52 579 52 579 40 c 0,9,10
 579 36 579 36 581.5 31.5 c 128,-1,11
 584 27 584 27 590 22 c 0,12,13
 595 17 595 17 599.5 14.5 c 128,-1,14
 604 12 604 12 608 12 c 1,15,16
 589 12 589 12 602 11.5 c 128,-1,17
 615 11 615 11 659 10 c 0,18,19
 704 9 704 9 732 8.5 c 128,-1,20
 760 8 760 8 772 8 c 1,21,22
 739 -12 739 -12 694.5 -26 c 128,-1,23
 650 -40 650 -40 595 -49 c 128,-1,24
 540 -58 540 -58 473.5 -61.5 c 128,-1,25
 407 -65 407 -65 330 -64 c 0,26,27
 279 -63 279 -63 235.5 -40.5 c 128,-1,28
 192 -18 192 -18 155 26 c 0,29,30
 120 68 120 68 102 114.5 c 128,-1,31
 84 161 84 161 84 213 c 0,32,33
 84 267 84 267 102.5 314 c 128,-1,34
 121 361 121 361 158 399 c 0,35,36
 194 437 194 437 240 456.5 c 128,-1,37
 286 476 286 476 341 476 c 0,38,39
 353 476 353 476 369 473 c 128,-1,40
 385 470 385 470 405 465 c 128,-1,41
 425 460 425 460 438.5 457 c 128,-1,42
 452 454 452 454 459 454 c 0,43,44
 487 454 487 454 522 465.5 c 128,-1,45
 557 477 557 477 599 501 c 0,46,47
 640 524 640 524 660 535.5 c 128,-1,48
 680 547 680 547 678 547 c 0,49,50
 670 467 670 467 643.5 413.5 c 128,-1,51
 617 360 617 360 571 333 c 0,52,53
 539 314 539 314 522.5 295.5 c 128,-1,54
 506 277 506 277 506 258 c 0,55,56
 506 247 506 247 513 238 c 128,-1,57
 520 229 520 229 533 222 c 0,58,59
 544 217 544 217 556 214 c 128,-1,60
 568 211 568 211 580 211 c 0,61,62
 600 211 600 211 619.5 223.5 c 128,-1,63
 639 236 639 236 658 260 c 128,-1,64
 677 284 677 284 685.5 306 c 128,-1,65
 694 328 694 328 691 348 c 0,66,67
 689 371 689 371 690.5 398 c 128,-1,68
 692 425 692 425 697 457 c 0,69,70
 699 466 699 466 704.5 477.5 c 128,-1,71
 710 489 710 489 719 502 c 0,72,73
 729 515 729 515 737.5 523.5 c 128,-1,74
 746 532 746 532 754 535 c 1,75,76
 754 528 754 528 751.5 516.5 c 128,-1,77
 749 505 749 505 744 489 c 128,-1,78
 739 473 739 473 736.5 461.5 c 128,-1,79
 734 450 734 450 734 442 c 0,80,81
 734 425 734 425 738.5 412.5 c 128,-1,82
 743 400 743 400 752 391 c 1,83,84
 766 396 766 396 778 413 c 128,-1,85
 790 430 790 430 801 459 c 0,86,87
 810 481 810 481 815 502 c 128,-1,88
 820 523 820 523 822 544 c 1,89,90
 790 545 790 545 759.5 559.5 c 128,-1,91
 729 574 729 574 700 602 c 0,92,93
 670 629 670 629 655.5 658.5 c 128,-1,94
 641 688 641 688 641 720 c 0,95,96
 641 725 641 725 642 730.5 c 128,-1,97
 643 736 643 736 644 741 c 1,98,99
 649 734 649 734 655.5 723.5 c 128,-1,100
 662 713 662 713 672 699 c 0,101,102
 684 680 684 680 694 670.5 c 128,-1,103
 704 661 704 661 711 661 c 0,104,105
 720 661 720 661 724.5 670.5 c 128,-1,106
 729 680 729 680 729 699 c 0,107,108
 729 723 729 723 722.5 745 c 128,-1,109
 716 767 716 767 703 787 c 0,110,111
 689 810 689 810 670.5 822 c 128,-1,112
 652 834 652 834 629 834 c 0,113,114
 618 834 618 834 602.5 828.5 c 128,-1,115
 587 823 587 823 565 811 c 0,116,117
 544 800 544 800 524.5 794 c 128,-1,118
 505 788 505 788 488 788 c 0,119,120
 483 788 483 788 459 795 c 128,-1,121
 435 802 435 802 394 816 c 1,122,123
 467 828 467 828 504 839 c 128,-1,124
 541 850 541 850 541 860 c 0,125,126
 541 886 541 886 490.5 903.5 c 128,-1,127
 440 921 440 921 339 930 c 0,128,129
 329 930 329 930 311 931.5 c 128,-1,130
 293 933 293 933 266 936 c 1,131,132
 269 939 269 939 290.5 943.5 c 128,-1,133
 312 948 312 948 353 952 c 0,134,135
 387 956 387 956 411 958 c 128,-1,136
 435 960 435 960 448 960 c 0,137,138
 539 960 539 960 612.5 938 c 128,-1,139
 686 916 686 916 743.5 872 c 128,-1,140
 801 828 801 828 842 762.5 c 128,-1,141
 883 697 883 697 907 609 c 1,142,143
 915 616 915 616 919.5 627.5 c 128,-1,144
 924 639 924 639 924 655 c 0,145,146
 924 676 924 676 918 702.5 c 128,-1,147
 912 729 912 729 899 760 c 0,148,149
 895 772 895 772 887.5 790.5 c 128,-1,150
 880 809 880 809 871 834 c 1,151,152
 902 794 902 794 925 755.5 c 128,-1,153
 948 717 948 717 963.5 679.5 c 128,-1,154
 979 642 979 642 987 605.5 c 128,-1,155
 995 569 995 569 995 533 c 0,156,157
 995 496 995 496 986.5 462 c 128,-1,158
 978 428 978 428 960 398 c 0,159,160
 949 377 949 377 927.5 350.5 c 128,-1,161
 906 324 906 324 875 292 c 128,-1,162
 844 260 844 260 822.5 235.5 c 128,-1,163
 801 211 801 211 790 193 c 1,164,165
 832 204 832 204 859 213 c 128,-1,166
 886 222 886 222 899 228 c 0,167,168
 928 241 928 241 954.5 260.5 c 128,-1,169
 981 280 981 280 1004 305 c 1,170,171
 1004 296 1004 296 1000 281 c 128,-1,172
 996 266 996 266 987 246 c 0,0,1
325 843 m 0,173,174
 325 829 325 829 317.5 820.5 c 128,-1,175
 310 812 310 812 295 808 c 2,176,-1
 255 802 l 2,177,178
 245 797 245 797 229.5 776 c 128,-1,179
 214 755 214 755 193 718 c 1,180,181
 191 730 191 730 187.5 746 c 128,-1,182
 184 762 184 762 180 782 c 1,183,184
 173 782 173 782 161.5 775.5 c 128,-1,185
 150 769 150 769 134 758 c 0,186,187
 127 753 127 753 116 745 c 128,-1,188
 105 737 105 737 90 726 c 1,189,190
 95 753 95 753 110 781 c 128,-1,191
 125 809 125 809 151 837 c 0,192,193
 178 868 178 868 204.5 883.5 c 128,-1,194
 231 899 231 899 257 899 c 0,195,196
 291 899 291 899 308 885 c 128,-1,197
 325 871 325 871 325 843 c 0,173,174
590 703 m 0,198,199
 590 690 590 690 583 679.5 c 128,-1,200
 576 669 576 669 561 660 c 0,201,202
 547 651 547 651 533.5 647 c 128,-1,203
 520 643 520 643 506 643 c 0,204,205
 488 643 488 643 471.5 653 c 128,-1,206
 455 663 455 663 441 684 c 0,207,208
 423 709 423 709 405.5 725 c 128,-1,209
 388 741 388 741 369 749 c 1,210,211
 373 753 373 753 377.5 754.5 c 128,-1,212
 382 756 382 756 388 756 c 128,-1,213
 394 756 394 756 406 751 c 128,-1,214
 418 746 418 746 434 735 c 0,215,216
 450 725 450 725 460.5 719.5 c 128,-1,217
 471 714 471 714 476 714 c 0,218,219
 479 714 479 714 485.5 719.5 c 128,-1,220
 492 725 492 725 501 735 c 0,221,222
 509 746 509 746 519 751 c 128,-1,223
 529 756 529 756 539 756 c 0,224,225
 565 756 565 756 577.5 743 c 128,-1,226
 590 730 590 730 590 703 c 0,198,199
EndSplineSet
Validated: 33
EndChar

StartChar: uniE604
Encoding: 58884 58884 10
Width: 1024
GlyphClass: 1
Flags: W
LayerCount: 2
Fore
SplineSet
1015 385 m 0,0,1
 1015 371 1015 371 1009.5 358 c 128,-1,2
 1004 345 1004 345 993 334 c 0,3,4
 982 322 982 322 969 316 c 128,-1,5
 956 310 956 310 942 310 c 0,6,7
 919 310 919 310 902 321 c 128,-1,8
 885 332 885 332 874 354 c 1,9,-1
 807 357 l 2,10,11
 796 357 796 357 774.5 352 c 128,-1,12
 753 347 753 347 722 338 c 0,13,14
 688 328 688 328 668.5 320.5 c 128,-1,15
 649 313 649 313 644 308 c 0,16,17
 636 299 636 299 629.5 279 c 128,-1,18
 623 259 623 259 618 227 c 0,19,20
 613 201 613 201 611 182 c 128,-1,21
 609 163 609 163 609 151 c 0,22,23
 609 131 609 131 612 117 c 128,-1,24
 615 103 615 103 621 94 c 0,25,26
 628 85 628 85 640.5 77.5 c 128,-1,27
 653 70 653 70 672 63 c 0,28,29
 691 57 691 57 702.5 54 c 128,-1,30
 714 51 714 51 719 50 c 2,31,-1
 727 50 l 2,32,33
 731 50 731 50 737 51 c 2,34,-1
 755 51 l 2,35,36
 764 51 764 51 773.5 49.5 c 128,-1,37
 783 48 783 48 794 45 c 0,38,39
 808 41 808 41 814 35.5 c 128,-1,40
 820 30 820 30 818 22 c 1,41,42
 808 24 808 24 790.5 22 c 128,-1,43
 773 20 773 20 747 14 c 1,44,-1
 788 -6 l 1,45,46
 788 -15 788 -15 775.5 -19.5 c 128,-1,47
 763 -24 763 -24 739 -24 c 0,48,49
 732 -24 732 -24 723.5 -22.5 c 128,-1,50
 715 -21 715 -21 704 -18 c 0,51,52
 692 -15 692 -15 685 -13.5 c 128,-1,53
 678 -12 678 -12 674 -12 c 2,54,-1
 655 -12 l 1,55,56
 655 -19 655 -19 652.5 -30 c 128,-1,57
 650 -41 650 -41 647 -55 c 1,58,59
 634 -55 634 -55 620 -47.5 c 128,-1,60
 606 -40 606 -40 589 -27 c 0,61,62
 572 -13 572 -13 562 -6 c 128,-1,63
 552 1 552 1 547 1 c 0,64,65
 543 1 543 1 537 -6 c 128,-1,66
 531 -13 531 -13 523 -27 c 0,67,68
 515 -40 515 -40 511 -49.5 c 128,-1,69
 507 -59 507 -59 507 -64 c 1,70,71
 498 -59 498 -59 490 -49.5 c 128,-1,72
 482 -40 482 -40 475 -27 c 0,73,74
 472 -17 472 -17 469 -7.5 c 128,-1,75
 466 2 466 2 462 11 c 1,76,77
 455 10 455 10 441.5 -5 c 128,-1,78
 428 -20 428 -20 409 -50 c 1,79,-1
 402 -50 l 2,80,81
 400 -47 400 -47 395 -32 c 128,-1,82
 390 -17 390 -17 380 11 c 1,83,84
 358 18 358 18 337 21.5 c 128,-1,85
 316 25 316 25 297 25 c 0,86,87
 287 25 287 25 273 23 c 128,-1,88
 259 21 259 21 239 17 c 1,89,-1
 199 20 l 1,90,91
 203 24 203 24 215.5 32 c 128,-1,92
 228 40 228 40 249 53 c 0,93,94
 274 67 274 67 292.5 74 c 128,-1,95
 311 81 311 81 324 81 c 2,96,-1
 329 81 l 2,97,98
 332 81 332 81 336 80 c 0,99,100
 339 79 339 79 342 79 c 2,101,-1
 347 79 l 2,102,103
 352 79 352 79 360 81.5 c 128,-1,104
 368 84 368 84 379 89 c 0,105,106
 391 95 391 95 397.5 100 c 128,-1,107
 404 105 404 105 405 109 c 0,108,109
 407 113 407 113 408 124 c 128,-1,110
 409 135 409 135 409 153 c 0,111,112
 409 195 409 195 398 225.5 c 128,-1,113
 387 256 387 256 366 276 c 0,114,115
 347 294 347 294 316 307 c 128,-1,116
 285 320 285 320 242 328 c 1,117,118
 230 287 230 287 198 266.5 c 128,-1,119
 166 246 166 246 112 246 c 0,120,121
 95 246 95 246 77.5 256.5 c 128,-1,122
 60 267 60 267 43 287 c 0,123,124
 26 308 26 308 17.5 327 c 128,-1,125
 9 346 9 346 9 364 c 0,126,127
 9 390 9 390 20 412 c 128,-1,128
 31 434 31 434 53 452 c 1,129,130
 35 470 35 470 26 489 c 128,-1,131
 17 508 17 508 17 528 c 0,132,133
 17 546 17 546 22.5 562 c 128,-1,134
 28 578 28 578 40 591 c 0,135,136
 51 605 51 605 65.5 613 c 128,-1,137
 80 621 80 621 98 623 c 1,138,139
 96 646 96 646 104 662 c 128,-1,140
 112 678 112 678 128 686 c 1,141,142
 120 694 120 694 116 708 c 128,-1,143
 112 722 112 722 112 743 c 0,144,145
 112 766 112 766 120 786 c 128,-1,146
 128 806 128 806 144 822 c 128,-1,147
 160 838 160 838 179.5 845.5 c 128,-1,148
 199 853 199 853 223 853 c 0,149,150
 249 853 249 853 270.5 844 c 128,-1,151
 292 835 292 835 308 817 c 1,152,153
 329 889 329 889 374 924.5 c 128,-1,154
 419 960 419 960 488 960 c 0,155,156
 524 960 524 960 556 945.5 c 128,-1,157
 588 931 588 931 615 902 c 0,158,159
 625 892 625 892 630 886 c 128,-1,160
 635 880 635 880 635 879 c 1,161,162
 626 879 626 879 630.5 881 c 128,-1,163
 635 883 635 883 652 886 c 0,164,165
 670 889 670 889 682.5 890.5 c 128,-1,166
 695 892 695 892 703 892 c 0,167,168
 731 892 731 892 756 881.5 c 128,-1,169
 781 871 781 871 802 851 c 0,170,171
 821 832 821 832 834 808 c 128,-1,172
 847 784 847 784 854 756 c 1,173,174
 859 755 859 755 867 752.5 c 128,-1,175
 875 750 875 750 886 747 c 0,176,177
 902 739 902 739 909.5 725.5 c 128,-1,178
 917 712 917 712 917 692 c 0,179,180
 917 689 917 689 914.5 682 c 128,-1,181
 912 675 912 675 906 665 c 1,182,183
 952 639 952 639 975 603 c 128,-1,184
 998 567 998 567 998 521 c 0,185,186
 998 508 998 508 993 490 c 128,-1,187
 988 472 988 472 978 449 c 1,188,189
 997 438 997 438 1006 422 c 128,-1,190
 1015 406 1015 406 1015 385 c 0,0,1
422 322 m 1,191,-1
 422 341 l 2,192,193
 422 357 422 357 414 372.5 c 128,-1,194
 406 388 406 388 390 401 c 0,195,196
 373 415 373 415 357 422 c 128,-1,197
 341 429 341 429 324 429 c 0,198,199
 304 429 304 429 285 424 c 128,-1,200
 266 419 266 419 249 410 c 1,201,202
 287 412 287 412 330.5 390 c 128,-1,203
 374 368 374 368 422 322 c 1,191,-1
396 501 m 1,204,205
 385 513 385 513 376 525.5 c 128,-1,206
 367 538 367 538 359 551 c 1,207,208
 328 543 328 543 313 534 c 128,-1,209
 298 525 298 525 298 515 c 1,210,211
 307 516 307 516 319.5 514 c 128,-1,212
 332 512 332 512 349 509 c 0,213,214
 365 505 365 505 377 503 c 128,-1,215
 389 501 389 501 396 501 c 1,204,205
484 545 m 1,216,-1
 484 609 l 1,217,218
 467 611 467 611 456.5 612.5 c 128,-1,219
 446 614 446 614 442 614 c 1,220,-1
 442 593 l 1,221,-1
 484 545 l 1,216,-1
671 586 m 1,222,223
 662 589 662 589 646 596.5 c 128,-1,224
 630 604 630 604 606 614 c 1,225,-1
 606 491 l 1,226,227
 640 510 640 510 656.5 534 c 128,-1,228
 673 558 673 558 671 586 c 1,222,223
750 416 m 1,229,-1
 719 455 l 1,230,231
 704 444 704 444 689.5 434 c 128,-1,232
 675 424 675 424 660 413 c 0,233,234
 646 403 646 403 633 391.5 c 128,-1,235
 620 380 620 380 609 367 c 1,236,237
 642 384 642 384 677 396 c 128,-1,238
 712 408 712 408 750 416 c 1,229,-1
EndSplineSet
Validated: 37
EndChar

StartChar: uniE605
Encoding: 58885 58885 11
Width: 1024
GlyphClass: 1
Flags: W
LayerCount: 2
Fore
SplineSet
166 417 m 0,0,1
 166 464 166 464 171 509 c 128,-1,2
 176 554 176 554 186 597.5 c 128,-1,3
 196 641 196 641 211 682.5 c 128,-1,4
 226 724 226 724 246 763 c 0,5,6
 270 813 270 813 299 849.5 c 128,-1,7
 328 886 328 886 362 910.5 c 128,-1,8
 396 935 396 935 434 947.5 c 128,-1,9
 472 960 472 960 515 960 c 0,10,11
 599 960 599 960 665 918 c 128,-1,12
 731 876 731 876 778 793 c 0,13,14
 798 758 798 758 813 721 c 128,-1,15
 828 684 828 684 838 644 c 128,-1,16
 848 604 848 604 853 561 c 128,-1,17
 858 518 858 518 858 472 c 0,18,19
 858 425 858 425 853 379.5 c 128,-1,20
 848 334 848 334 838 291.5 c 128,-1,21
 828 249 828 249 813 208 c 128,-1,22
 798 167 798 167 778 129 c 0,23,24
 754 81 754 81 725 44.5 c 128,-1,25
 696 8 696 8 662.5 -16 c 128,-1,26
 629 -40 629 -40 590.5 -52 c 128,-1,27
 552 -64 552 -64 509 -64 c 0,28,29
 428 -64 428 -64 362.5 -22.5 c 128,-1,30
 297 19 297 19 249 101 c 0,31,32
 228 137 228 137 212.5 174.5 c 128,-1,33
 197 212 197 212 187 251 c 128,-1,34
 177 290 177 290 171.5 331.5 c 128,-1,35
 166 373 166 373 166 417 c 0,0,1
311 474 m 2,36,37
 311 412 311 412 315.5 356.5 c 128,-1,38
 320 301 320 301 329.5 253 c 128,-1,39
 339 205 339 205 353 163.5 c 128,-1,40
 367 122 367 122 385 88 c 0,41,42
 411 39 411 39 444.5 15 c 128,-1,43
 478 -9 478 -9 518 -9 c 0,44,45
 567 -9 567 -9 603.5 16.5 c 128,-1,46
 640 42 640 42 664.5 92 c 128,-1,47
 689 142 689 142 701 218 c 128,-1,48
 713 294 713 294 713 395 c 0,49,50
 713 483 713 483 705 558 c 128,-1,51
 697 633 697 633 682 695 c 0,52,53
 655 795 655 795 610 845.5 c 128,-1,54
 565 896 565 896 501 896 c 0,55,56
 453 896 453 896 417.5 872 c 128,-1,57
 382 848 382 848 358.5 799 c 128,-1,58
 335 750 335 750 323 677 c 128,-1,59
 311 604 311 604 311 507 c 2,60,-1
 311 474 l 2,36,37
EndSplineSet
Validated: 1
EndChar

StartChar: uniE606
Encoding: 58886 58886 12
Width: 1024
GlyphClass: 1
Flags: W
LayerCount: 2
Fore
SplineSet
585 960 m 1,0,-1
 585 139 l 2,1,2
 585 66 585 66 616 29 c 128,-1,3
 647 -8 647 -8 709 -8 c 2,4,-1
 730 -8 l 1,5,-1
 730 -64 l 1,6,-1
 294 -64 l 1,7,-1
 294 -8 l 1,8,-1
 321 -8 l 2,9,10
 381 -8 381 -8 411 29 c 128,-1,11
 441 66 441 66 441 139 c 2,12,-1
 441 678 l 2,13,14
 441 752 441 752 415 789.5 c 128,-1,15
 389 827 389 827 338 827 c 2,16,-1
 294 827 l 1,17,-1
 294 881 l 1,18,-1
 310 881 l 2,19,20
 373 881 373 881 431 901 c 128,-1,21
 489 921 489 921 541 960 c 1,22,-1
 585 960 l 1,0,-1
EndSplineSet
Validated: 1
EndChar

StartChar: uniE607
Encoding: 58887 58887 13
Width: 1024
GlyphClass: 1
Flags: W
LayerCount: 2
Fore
SplineSet
862 191 m 1,0,-1
 787 -64 l 1,1,-1
 160 -64 l 1,2,-1
 160 -10 l 1,3,4
 183 16 183 16 233 67.5 c 128,-1,5
 283 119 283 119 360 196 c 0,6,7
 407 243 407 243 453 292 c 128,-1,8
 499 341 499 341 545 393 c 0,9,10
 567 418 567 418 584.5 440 c 128,-1,11
 602 462 602 462 615 481 c 0,12,13
 642 520 642 520 655.5 560.5 c 128,-1,14
 669 601 669 601 669 642 c 0,15,16
 669 682 669 682 656.5 718 c 128,-1,17
 644 754 644 754 619 784 c 0,18,19
 594 815 594 815 562 830.5 c 128,-1,20
 530 846 530 846 490 846 c 0,21,22
 447 846 447 846 409.5 831.5 c 128,-1,23
 372 817 372 817 338.5 788.5 c 128,-1,24
 305 760 305 760 276 716.5 c 128,-1,25
 247 673 247 673 223 616 c 1,26,-1
 167 637 l 1,27,28
 195 718 195 718 232 778.5 c 128,-1,29
 269 839 269 839 314 879.5 c 128,-1,30
 359 920 359 920 412 940 c 128,-1,31
 465 960 465 960 527 960 c 0,32,33
 588 960 588 960 639.5 939.5 c 128,-1,34
 691 919 691 919 733 877 c 0,35,36
 776 836 776 836 797.5 785 c 128,-1,37
 819 734 819 734 819 674 c 0,38,39
 819 635 819 635 807.5 597 c 128,-1,40
 796 559 796 559 774 521 c 128,-1,41
 752 483 752 483 718.5 445.5 c 128,-1,42
 685 408 685 408 641 372 c 2,43,-1
 518 270 l 2,44,45
 459 221 459 221 410.5 174.5 c 128,-1,46
 362 128 362 128 323 85 c 0,47,48
 321 83 321 83 315.5 76.5 c 128,-1,49
 310 70 310 70 302 61 c 1,50,-1
 629 61 l 2,51,52
 667 61 667 61 695.5 68.5 c 128,-1,53
 724 76 724 76 743 91 c 0,54,55
 760 104 760 104 776 129 c 128,-1,56
 792 154 792 154 808 191 c 1,57,-1
 862 191 l 1,0,-1
EndSplineSet
Validated: 1
EndChar

StartChar: uniE608
Encoding: 58888 58888 14
Width: 1024
GlyphClass: 1
Flags: W
LayerCount: 2
Fore
SplineSet
378 415 m 1,0,-1
 353 463 l 1,1,-1
 370 474 l 2,2,3
 419 504 419 504 464.5 534.5 c 128,-1,4
 510 565 510 565 551 596 c 128,-1,5
 592 627 592 627 613 662.5 c 128,-1,6
 634 698 634 698 634 738 c 0,7,8
 634 764 634 764 624 786.5 c 128,-1,9
 614 809 614 809 594 827 c 128,-1,10
 574 845 574 845 551 854 c 128,-1,11
 528 863 528 863 501 863 c 0,12,13
 440 863 440 863 374.5 825 c 128,-1,14
 309 787 309 787 240 710 c 1,15,-1
 197 743 l 1,16,17
 233 797 233 797 273 838 c 128,-1,18
 313 879 313 879 356.5 906 c 128,-1,19
 400 933 400 933 448 946.5 c 128,-1,20
 496 960 496 960 547 960 c 0,21,22
 593 960 593 960 632 949 c 128,-1,23
 671 938 671 938 703 915 c 0,24,25
 739 890 739 890 757 856 c 128,-1,26
 775 822 775 822 775 779 c 0,27,28
 775 748 775 748 762 718 c 128,-1,29
 749 688 749 688 723 658 c 0,30,31
 709 641 709 641 683 618.5 c 128,-1,32
 657 596 657 596 620 569 c 2,33,-1
 599 553 l 1,34,35
 606 554 606 554 614 554.5 c 128,-1,36
 622 555 622 555 632 555 c 0,37,38
 679 555 679 555 718 537 c 128,-1,39
 757 519 757 519 788 482 c 0,40,41
 818 446 818 446 833.5 404 c 128,-1,42
 849 362 849 362 849 314 c 0,43,44
 849 232 849 232 814.5 163.5 c 128,-1,45
 780 95 780 95 711 39 c 0,46,47
 647 -12 647 -12 573.5 -38 c 128,-1,48
 500 -64 500 -64 416 -64 c 0,49,50
 340 -64 340 -64 279.5 -47 c 128,-1,51
 219 -30 219 -30 175 3 c 1,52,-1
 206 46 l 1,53,54
 258 21 258 21 305 8.5 c 128,-1,55
 352 -4 352 -4 394 -4 c 0,56,57
 455 -4 455 -4 509.5 16.5 c 128,-1,58
 564 37 564 37 612 77 c 0,59,60
 660 118 660 118 684 168.5 c 128,-1,61
 708 219 708 219 708 279 c 0,62,63
 708 319 708 319 696 352.5 c 128,-1,64
 684 386 684 386 659 414 c 0,65,66
 635 442 635 442 603.5 456 c 128,-1,67
 572 470 572 470 534 470 c 0,68,69
 498 470 498 470 459.5 456.5 c 128,-1,70
 421 443 421 443 378 415 c 1,0,-1
EndSplineSet
Validated: 1
EndChar

StartChar: uniE609
Encoding: 58889 58889 15
Width: 1024
GlyphClass: 1
Flags: W
LayerCount: 2
Fore
SplineSet
717 226 m 1,0,-1
 717 140 l 2,1,2
 717 66 717 66 743 29 c 128,-1,3
 769 -8 769 -8 820 -8 c 2,4,-1
 850 -8 l 1,5,-1
 850 -64 l 1,6,-1
 432 -64 l 1,7,-1
 432 -8 l 1,8,-1
 466 -8 l 2,9,10
 516 -8 516 -8 541.5 28.5 c 128,-1,11
 567 65 567 65 567 138 c 2,12,-1
 567 226 l 1,13,-1
 148 226 l 1,14,-1
 148 314 l 1,15,-1
 590 960 l 1,16,-1
 717 960 l 1,17,-1
 717 300 l 1,18,-1
 727 300 l 2,19,20
 760 300 760 300 783.5 325 c 128,-1,21
 807 350 807 350 822 400 c 1,22,-1
 875 400 l 1,23,-1
 850 226 l 1,24,-1
 717 226 l 1,0,-1
567 300 m 1,25,-1
 567 830 l 1,26,-1
 210 300 l 1,27,-1
 567 300 l 1,25,-1
EndSplineSet
Validated: 1
EndChar

StartChar: uniE60A
Encoding: 58890 58890 16
Width: 1024
GlyphClass: 1
Flags: W
LayerCount: 2
Fore
SplineSet
319 943 m 1,0,-1
 690 943 l 2,1,2
 726 943 726 943 747.5 947 c 128,-1,3
 769 951 769 951 776 960 c 1,4,-1
 829 960 l 1,5,-1
 798 820 l 1,6,-1
 346 820 l 1,7,-1
 302 618 l 1,8,9
 351 638 351 638 395 648 c 128,-1,10
 439 658 439 658 477 658 c 0,11,12
 551 658 551 658 613.5 633 c 128,-1,13
 676 608 676 608 727 558 c 0,14,15
 778 509 778 509 803.5 447 c 128,-1,16
 829 385 829 385 829 311 c 0,17,18
 829 224 829 224 795.5 154.5 c 128,-1,19
 762 85 762 85 696 33 c 0,20,21
 635 -16 635 -16 560 -40 c 128,-1,22
 485 -64 485 -64 397 -64 c 0,23,24
 345 -64 345 -64 294.5 -56 c 128,-1,25
 244 -48 244 -48 195 -33 c 1,26,-1
 216 19 l 1,27,28
 257 8 257 8 294 2 c 128,-1,29
 331 -4 331 -4 363 -4 c 0,30,31
 426 -4 426 -4 482 17 c 128,-1,32
 538 38 538 38 586 80 c 128,-1,33
 634 122 634 122 658 174.5 c 128,-1,34
 682 227 682 227 682 290 c 0,35,36
 682 344 682 344 664.5 389 c 128,-1,37
 647 434 647 434 611 469 c 0,38,39
 576 504 576 504 531 521.5 c 128,-1,40
 486 539 486 539 432 539 c 0,41,42
 382 539 382 539 335 521.5 c 128,-1,43
 288 504 288 504 245 470 c 1,44,-1
 211 476 l 1,45,-1
 319 943 l 1,0,-1
EndSplineSet
Validated: 1
EndChar

StartChar: uniE60B
Encoding: 58891 58891 17
Width: 1024
GlyphClass: 1
Flags: W
LayerCount: 2
Fore
SplineSet
340 516 m 1,0,1
 397 570 397 570 454.5 596.5 c 128,-1,2
 512 623 512 623 570 623 c 0,3,4
 633 623 633 623 683.5 598 c 128,-1,5
 734 573 734 573 772 523 c 0,6,7
 807 477 807 477 825 422 c 128,-1,8
 843 367 843 367 843 302 c 0,9,10
 843 231 843 231 822 169 c 128,-1,11
 801 107 801 107 760 53 c 0,12,13
 714 -5 714 -5 657 -34.5 c 128,-1,14
 600 -64 600 -64 532 -64 c 0,15,16
 450 -64 450 -64 384.5 -28.5 c 128,-1,17
 319 7 319 7 269 78 c 0,18,19
 225 140 225 140 203 213.5 c 128,-1,20
 181 287 181 287 181 373 c 0,21,22
 181 418 181 418 187.5 461.5 c 128,-1,23
 194 505 194 505 206.5 547 c 128,-1,24
 219 589 219 589 237.5 629 c 128,-1,25
 256 669 256 669 281 707 c 128,-1,26
 306 745 306 745 335.5 777.5 c 128,-1,27
 365 810 365 810 398.5 837.5 c 128,-1,28
 432 865 432 865 469.5 886.5 c 128,-1,29
 507 908 507 908 549 924 c 0,30,31
 597 942 597 942 647 951 c 128,-1,32
 697 960 697 960 749 960 c 1,33,-1
 749 906 l 1,34,35
 693 903 693 903 644 890.5 c 128,-1,36
 595 878 595 878 553.5 855.5 c 128,-1,37
 512 833 512 833 477 801 c 128,-1,38
 442 769 442 769 414 727 c 0,39,40
 386 684 386 684 367.5 631 c 128,-1,41
 349 578 349 578 340 516 c 1,0,1
330 413 m 1,42,43
 329 397 329 397 328.5 381.5 c 128,-1,44
 328 366 328 366 328 350 c 0,45,46
 328 291 328 291 338.5 235.5 c 128,-1,47
 349 180 349 180 370 129 c 0,48,49
 396 63 396 63 435.5 29.5 c 128,-1,50
 475 -4 475 -4 527 -4 c 0,51,52
 572 -4 572 -4 605.5 19 c 128,-1,53
 639 42 639 42 661 88 c 0,54,55
 679 123 679 123 687.5 166 c 128,-1,56
 696 209 696 209 696 259 c 0,57,58
 696 312 696 312 687.5 358 c 128,-1,59
 679 404 679 404 663 442 c 0,60,61
 641 494 641 494 606.5 520 c 128,-1,62
 572 546 572 546 525 546 c 0,63,64
 468 546 468 546 419 512.5 c 128,-1,65
 370 479 370 479 330 413 c 1,42,43
EndSplineSet
Validated: 1
EndChar

StartChar: uniE60C
Encoding: 58892 58892 18
Width: 1024
GlyphClass: 1
Flags: W
LayerCount: 2
Fore
SplineSet
558 -64 m 1,0,-1
 409 -64 l 1,1,-1
 409 -48 l 2,2,3
 409 -13 409 -13 414.5 27 c 128,-1,4
 420 67 420 67 431 111.5 c 128,-1,5
 442 156 442 156 459 205 c 128,-1,6
 476 254 476 254 498 308 c 0,7,8
 532 388 532 388 564.5 459.5 c 128,-1,9
 597 531 597 531 628 592.5 c 128,-1,10
 659 654 659 654 688.5 706.5 c 128,-1,11
 718 759 718 759 747 802 c 2,12,-1
 757 818 l 1,13,-1
 409 818 l 2,14,15
 371 818 371 818 342 810 c 128,-1,16
 313 802 313 802 294 786 c 0,17,18
 274 771 274 771 259.5 744.5 c 128,-1,19
 245 718 245 718 235 681 c 1,20,-1
 177 681 l 1,21,-1
 240 960 l 1,22,-1
 277 960 l 1,23,24
 294 951 294 951 323 946.5 c 128,-1,25
 352 942 352 942 393 942 c 2,26,-1
 849 942 l 1,27,-1
 849 864 l 1,28,29
 836 846 836 846 820.5 818 c 128,-1,30
 805 790 805 790 786 751 c 0,31,32
 767 715 767 715 749.5 676.5 c 128,-1,33
 732 638 732 638 715 596 c 128,-1,34
 698 554 698 554 682 509 c 128,-1,35
 666 464 666 464 650 416 c 0,36,37
 628 346 628 346 610.5 280.5 c 128,-1,38
 593 215 593 215 581.5 155 c 128,-1,39
 570 95 570 95 564 40.5 c 128,-1,40
 558 -14 558 -14 558 -64 c 1,0,-1
EndSplineSet
Validated: 1
EndChar

StartChar: uniE60D
Encoding: 58893 58893 19
Width: 1024
GlyphClass: 1
Flags: W
LayerCount: 2
Fore
SplineSet
393 455 m 1,0,-1
 370 470 l 2,1,2
 320 504 320 504 287 531 c 128,-1,3
 254 558 254 558 238 579 c 0,4,5
 218 605 218 605 208 635 c 128,-1,6
 198 665 198 665 198 700 c 0,7,8
 198 758 198 758 223 806 c 128,-1,9
 248 854 248 854 298 891 c 0,10,11
 345 925 345 925 399 942.5 c 128,-1,12
 453 960 453 960 515 960 c 0,13,14
 573 960 573 960 624.5 945 c 128,-1,15
 676 930 676 930 720 900 c 0,16,17
 771 866 771 866 797 821.5 c 128,-1,18
 823 777 823 777 823 722 c 0,19,20
 823 655 823 655 775 600.5 c 128,-1,21
 727 546 727 546 631 505 c 1,22,23
 685 479 685 479 726 448 c 128,-1,24
 767 417 767 417 794.5 381 c 128,-1,25
 822 345 822 345 835.5 304 c 128,-1,26
 849 263 849 263 849 217 c 0,27,28
 849 151 849 151 823 98 c 128,-1,29
 797 45 797 45 745 7 c 0,30,31
 698 -29 698 -29 639.5 -46.5 c 128,-1,32
 581 -64 581 -64 511 -64 c 0,33,34
 445 -64 445 -64 388.5 -47.5 c 128,-1,35
 332 -31 332 -31 284 2 c 0,36,37
 230 39 230 39 202.5 88 c 128,-1,38
 175 137 175 137 175 198 c 128,-1,39
 175 259 175 259 204 309.5 c 128,-1,40
 233 360 233 360 291 400 c 0,41,42
 307 410 307 410 332.5 424 c 128,-1,43
 358 438 358 438 393 455 c 1,0,-1
453 430 m 1,44,45
 374 395 374 395 334.5 339.5 c 128,-1,46
 295 284 295 284 295 208 c 0,47,48
 295 159 295 159 311 119.5 c 128,-1,49
 327 80 327 80 359 51 c 0,50,51
 391 21 391 21 432 6 c 128,-1,52
 473 -9 473 -9 523 -9 c 0,53,54
 568 -9 568 -9 606 3 c 128,-1,55
 644 15 644 15 676 38 c 0,56,57
 707 62 707 62 722.5 95 c 128,-1,58
 738 128 738 128 738 170 c 0,59,60
 738 234 738 234 695 285.5 c 128,-1,61
 652 337 652 337 567 376 c 2,62,-1
 453 430 l 1,44,45
571 532 m 1,63,64
 640 563 640 563 675 608 c 128,-1,65
 710 653 710 653 710 713 c 0,66,67
 710 755 710 755 695 788 c 128,-1,68
 680 821 680 821 651 846 c 0,69,70
 621 871 621 871 585 883.5 c 128,-1,71
 549 896 549 896 506 896 c 0,72,73
 470 896 470 896 438.5 886.5 c 128,-1,74
 407 877 407 877 381 858 c 0,75,76
 352 838 352 838 337.5 810 c 128,-1,77
 323 782 323 782 323 748 c 0,78,79
 323 706 323 706 343 672 c 128,-1,80
 363 638 363 638 404 612 c 0,81,82
 412 607 412 607 447 590 c 128,-1,83
 482 573 482 573 545 545 c 2,84,-1
 571 532 l 1,63,64
EndSplineSet
Validated: 1
EndChar

StartChar: uniE60E
Encoding: 58894 58894 20
Width: 1024
GlyphClass: 1
Flags: W
LayerCount: 2
Fore
SplineSet
684 377 m 1,0,1
 627 324 627 324 569.5 297 c 128,-1,2
 512 270 512 270 454 270 c 0,3,4
 391 270 391 270 340.5 295 c 128,-1,5
 290 320 290 320 253 370 c 0,6,7
 217 416 217 416 199.5 471 c 128,-1,8
 182 526 182 526 182 591 c 0,9,10
 182 661 182 661 202.5 723.5 c 128,-1,11
 223 786 223 786 265 841 c 0,12,13
 309 901 309 901 365.5 930.5 c 128,-1,14
 422 960 422 960 490 960 c 0,15,16
 573 960 573 960 639 924 c 128,-1,17
 705 888 705 888 754 817 c 0,18,19
 798 754 798 754 820 679.5 c 128,-1,20
 842 605 842 605 842 519 c 0,21,22
 842 457 842 457 832 401 c 128,-1,23
 822 345 822 345 801.5 293 c 128,-1,24
 781 241 781 241 751 194.5 c 128,-1,25
 721 148 721 148 680 106 c 0,26,27
 640 64 640 64 594 32 c 128,-1,28
 548 0 548 0 497.5 -21 c 128,-1,29
 447 -42 447 -42 391.5 -53 c 128,-1,30
 336 -64 336 -64 275 -64 c 1,31,-1
 275 -11 l 1,32,33
 312 -9 312 -9 341.5 -4.5 c 128,-1,34
 371 0 371 0 394 7 c 0,35,36
 456 26 456 26 505 58.5 c 128,-1,37
 554 91 554 91 590.5 137.5 c 128,-1,38
 627 184 627 184 650 244 c 128,-1,39
 673 304 673 304 684 377 c 1,0,1
694 481 m 1,40,41
 695 497 695 497 695.5 512.5 c 128,-1,42
 696 528 696 528 696 543 c 0,43,44
 696 603 696 603 685.5 658 c 128,-1,45
 675 713 675 713 654 763 c 0,46,47
 627 830 627 830 587 863 c 128,-1,48
 547 896 547 896 496 896 c 0,49,50
 451 896 451 896 418 873 c 128,-1,51
 385 850 385 850 363 805 c 0,52,53
 346 769 346 769 337 726.5 c 128,-1,54
 328 684 328 684 328 634 c 0,55,56
 328 581 328 581 336.5 535 c 128,-1,57
 345 489 345 489 361 451 c 0,58,59
 384 400 384 400 418.5 374 c 128,-1,60
 453 348 453 348 499 348 c 0,61,62
 556 348 556 348 604.5 381 c 128,-1,63
 653 414 653 414 694 481 c 1,40,41
EndSplineSet
Validated: 1
EndChar

StartChar: uniE60F
Encoding: 58895 58895 21
Width: 1024
GlyphClass: 1
Flags: W
LayerCount: 2
Fore
SplineSet
264 889 m 1,0,-1
 264 180 l 2,1,2
 264 117 264 117 291 85 c 128,-1,3
 318 53 318 53 372 53 c 2,4,-1
 391 53 l 1,5,-1
 391 5 l 1,6,-1
 13 5 l 1,7,-1
 13 53 l 1,8,-1
 37 53 l 2,9,10
 89 53 89 53 115 85 c 128,-1,11
 141 117 141 117 141 180 c 2,12,-1
 141 645 l 2,13,14
 141 709 141 709 118.5 741 c 128,-1,15
 96 773 96 773 50 773 c 2,16,-1
 13 773 l 1,17,-1
 13 821 l 1,18,-1
 27 821 l 2,19,20
 83 821 83 821 132.5 838 c 128,-1,21
 182 855 182 855 227 889 c 1,22,-1
 264 889 l 1,0,-1
402 420 m 0,23,24
 402 503 402 503 419 579.5 c 128,-1,25
 436 656 436 656 471 725 c 0,26,27
 515 812 515 812 574.5 855 c 128,-1,28
 634 898 634 898 710 898 c 0,29,30
 783 898 783 898 841 861 c 128,-1,31
 899 824 899 824 941 750 c 0,32,33
 976 689 976 689 993.5 619.5 c 128,-1,34
 1011 550 1011 550 1011 470 c 0,35,36
 1011 387 1011 387 993.5 311.5 c 128,-1,37
 976 236 976 236 941 167 c 0,38,39
 898 83 898 83 838.5 40.5 c 128,-1,40
 779 -2 779 -2 704 -2 c 0,41,42
 632 -2 632 -2 574.5 34.5 c 128,-1,43
 517 71 517 71 475 144 c 0,44,45
 438 206 438 206 420 275 c 128,-1,46
 402 344 402 344 402 420 c 0,23,24
530 472 m 2,47,48
 530 402 530 402 537.5 338.5 c 128,-1,49
 545 275 545 275 560 219 c 0,50,51
 583 133 583 133 621 89.5 c 128,-1,52
 659 46 659 46 712 46 c 0,53,54
 754 46 754 46 786 68.5 c 128,-1,55
 818 91 818 91 839.5 135.5 c 128,-1,56
 861 180 861 180 872 246.5 c 128,-1,57
 883 313 883 313 883 403 c 0,58,59
 883 513 883 513 871 595.5 c 128,-1,60
 859 678 859 678 836 733 c 128,-1,61
 813 788 813 788 778.5 815.5 c 128,-1,62
 744 843 744 843 697 843 c 0,63,64
 655 843 655 843 624 821.5 c 128,-1,65
 593 800 593 800 572 757 c 128,-1,66
 551 714 551 714 540.5 650 c 128,-1,67
 530 586 530 586 530 501 c 2,68,-1
 530 472 l 2,47,48
EndSplineSet
Validated: 1
EndChar

StartChar: uniE610
Encoding: 58896 58896 22
Width: 1024
GlyphClass: 1
Flags: W
LayerCount: 2
Fore
SplineSet
359 898 m 1,0,-1
 359 176 l 2,1,2
 359 111 359 111 385.5 79 c 128,-1,3
 412 47 412 47 466 47 c 2,4,-1
 484 47 l 1,5,-1
 484 -2 l 1,6,-1
 99 -2 l 1,7,-1
 99 47 l 1,8,-1
 124 47 l 2,9,10
 179 47 179 47 206 79 c 128,-1,11
 233 111 233 111 233 176 c 2,12,-1
 233 650 l 2,13,14
 233 715 233 715 210 747.5 c 128,-1,15
 187 780 187 780 141 780 c 2,16,-1
 102 780 l 1,17,-1
 102 829 l 1,18,-1
 117 829 l 2,19,20
 173 829 173 829 224 846.5 c 128,-1,21
 275 864 275 864 320 898 c 1,22,-1
 359 898 l 1,0,-1
820 898 m 1,23,-1
 820 176 l 2,24,25
 820 111 820 111 846.5 79 c 128,-1,26
 873 47 873 47 927 47 c 2,27,-1
 945 47 l 1,28,-1
 945 -2 l 1,29,-1
 560 -2 l 1,30,-1
 560 47 l 1,31,-1
 586 47 l 2,32,33
 640 47 640 47 667 79 c 128,-1,34
 694 111 694 111 694 176 c 2,35,-1
 694 650 l 2,36,37
 694 715 694 715 671 747.5 c 128,-1,38
 648 780 648 780 602 780 c 2,39,-1
 564 780 l 1,40,-1
 564 829 l 1,41,-1
 578 829 l 2,42,43
 635 829 635 829 685.5 846.5 c 128,-1,44
 736 864 736 864 782 898 c 1,45,-1
 820 898 l 1,23,-1
EndSplineSet
Validated: 1
EndChar

StartChar: uniE611
Encoding: 58897 58897 23
Width: 1024
GlyphClass: 1
Flags: W
LayerCount: 2
Fore
SplineSet
268 898 m 1,0,-1
 268 179 l 2,1,2
 268 115 268 115 295 82.5 c 128,-1,3
 322 50 322 50 375 50 c 2,4,-1
 393 50 l 1,5,-1
 393 0 l 1,6,-1
 11 0 l 1,7,-1
 11 50 l 1,8,-1
 33 50 l 2,9,10
 87 50 87 50 114 82.5 c 128,-1,11
 141 115 141 115 141 179 c 2,12,-1
 141 652 l 2,13,14
 141 717 141 717 119 749.5 c 128,-1,15
 97 782 97 782 52 782 c 2,16,-1
 13 782 l 1,17,-1
 13 831 l 1,18,-1
 27 831 l 2,19,20
 83 831 83 831 133.5 847.5 c 128,-1,21
 184 864 184 864 229 898 c 1,22,-1
 268 898 l 1,0,-1
1013 220 m 1,23,-1
 948 -2 l 1,24,-1
 401 -2 l 1,25,-1
 401 47 l 1,26,27
 421 69 421 69 464 114 c 128,-1,28
 507 159 507 159 575 226 c 0,29,30
 615 266 615 266 655 309 c 128,-1,31
 695 352 695 352 735 398 c 0,32,33
 755 420 755 420 770.5 438.5 c 128,-1,34
 786 457 786 457 797 472 c 0,35,36
 820 508 820 508 831.5 543.5 c 128,-1,37
 843 579 843 579 843 614 c 0,38,39
 843 650 843 650 832.5 681 c 128,-1,40
 822 712 822 712 800 739 c 0,41,42
 779 766 779 766 750.5 779.5 c 128,-1,43
 722 793 722 793 687 793 c 0,44,45
 613 793 613 793 555 743 c 128,-1,46
 497 693 497 693 455 592 c 1,47,-1
 406 610 l 1,48,49
 432 680 432 680 464 733 c 128,-1,50
 496 786 496 786 535.5 821 c 128,-1,51
 575 856 575 856 621 873.5 c 128,-1,52
 667 891 667 891 720 891 c 0,53,54
 772 891 772 891 817 873 c 128,-1,55
 862 855 862 855 899 820 c 0,56,57
 937 784 937 784 955.5 739.5 c 128,-1,58
 974 695 974 695 974 642 c 0,59,60
 974 574 974 574 935.5 507.5 c 128,-1,61
 897 441 897 441 819 377 c 2,62,-1
 713 291 l 2,63,64
 661 248 661 248 618.5 207.5 c 128,-1,65
 576 167 576 167 543 129 c 0,66,67
 540 126 540 126 535.5 121 c 128,-1,68
 531 116 531 116 524 108 c 1,69,-1
 810 108 l 2,70,71
 842 108 842 108 866.5 114 c 128,-1,72
 891 120 891 120 907 132 c 0,73,74
 923 145 923 145 937.5 166.5 c 128,-1,75
 952 188 952 188 965 220 c 1,76,-1
 1013 220 l 1,23,-1
EndSplineSet
Validated: 1
EndChar

StartChar: uniE612
Encoding: 58898 58898 24
Width: 1024
GlyphClass: 1
Flags: W
LayerCount: 2
Fore
SplineSet
273 897 m 1,0,-1
 273 175 l 2,1,2
 273 112 273 112 300.5 80 c 128,-1,3
 328 48 328 48 382 48 c 2,4,-1
 399 48 l 1,5,-1
 399 -1 l 1,6,-1
 15 -1 l 1,7,-1
 15 48 l 1,8,-1
 40 48 l 2,9,10
 95 48 95 48 122.5 80 c 128,-1,11
 150 112 150 112 150 175 c 2,12,-1
 150 649 l 2,13,14
 150 714 150 714 126.5 747 c 128,-1,15
 103 780 103 780 57 780 c 2,16,-1
 19 780 l 1,17,-1
 19 829 l 1,18,-1
 34 829 l 2,19,20
 90 829 90 829 140.5 846 c 128,-1,21
 191 863 191 863 235 897 c 1,22,-1
 273 897 l 1,0,-1
597 419 m 1,23,-1
 574 460 l 1,24,-1
 591 470 l 2,25,26
 634 496 634 496 673.5 523 c 128,-1,27
 713 550 713 550 750 577 c 0,28,29
 786 604 786 604 804.5 635 c 128,-1,30
 823 666 823 666 823 700 c 0,31,32
 823 724 823 724 814 743.5 c 128,-1,33
 805 763 805 763 787 779 c 0,34,35
 769 794 769 794 749 802 c 128,-1,36
 729 810 729 810 707 810 c 0,37,38
 652 810 652 810 594 776.5 c 128,-1,39
 536 743 536 743 475 677 c 1,40,-1
 437 705 l 1,41,42
 468 753 468 753 503 788.5 c 128,-1,43
 538 824 538 824 576.5 848 c 128,-1,44
 615 872 615 872 657 884 c 128,-1,45
 699 896 699 896 745 896 c 0,46,47
 785 896 785 896 818.5 886 c 128,-1,48
 852 876 852 876 880 856 c 0,49,50
 912 834 912 834 928 804 c 128,-1,51
 944 774 944 774 944 736 c 0,52,53
 944 709 944 709 933 683 c 128,-1,54
 922 657 922 657 899 631 c 0,55,56
 885 617 885 617 862.5 597.5 c 128,-1,57
 840 578 840 578 808 553 c 2,58,-1
 790 538 l 1,59,60
 796 539 796 539 803 539.5 c 128,-1,61
 810 540 810 540 819 540 c 0,62,63
 861 540 861 540 895 524 c 128,-1,64
 929 508 929 508 956 477 c 0,65,66
 982 445 982 445 995.5 408.5 c 128,-1,67
 1009 372 1009 372 1009 331 c 0,68,69
 1009 259 1009 259 978.5 199 c 128,-1,70
 948 139 948 139 887 92 c 0,71,72
 832 46 832 46 768 23 c 128,-1,73
 704 0 704 0 631 0 c 0,74,75
 563 0 563 0 510.5 14.5 c 128,-1,76
 458 29 458 29 420 58 c 1,77,-1
 446 96 l 1,78,79
 491 75 491 75 532 64.5 c 128,-1,80
 573 54 573 54 610 54 c 0,81,82
 663 54 663 54 710.5 71.5 c 128,-1,83
 758 89 758 89 800 124 c 128,-1,84
 842 159 842 159 862.5 203 c 128,-1,85
 883 247 883 247 883 299 c 0,86,87
 883 334 883 334 873 364 c 128,-1,88
 863 394 863 394 842 419 c 0,89,90
 821 443 821 443 793.5 455.5 c 128,-1,91
 766 468 766 468 731 468 c 0,92,93
 701 468 701 468 667.5 455.5 c 128,-1,94
 634 443 634 443 597 419 c 1,23,-1
EndSplineSet
Validated: 1
EndChar

StartChar: uniE613
Encoding: 58899 58899 25
Width: 1024
GlyphClass: 1
Flags: W
LayerCount: 2
Fore
SplineSet
265 887 m 1,0,-1
 265 182 l 2,1,2
 265 119 265 119 291 88 c 128,-1,3
 317 57 317 57 369 57 c 2,4,-1
 385 57 l 1,5,-1
 385 9 l 1,6,-1
 13 9 l 1,7,-1
 13 57 l 1,8,-1
 37 57 l 2,9,10
 90 57 90 57 116.5 88 c 128,-1,11
 143 119 143 119 143 182 c 2,12,-1
 143 645 l 2,13,14
 143 708 143 708 120.5 739.5 c 128,-1,15
 98 771 98 771 54 771 c 2,16,-1
 17 771 l 1,17,-1
 17 819 l 1,18,-1
 32 819 l 2,19,20
 85 819 85 819 134 836 c 128,-1,21
 183 853 183 853 227 887 c 1,22,-1
 265 887 l 1,0,-1
879 259 m 1,23,-1
 879 185 l 2,24,25
 879 124 879 124 900.5 93 c 128,-1,26
 922 62 922 62 965 62 c 2,27,-1
 989 62 l 1,28,-1
 989 14 l 1,29,-1
 641 14 l 1,30,-1
 641 62 l 1,31,-1
 668 62 l 2,32,33
 711 62 711 62 732.5 92.5 c 128,-1,34
 754 123 754 123 754 183 c 2,35,-1
 754 259 l 1,36,-1
 404 259 l 1,37,-1
 404 332 l 1,38,-1
 774 876 l 1,39,-1
 879 876 l 1,40,-1
 879 321 l 1,41,-1
 888 321 l 2,42,43
 915 321 915 321 934.5 342 c 128,-1,44
 954 363 954 363 967 406 c 1,45,-1
 1011 406 l 1,46,-1
 989 259 l 1,47,-1
 879 259 l 1,23,-1
783 332 m 1,48,-1
 783 795 l 1,49,-1
 473 332 l 1,50,-1
 783 332 l 1,48,-1
EndSplineSet
Validated: 1
EndChar

StartChar: uniE614
Encoding: 58900 58900 26
Width: 1024
GlyphClass: 1
Flags: W
LayerCount: 2
Fore
SplineSet
295 888 m 1,0,-1
 295 186 l 2,1,2
 295 124 295 124 321 92.5 c 128,-1,3
 347 61 347 61 399 61 c 2,4,-1
 417 61 l 1,5,-1
 417 14 l 1,6,-1
 43 14 l 1,7,-1
 43 61 l 1,8,-1
 68 61 l 2,9,10
 121 61 121 61 147.5 92.5 c 128,-1,11
 174 124 174 124 174 186 c 2,12,-1
 174 646 l 2,13,14
 174 710 174 710 151.5 741.5 c 128,-1,15
 129 773 129 773 84 773 c 2,16,-1
 47 773 l 1,17,-1
 47 821 l 1,18,-1
 61 821 l 2,19,20
 115 821 115 821 164.5 837.5 c 128,-1,21
 214 854 214 854 258 888 c 1,22,-1
 295 888 l 1,0,-1
542 870 m 1,23,-1
 861 870 l 2,24,25
 892 870 892 870 910.5 873.5 c 128,-1,26
 929 877 929 877 935 884 c 1,27,-1
 981 884 l 1,28,-1
 954 764 l 1,29,-1
 565 764 l 1,30,-1
 528 592 l 1,31,32
 569 608 569 608 606 616.5 c 128,-1,33
 643 625 643 625 676 625 c 0,34,35
 739 625 739 625 792.5 604 c 128,-1,36
 846 583 846 583 890 541 c 0,37,38
 934 498 934 498 955.5 445.5 c 128,-1,39
 977 393 977 393 977 329 c 0,40,41
 977 255 977 255 949 195.5 c 128,-1,42
 921 136 921 136 865 91 c 0,43,44
 812 50 812 50 748 29 c 128,-1,45
 684 8 684 8 609 8 c 0,46,47
 565 8 565 8 522 15 c 128,-1,48
 479 22 479 22 436 35 c 1,49,-1
 454 79 l 1,50,51
 489 69 489 69 520.5 64 c 128,-1,52
 552 59 552 59 579 59 c 0,53,54
 634 59 634 59 681.5 77 c 128,-1,55
 729 95 729 95 770 132 c 0,56,57
 811 168 811 168 831.5 213 c 128,-1,58
 852 258 852 258 852 311 c 0,59,60
 852 358 852 358 837 396.5 c 128,-1,61
 822 435 822 435 791 465 c 0,62,63
 761 495 761 495 723 510 c 128,-1,64
 685 525 685 525 639 525 c 0,65,66
 596 525 596 525 556 510 c 128,-1,67
 516 495 516 495 478 465 c 1,68,-1
 449 470 l 1,69,-1
 542 870 l 1,23,-1
EndSplineSet
Validated: 1
EndChar

StartChar: uniE615
Encoding: 58901 58901 27
Width: 1024
GlyphClass: 1
Flags: W
LayerCount: 2
Fore
SplineSet
584 18 m 1,0,-1
 584 62 l 1,1,2
 631 68 631 68 654.5 81.5 c 128,-1,3
 678 95 678 95 678 117 c 0,4,5
 678 133 678 133 672 149 c 128,-1,6
 666 165 666 165 653 181 c 2,7,-1
 478 396 l 1,8,-1
 340 233 l 2,9,10
 314 203 314 203 301 178.5 c 128,-1,11
 288 154 288 154 288 135 c 0,12,13
 288 105 288 105 312 86.5 c 128,-1,14
 336 68 336 68 383 62 c 1,15,-1
 383 18 l 1,16,-1
 47 18 l 1,17,-1
 47 62 l 1,18,19
 79 68 79 68 106 79.5 c 128,-1,20
 133 91 133 91 156 108 c 0,21,22
 171 120 171 120 192 142 c 128,-1,23
 213 164 213 164 240 195 c 2,24,-1
 448 435 l 1,25,-1
 208 726 l 2,26,27
 184 755 184 755 166 773.5 c 128,-1,28
 148 792 148 792 135 800 c 0,29,30
 118 813 118 813 93.5 821 c 128,-1,31
 69 829 69 829 38 832 c 1,32,-1
 38 878 l 1,33,-1
 435 878 l 1,34,-1
 435 834 l 1,35,36
 390 825 390 825 367.5 811.5 c 128,-1,37
 345 798 345 798 345 779 c 0,38,39
 345 767 345 767 351.5 753 c 128,-1,40
 358 739 358 739 370 724 c 2,41,-1
 528 532 l 1,42,-1
 656 689 l 2,43,44
 673 710 673 710 682 728.5 c 128,-1,45
 691 747 691 747 691 763 c 0,46,47
 691 790 691 790 669.5 807 c 128,-1,48
 648 824 648 824 606 832 c 1,49,-1
 606 878 l 1,50,-1
 922 878 l 1,51,-1
 922 834 l 1,52,53
 901 829 901 829 887 825 c 128,-1,54
 873 821 873 821 865 818 c 0,55,56
 839 805 839 805 799.5 768.5 c 128,-1,57
 760 732 760 732 707 671 c 0,58,59
 698 661 698 661 661.5 616.5 c 128,-1,60
 625 572 625 572 562 493 c 1,61,-1
 817 179 l 2,62,63
 858 127 858 127 900.5 98 c 128,-1,64
 943 69 943 69 986 62 c 1,65,-1
 986 18 l 1,66,-1
 584 18 l 1,0,-1
EndSplineSet
Validated: 1
EndChar

StartChar: uniE616
Encoding: 58902 58902 28
Width: 1024
GlyphClass: 1
Flags: W
LayerCount: 2
Fore
SplineSet
581 206 m 1,0,1
 581 164 581 164 588 135 c 128,-1,2
 595 106 595 106 608 89 c 0,3,4
 622 73 622 73 644.5 64.5 c 128,-1,5
 667 56 667 56 700 56 c 2,6,-1
 710 57 l 1,7,-1
 710 8 l 1,8,-1
 313 8 l 1,9,-1
 313 57 l 1,10,-1
 326 57 l 2,11,12
 358 57 358 57 381 65 c 128,-1,13
 404 73 404 73 417 89 c 0,14,15
 431 106 431 106 437.5 135 c 128,-1,16
 444 164 444 164 444 204 c 2,17,-1
 444 377 l 1,18,-1
 192 747 l 2,19,20
 184 757 184 757 177 766.5 c 128,-1,21
 170 776 170 776 164 783 c 0,22,23
 159 791 159 791 153.5 797 c 128,-1,24
 148 803 148 803 143 808 c 0,25,26
 134 815 134 815 125 820 c 128,-1,27
 116 825 116 825 107 828 c 128,-1,28
 98 831 98 831 86 833.5 c 128,-1,29
 74 836 74 836 59 837 c 1,30,-1
 59 888 l 1,31,-1
 444 888 l 1,32,-1
 444 839 l 1,33,34
 415 836 415 836 395.5 832 c 128,-1,35
 376 828 376 828 366 823 c 0,36,37
 355 817 355 817 350 807 c 128,-1,38
 345 797 345 797 345 782 c 0,39,40
 345 776 345 776 346.5 769.5 c 128,-1,41
 348 763 348 763 350 756 c 2,42,-1
 356 743 l 2,43,44
 360 736 360 736 364 729 c 2,45,-1
 560 445 l 1,46,-1
 704 656 l 2,47,48
 714 670 714 670 721.5 682 c 128,-1,49
 729 694 729 694 733 705 c 0,50,51
 738 715 738 715 740.5 724.5 c 128,-1,52
 743 734 743 734 745 743 c 2,53,-1
 745 746 l 1,54,-1
 745 748 l 1,55,-1
 745 751 l 1,56,-1
 745 754 l 2,57,58
 745 774 745 774 739.5 788.5 c 128,-1,59
 734 803 734 803 723 813 c 128,-1,60
 712 823 712 823 693 829 c 128,-1,61
 674 835 674 835 647 837 c 1,62,-1
 647 888 l 1,63,-1
 965 888 l 1,64,-1
 965 839 l 1,65,66
 958 837 958 837 950.5 835.5 c 128,-1,67
 943 834 943 834 937 832 c 0,68,69
 930 829 930 829 924 826 c 128,-1,70
 918 823 918 823 912 819 c 0,71,72
 902 814 902 814 891.5 804.5 c 128,-1,73
 881 795 881 795 870 783 c 0,74,75
 859 770 859 770 845.5 752.5 c 128,-1,76
 832 735 832 735 817 712 c 2,77,-1
 581 377 l 1,78,-1
 581 206 l 1,79,-1
 581 206 l 1,0,1
EndSplineSet
Validated: 5
EndChar

StartChar: uniE617
Encoding: 58903 58903 29
Width: 1024
GlyphClass: 1
Flags: W
LayerCount: 2
Fore
SplineSet
854 8 m 1,0,-1
 112 8 l 1,1,-1
 112 46 l 1,2,-1
 700 835 l 1,3,-1
 439 835 l 2,4,5
 406 834 406 834 381.5 830.5 c 128,-1,6
 357 827 357 827 339 821 c 0,7,8
 322 815 322 815 306 803.5 c 128,-1,9
 290 792 290 792 275 774 c 0,10,11
 273 773 273 773 272 771.5 c 128,-1,12
 271 770 271 770 270 769 c 128,-1,13
 269 768 269 768 268 766.5 c 128,-1,14
 267 765 267 765 266 764 c 0,15,16
 263 760 263 760 260.5 756.5 c 128,-1,17
 258 753 258 753 256 750 c 0,18,19
 254 748 254 748 252 744.5 c 128,-1,20
 250 741 250 741 248 738 c 2,21,-1
 246 734 l 1,22,-1
 244 730 l 2,23,24
 242 728 242 728 241 726.5 c 128,-1,25
 240 725 240 725 239 723 c 0,26,27
 237 719 237 719 235.5 715 c 128,-1,28
 234 711 234 711 232 707 c 2,29,-1
 228 697 l 2,30,31
 226 692 226 692 223 687 c 1,32,-1
 177 688 l 1,33,-1
 177 888 l 1,34,-1
 881 888 l 1,35,-1
 881 853 l 1,36,-1
 288 61 l 1,37,-1
 544 61 l 2,38,39
 573 60 573 60 596 61 c 128,-1,40
 619 62 619 62 636 64 c 0,41,42
 654 66 654 66 669.5 70 c 128,-1,43
 685 74 685 74 700 80 c 0,44,45
 702 81 702 81 704 81.5 c 128,-1,46
 706 82 706 82 707 83 c 0,47,48
 709 84 709 84 710.5 84.5 c 128,-1,49
 712 85 712 85 713 86 c 0,50,51
 722 90 722 90 731 95 c 128,-1,52
 740 100 740 100 748 106 c 128,-1,53
 756 112 756 112 764.5 119 c 128,-1,54
 773 126 773 126 782 133 c 0,55,56
 787 139 787 139 793 145.5 c 128,-1,57
 799 152 799 152 805 158 c 0,58,59
 811 165 811 165 817 172.5 c 128,-1,60
 823 180 823 180 829 189 c 2,61,-1
 863 237 l 1,62,-1
 912 237 l 1,63,-1
 854 8 l 1,0,-1
EndSplineSet
Validated: 33
EndChar

StartChar: uniE618
Encoding: 58904 58904 30
Width: 1024
GlyphClass: 1
Flags: W
LayerCount: 2
Fore
SplineSet
800 449 m 1,0,1
 800 491 800 491 787 531.5 c 128,-1,2
 774 572 774 572 748 605 c 0,3,4
 735 619 735 619 724 634 c 128,-1,5
 713 649 713 649 700 662 c 0,6,7
 670 691 670 691 630 700 c 128,-1,8
 590 709 590 709 554 728 c 1,9,10
 552 746 552 746 548 764.5 c 128,-1,11
 544 783 544 783 548 802 c 0,12,13
 549 808 549 808 550 814.5 c 128,-1,14
 551 821 551 821 548 827 c 0,15,16
 539 848 539 848 542.5 870.5 c 128,-1,17
 546 893 546 893 544 916 c 0,18,19
 543 927 543 927 541.5 940 c 128,-1,20
 540 953 540 953 529 960 c 1,21,22
 526 936 526 936 518.5 913 c 128,-1,23
 511 890 511 890 504 867 c 0,24,25
 500 849 500 849 498 830.5 c 128,-1,26
 496 812 496 812 489 795 c 1,27,28
 494 778 494 778 486.5 763.5 c 128,-1,29
 479 749 479 749 468 736 c 1,30,31
 445 724 445 724 419.5 717.5 c 128,-1,32
 394 711 394 711 373 693 c 0,33,34
 359 681 359 681 343.5 670 c 128,-1,35
 328 659 328 659 312 650 c 1,36,37
 300 634 300 634 288 618.5 c 128,-1,38
 276 603 276 603 271 584 c 1,39,40
 249 558 249 558 241.5 525.5 c 128,-1,41
 234 493 234 493 222 462 c 1,42,43
 222 416 222 416 233 370 c 128,-1,44
 244 324 244 324 273 287 c 1,45,46
 294 270 294 270 310.5 249 c 128,-1,47
 327 228 327 228 347 211 c 0,48,49
 367 199 367 199 388 189 c 128,-1,50
 409 179 409 179 430 168 c 0,51,52
 443 165 443 165 457 162.5 c 128,-1,53
 471 160 471 160 484 157 c 1,54,55
 495 101 495 101 505 45 c 128,-1,56
 515 -11 515 -11 537 -64 c 1,57,58
 544 -42 544 -42 546 -19.5 c 128,-1,59
 548 3 548 3 554 25 c 0,60,61
 563 58 563 58 554 91 c 128,-1,62
 545 124 545 124 555 156 c 1,63,64
 570 169 570 169 592.5 167.5 c 128,-1,65
 615 166 615 166 631 178 c 0,66,67
 664 197 664 197 695.5 218.5 c 128,-1,68
 727 240 727 240 750 270 c 0,69,70
 759 287 759 287 772.5 302 c 128,-1,71
 786 317 786 317 786 338 c 0,72,73
 786 366 786 366 796 393 c 128,-1,74
 806 420 806 420 800 449 c 1,0,1
483 220 m 1,75,76
 459 225 459 225 437.5 235.5 c 128,-1,77
 416 246 416 246 397 260 c 0,78,79
 376 274 376 274 364 296 c 128,-1,80
 352 318 352 318 331 333 c 1,81,82
 311 356 311 356 309.5 385.5 c 128,-1,83
 308 415 308 415 300 442 c 1,84,85
 303 461 303 461 306.5 480 c 128,-1,86
 310 499 310 499 312 519 c 1,87,88
 321 534 321 534 333 547.5 c 128,-1,89
 345 561 345 561 349 580 c 1,90,91
 363 600 363 600 382.5 615 c 128,-1,92
 402 630 402 630 418 648 c 0,93,94
 431 662 431 662 448.5 660.5 c 128,-1,95
 466 659 466 659 483 659 c 1,96,97
 481 644 481 644 480.5 628 c 128,-1,98
 480 612 480 612 484 596 c 0,99,100
 486 587 486 587 489 577.5 c 128,-1,101
 492 568 492 568 490 558 c 0,102,103
 487 537 487 537 491 515.5 c 128,-1,104
 495 494 495 494 489 473 c 0,105,106
 478 430 478 430 484.5 386 c 128,-1,107
 491 342 491 342 492 297 c 0,108,109
 490 278 490 278 488.5 258.5 c 128,-1,110
 487 239 487 239 483 220 c 1,75,76
717 330 m 1,111,112
 702 319 702 319 688.5 306 c 128,-1,113
 675 293 675 293 662 280 c 0,114,115
 638 264 638 264 614 248.5 c 128,-1,116
 590 233 590 233 563 225 c 1,117,118
 565 245 565 245 566 265 c 128,-1,119
 567 285 567 285 561 304 c 0,120,121
 545 348 545 348 556 393.5 c 128,-1,122
 567 439 567 439 570 483 c 1,123,124
 567 510 567 510 566.5 537 c 128,-1,125
 566 564 566 564 553 588 c 1,126,127
 552 606 552 606 558 624 c 128,-1,128
 564 642 564 642 569 659 c 1,129,130
 587 652 587 652 604.5 642 c 128,-1,131
 622 632 622 632 637 619 c 0,132,133
 655 605 655 605 678 592.5 c 128,-1,134
 701 580 701 580 705 554 c 0,135,136
 707 537 707 537 719.5 524.5 c 128,-1,137
 732 512 732 512 731 495 c 0,138,139
 730 454 730 454 731 411.5 c 128,-1,140
 732 369 732 369 717 330 c 1,111,112
EndSplineSet
Validated: 41
EndChar

StartChar: uniE619
Encoding: 58905 58905 31
Width: 1024
GlyphClass: 1
Flags: W
LayerCount: 2
Fore
SplineSet
512 948 m 1,0,-1
 612 807 l 1,1,-1
 636 848 l 1,2,-1
 681 849 l 1,3,-1
 768 891 l 1,4,-1
 775 794 l 1,5,-1
 797 756 l 1,6,-1
 772 714 l 1,7,-1
 945 698 l 1,8,-1
 873 541 l 1,9,-1
 921 541 l 1,10,-1
 943 502 l 1,11,-1
 1023 448 l 1,12,-1
 943 394 l 1,13,-1
 921 355 l 1,14,-1
 873 355 l 1,15,-1
 945 198 l 1,16,-1
 772 182 l 1,17,-1
 797 140 l 1,18,-1
 775 101 l 1,19,-1
 768 5 l 1,20,-1
 681 47 l 1,21,-1
 636 48 l 1,22,-1
 612 89 l 1,23,-1
 512 -52 l 1,24,-1
 412 89 l 1,25,-1
 388 48 l 1,26,-1
 343 47 l 1,27,-1
 256 5 l 1,28,-1
 249 102 l 1,29,-1
 227 140 l 1,30,-1
 252 182 l 1,31,-1
 79 198 l 1,32,-1
 151 355 l 1,33,-1
 103 355 l 1,34,-1
 81 394 l 1,35,-1
 1 448 l 1,36,-1
 81 502 l 1,37,-1
 103 541 l 1,38,-1
 151 541 l 1,39,-1
 79 698 l 1,40,-1
 252 714 l 1,41,-1
 227 756 l 1,42,-1
 249 794 l 1,43,-1
 256 891 l 1,44,-1
 343 849 l 1,45,-1
 388 848 l 1,46,-1
 412 807 l 1,47,-1
 512 948 l 1,0,-1
512 291 m 1,48,-1
 440 166 l 1,49,-1
 512 40 l 1,50,-1
 584 166 l 1,51,-1
 512 291 l 1,48,-1
322 819 m 1,52,-1
 286 798 l 1,53,-1
 286 757 l 1,54,-1
 322 736 l 1,55,-1
 460 478 l 1,56,-1
 167 469 l 1,57,-1
 131 489 l 1,58,-1
 96 469 l 1,59,-1
 96 427 l 1,60,-1
 131 407 l 1,61,-1
 167 427 l 1,62,-1
 460 418 l 1,63,-1
 322 160 l 1,64,-1
 286 139 l 1,65,-1
 286 98 l 1,66,-1
 322 77 l 1,67,-1
 358 98 l 1,68,-1
 358 139 l 1,69,-1
 512 388 l 1,70,-1
 666 139 l 1,71,-1
 666 98 l 1,72,-1
 702 77 l 1,73,-1
 738 98 l 1,74,-1
 738 139 l 1,75,-1
 702 160 l 1,76,-1
 564 418 l 1,77,-1
 857 427 l 1,78,-1
 893 407 l 1,79,-1
 928 427 l 1,80,-1
 928 469 l 1,81,-1
 893 489 l 1,82,-1
 857 469 l 1,83,-1
 564 478 l 1,84,-1
 702 736 l 1,85,-1
 738 757 l 1,86,-1
 738 798 l 1,87,-1
 702 819 l 1,88,-1
 666 798 l 1,89,-1
 666 757 l 1,90,-1
 512 508 l 1,91,-1
 358 757 l 1,92,-1
 358 798 l 1,93,-1
 322 819 l 1,52,-1
648 370 m 1,94,-1
 720 244 l 1,95,-1
 865 244 l 1,96,-1
 792 369 l 1,97,-1
 648 370 l 1,94,-1
376 370 m 1,98,-1
 232 369 l 1,99,-1
 159 244 l 1,100,-1
 304 244 l 1,101,-1
 376 370 l 1,98,-1
865 652 m 1,102,-1
 720 652 l 1,103,-1
 648 526 l 1,104,-1
 793 527 l 1,105,-1
 865 652 l 1,102,-1
159 652 m 1,106,-1
 232 527 l 1,107,-1
 376 526 l 1,108,-1
 304 652 l 1,109,-1
 159 652 l 1,106,-1
512 856 m 1,110,-1
 440 730 l 1,111,-1
 512 605 l 1,112,-1
 584 730 l 1,113,-1
 512 856 l 1,110,-1
EndSplineSet
Validated: 1
EndChar

StartChar: uniE61A
Encoding: 58906 58906 32
Width: 1024
GlyphClass: 1
Flags: W
LayerCount: 2
Fore
SplineSet
872 441 m 1,0,-1
 460 441 l 1,1,-1
 611 548 l 1,2,3
 569 581 569 581 520.5 598 c 128,-1,4
 472 615 472 615 417 615 c 0,5,6
 389 615 389 615 370.5 609.5 c 128,-1,7
 352 604 352 604 342 594 c 0,8,9
 331 583 331 583 326 564 c 128,-1,10
 321 545 321 545 321 518 c 0,11,12
 321 480 321 480 331 440.5 c 128,-1,13
 341 401 341 401 360.5 360.5 c 128,-1,14
 380 320 380 320 409.5 278 c 128,-1,15
 439 236 439 236 478 193 c 1,16,-1
 359 72 l 1,17,18
 307 135 307 135 268 195 c 128,-1,19
 229 255 229 255 203 311.5 c 128,-1,20
 177 368 177 368 164.5 421 c 128,-1,21
 152 474 152 474 152 523 c 0,22,23
 152 583 152 583 169.5 630.5 c 128,-1,24
 187 678 187 678 223 713 c 128,-1,25
 259 748 259 748 307 765.5 c 128,-1,26
 355 783 355 783 414 783 c 0,27,28
 450 783 450 783 488 776 c 128,-1,29
 526 769 526 769 565.5 755.5 c 128,-1,30
 605 742 605 742 646 721 c 128,-1,31
 687 700 687 700 730 673 c 1,32,-1
 819 824 l 1,33,-1
 872 441 l 1,0,-1
EndSplineSet
Validated: 1
EndChar

StartChar: uniE61B
Encoding: 58907 58907 33
Width: 1024
GlyphClass: 1
Flags: W
LayerCount: 2
Fore
SplineSet
505 808 m 1,0,-1
 505 396 l 1,1,-1
 612 547 l 1,2,3
 645 505 645 505 662 456.5 c 128,-1,4
 679 408 679 408 679 353 c 0,5,6
 679 325 679 325 673.5 306.5 c 128,-1,7
 668 288 668 288 658 278 c 0,8,9
 647 267 647 267 628 262 c 128,-1,10
 609 257 609 257 582 257 c 0,11,12
 544 257 544 257 504.5 267 c 128,-1,13
 465 277 465 277 424.5 296.5 c 128,-1,14
 384 316 384 316 342 345.5 c 128,-1,15
 300 375 300 375 257 414 c 1,16,-1
 136 295 l 1,17,18
 199 243 199 243 259 204 c 128,-1,19
 319 165 319 165 375.5 139 c 128,-1,20
 432 113 432 113 485 100.5 c 128,-1,21
 538 88 538 88 587 88 c 0,22,23
 647 88 647 88 694.5 105.5 c 128,-1,24
 742 123 742 123 777 159 c 128,-1,25
 812 195 812 195 829.5 243 c 128,-1,26
 847 291 847 291 847 350 c 0,27,28
 847 386 847 386 840 424 c 128,-1,29
 833 462 833 462 819.5 501.5 c 128,-1,30
 806 541 806 541 785 582 c 128,-1,31
 764 623 764 623 737 666 c 1,32,-1
 888 755 l 1,33,-1
 505 808 l 1,0,-1
EndSplineSet
Validated: 9
EndChar

StartChar: uniE61C
Encoding: 58908 58908 34
Width: 1024
GlyphClass: 1
Flags: W
LayerCount: 2
Fore
SplineSet
991 359 m 1,0,-1
 873 217 l 1,1,-1
 845 246 l 1,2,3
 853 267 853 267 858.5 286.5 c 128,-1,4
 864 306 864 306 866 324 c 128,-1,5
 868 342 868 342 867 358.5 c 128,-1,6
 866 375 866 375 862 390 c 0,7,8
 862 392 862 392 861.5 394 c 128,-1,9
 861 396 861 396 860 398 c 0,10,11
 860 399 860 399 859 401 c 128,-1,12
 858 403 858 403 857 404 c 0,13,14
 854 414 854 414 849.5 423 c 128,-1,15
 845 432 845 432 838 440 c 0,16,17
 832 449 832 449 822.5 459 c 128,-1,18
 813 469 813 469 801 481 c 2,19,-1
 717 567 l 1,20,-1
 327 176 l 2,21,22
 301 151 301 151 287 128.5 c 128,-1,23
 273 106 273 106 271 87 c 0,24,25
 269 69 269 69 278.5 49 c 128,-1,26
 288 29 288 29 308 9 c 2,27,-1
 320 -1 l 1,28,-1
 289 -31 l 1,29,-1
 33 225 l 1,30,-1
 63 255 l 1,31,-1
 76 243 l 2,32,33
 96 222 96 222 115.5 212.5 c 128,-1,34
 135 203 135 203 154 205 c 128,-1,35
 173 207 173 207 195 220.5 c 128,-1,36
 217 234 217 234 242 260 c 2,37,-1
 633 651 l 1,38,-1
 546 738 l 2,39,40
 528 756 528 756 512 768 c 128,-1,41
 496 780 496 780 483 787 c 128,-1,42
 470 794 470 794 455 797 c 128,-1,43
 440 800 440 800 423 799 c 2,44,-1
 418 799 l 1,45,-1
 413 799 l 2,46,47
 410 798 410 798 407.5 798 c 128,-1,48
 405 798 405 798 402 797 c 0,49,50
 397 797 397 797 392.5 796.5 c 128,-1,51
 388 796 388 796 384 795 c 128,-1,52
 380 794 380 794 376 793.5 c 128,-1,53
 372 793 372 793 368 793 c 0,54,55
 367 792 367 792 366 792 c 128,-1,56
 365 792 365 792 364 791 c 2,57,-1
 361 791 l 1,58,-1
 359 791 l 2,59,60
 354 790 354 790 349 788.5 c 128,-1,61
 344 787 344 787 339 785 c 0,62,63
 333 784 333 784 326 782 c 128,-1,64
 319 780 319 780 311 778 c 1,65,-1
 284 806 l 1,66,-1
 423 927 l 1,67,-1
 991 359 l 1,0,-1
EndSplineSet
Validated: 33
EndChar

StartChar: uniE61D
Encoding: 58909 58909 35
Width: 1024
GlyphClass: 1
Flags: W
LayerCount: 2
Fore
SplineSet
650 874 m 1,0,1
 532 869 532 869 520 822 c 128,-1,2
 508 775 508 775 528 710.5 c 128,-1,3
 548 646 548 646 561.5 575.5 c 128,-1,4
 575 505 575 505 509 452 c 1,5,-1
 509 452 l 1,6,-1
 509 452 l 1,7,8
 508 452 508 452 507.5 451.5 c 128,-1,9
 507 451 507 451 506 451 c 0,10,11
 460 432 460 432 413.5 450 c 128,-1,12
 367 468 367 468 329 481.5 c 128,-1,13
 291 495 291 495 266.5 482.5 c 128,-1,14
 242 470 242 470 241 391 c 1,15,16
 290 464 290 464 326.5 429.5 c 128,-1,17
 363 395 363 395 444 399 c 1,18,19
 404 348 404 348 399.5 279 c 128,-1,20
 395 210 395 210 330 196 c 0,21,22
 270 183 270 183 220 208 c 128,-1,23
 170 233 170 233 134 277.5 c 128,-1,24
 98 322 98 322 79.5 376 c 128,-1,25
 61 430 61 430 64 476 c 0,26,27
 73 577 73 577 113.5 650.5 c 128,-1,28
 154 724 154 724 215 771 c 128,-1,29
 276 818 276 818 352 839 c 128,-1,30
 428 860 428 860 506 855 c 1,31,32
 402 876 402 876 309.5 847.5 c 128,-1,33
 217 819 217 819 147.5 759.5 c 128,-1,34
 78 700 78 700 38 617 c 128,-1,35
 -2 534 -2 534 1 445 c 0,36,37
 4 343 4 343 31.5 266.5 c 128,-1,38
 59 190 59 190 107.5 138 c 128,-1,39
 156 86 156 86 223.5 57.5 c 128,-1,40
 291 29 291 29 374 22 c 1,41,42
 492 27 492 27 504 74 c 128,-1,43
 516 121 516 121 496 185.5 c 128,-1,44
 476 250 476 250 462.5 320.5 c 128,-1,45
 449 391 449 391 515 444 c 1,46,-1
 515 444 l 1,47,-1
 515 444 l 1,48,49
 516 444 516 444 516.5 444.5 c 128,-1,50
 517 445 517 445 518 445 c 0,51,52
 564 464 564 464 610.5 446 c 128,-1,53
 657 428 657 428 695 414.5 c 128,-1,54
 733 401 733 401 757.5 413.5 c 128,-1,55
 782 426 782 426 783 505 c 1,56,57
 734 432 734 432 697.5 466.5 c 128,-1,58
 661 501 661 501 580 497 c 1,59,60
 620 548 620 548 624.5 617 c 128,-1,61
 629 686 629 686 694 700 c 0,62,63
 754 713 754 713 804 688 c 128,-1,64
 854 663 854 663 890 618.5 c 128,-1,65
 926 574 926 574 944.5 520 c 128,-1,66
 963 466 963 466 960 420 c 0,67,68
 951 319 951 319 910.5 245.5 c 128,-1,69
 870 172 870 172 809 125 c 128,-1,70
 748 78 748 78 672 57 c 128,-1,71
 596 36 596 36 518 41 c 1,72,73
 622 20 622 20 714.5 48.5 c 128,-1,74
 807 77 807 77 876.5 136.5 c 128,-1,75
 946 196 946 196 986 279 c 128,-1,76
 1026 362 1026 362 1023 451 c 0,77,78
 1020 553 1020 553 992.5 629.5 c 128,-1,79
 965 706 965 706 916.5 758 c 128,-1,80
 868 810 868 810 800.5 838.5 c 128,-1,81
 733 867 733 867 650 874 c 1,0,1
EndSplineSet
Validated: 41
EndChar

StartChar: uniE61E
Encoding: 58910 58910 36
Width: 1024
GlyphClass: 1
Flags: W
LayerCount: 2
Fore
SplineSet
256 898 m 2,0,-1
 768 898 l 2,1,2
 778 895 778 895 787 889 c 128,-1,3
 796 883 796 883 799 873 c 0,4,5
 802 856 802 856 798.5 839 c 128,-1,6
 795 822 795 822 797 805 c 0,7,8
 799 790 799 790 795.5 775.5 c 128,-1,9
 792 761 792 761 795 746 c 1,10,11
 801 738 801 738 809.5 732.5 c 128,-1,12
 818 727 818 727 824 718 c 0,13,14
 825 715 825 715 827 711.5 c 128,-1,15
 829 708 829 708 830 704 c 2,16,-1
 830 677 l 2,17,18
 827 669 827 669 822 661.5 c 128,-1,19
 817 654 817 654 810 648 c 0,20,21
 803 643 803 643 796 637.5 c 128,-1,22
 789 632 789 632 786 624 c 0,23,24
 772 568 772 568 754 514 c 128,-1,25
 736 460 736 460 710 409 c 0,26,27
 704 396 704 396 693 387 c 2,28,-1
 671 369 l 2,29,30
 656 357 656 357 638.5 347.5 c 128,-1,31
 621 338 621 338 603 330 c 0,32,33
 592 325 592 325 580.5 320.5 c 128,-1,34
 569 316 569 316 561 306 c 0,35,36
 559 298 559 298 560 291 c 128,-1,37
 561 284 561 284 562 276 c 0,38,39
 564 252 564 252 566 227.5 c 128,-1,40
 568 203 568 203 570 179 c 0,41,42
 573 166 573 166 572.5 152.5 c 128,-1,43
 572 139 572 139 577 126 c 0,44,45
 586 106 586 106 603 92 c 128,-1,46
 620 78 620 78 639 68 c 0,47,48
 656 60 656 60 675 54 c 128,-1,49
 694 48 694 48 713 49 c 0,50,51
 728 50 728 50 742.5 47 c 128,-1,52
 757 44 757 44 770 37 c 0,53,54
 778 33 778 33 779 24 c 128,-1,55
 780 15 780 15 774 9 c 0,56,57
 767 4 767 4 759 2 c 128,-1,58
 751 0 751 0 744 -2 c 2,59,-1
 280 -2 l 2,60,61
 272 0 272 0 264.5 2 c 128,-1,62
 257 4 257 4 250 9 c 0,63,64
 244 15 244 15 244.5 23.5 c 128,-1,65
 245 32 245 32 252 36 c 0,66,67
 267 45 267 45 285 47.5 c 128,-1,68
 303 50 303 50 320 49 c 0,69,70
 347 52 347 52 372 62.5 c 128,-1,71
 397 73 397 73 418 89 c 0,72,73
 428 97 428 97 436 107.5 c 128,-1,74
 444 118 444 118 448 131 c 0,75,76
 452 142 452 142 451.5 154.5 c 128,-1,77
 451 167 451 167 454 179 c 0,78,79
 456 207 456 207 458.5 235.5 c 128,-1,80
 461 264 461 264 464 292 c 2,81,-1
 464 303 l 2,82,83
 464 308 464 308 459 311 c 0,84,85
 446 321 446 321 431 326 c 128,-1,86
 416 331 416 331 403 339 c 0,87,88
 383 348 383 348 364.5 361 c 128,-1,89
 346 374 346 374 330 389 c 0,90,91
 320 398 320 398 314 409.5 c 128,-1,92
 308 421 308 421 302 433 c 0,93,94
 281 479 281 479 265 527 c 128,-1,95
 249 575 249 575 237 624 c 0,96,97
 235 633 235 633 226.5 638.5 c 128,-1,98
 218 644 218 644 211 651 c 0,99,100
 205 656 205 656 200.5 663 c 128,-1,101
 196 670 196 670 194 678 c 2,102,-1
 194 704 l 2,103,104
 196 717 196 717 205 724.5 c 128,-1,105
 214 732 214 732 223 740 c 0,106,107
 231 745 231 745 230.5 754.5 c 128,-1,108
 230 764 230 764 229 772 c 0,109,110
 226 786 226 786 227 801.5 c 128,-1,111
 228 817 228 817 226 832 c 0,112,113
 225 842 225 842 224 852.5 c 128,-1,114
 223 863 223 863 225 873 c 0,115,116
 229 883 229 883 237.5 889 c 128,-1,117
 246 895 246 895 256 898 c 2,0,-1
EndSplineSet
Validated: 33
EndChar

StartChar: uniE61F
Encoding: 58911 58911 37
Width: 1024
GlyphClass: 1
Flags: W
LayerCount: 2
Fore
SplineSet
753 902 m 1,0,-1
 800 902 l 1,1,2
 765 871 765 871 724.5 856.5 c 128,-1,3
 684 842 684 842 646 821 c 1,4,5
 595 799 595 799 553.5 762.5 c 128,-1,6
 512 726 512 726 468 692 c 0,7,8
 427 660 427 660 384 629.5 c 128,-1,9
 341 599 341 599 307 558 c 0,10,11
 273 518 273 518 239.5 477 c 128,-1,12
 206 436 206 436 186 387 c 1,13,14
 194 368 194 368 201.5 348.5 c 128,-1,15
 209 329 209 329 215 309 c 1,16,17
 274 363 274 363 333.5 416.5 c 128,-1,18
 393 470 393 470 456.5 519.5 c 128,-1,19
 520 569 520 569 587.5 611.5 c 128,-1,20
 655 654 655 654 729 685 c 0,21,22
 801 714 801 714 873 745.5 c 128,-1,23
 945 777 945 777 1023 784 c 1,24,25
 1008 758 1008 758 985.5 744.5 c 128,-1,26
 963 731 963 731 940 719 c 0,27,28
 893 697 893 697 847 671.5 c 128,-1,29
 801 646 801 646 757 617 c 128,-1,30
 713 588 713 588 672 555 c 128,-1,31
 631 522 631 522 594 484 c 0,32,33
 559 445 559 445 520.5 410 c 128,-1,34
 482 375 482 375 442.5 341 c 128,-1,35
 403 307 403 307 363.5 272.5 c 128,-1,36
 324 238 324 238 287 201 c 0,37,38
 257 170 257 170 231 135.5 c 128,-1,39
 205 101 205 101 172 72 c 0,40,41
 150 54 150 54 128 73 c 128,-1,42
 106 92 106 92 111 116 c 0,43,44
 114 153 114 153 121.5 193.5 c 128,-1,45
 129 234 129 234 103 267 c 1,46,47
 81 285 81 285 52.5 295 c 128,-1,48
 24 305 24 305 4 324 c 1,49,-1
 2 330 l 2,50,51
 1 337 1 337 1 344 c 0,52,53
 0 350 0 350 2 359 c 2,54,-1
 4 368 l 2,55,56
 16 424 16 424 54 467.5 c 128,-1,57
 92 511 92 511 128 553 c 0,58,59
 168 598 168 598 210.5 640 c 128,-1,60
 253 682 253 682 304 714 c 0,61,62
 340 733 340 733 378.5 746 c 128,-1,63
 417 759 417 759 453 780 c 0,64,65
 488 799 488 799 524 817.5 c 128,-1,66
 560 836 560 836 597 852 c 128,-1,67
 634 868 634 868 672.5 881 c 128,-1,68
 711 894 711 894 753 902 c 1,0,-1
701 368 m 0,69,70
 738 390 738 390 778 412 c 0,71,72
 817 435 817 435 857 454 c 128,-1,73
 897 473 897 473 938.5 488.5 c 128,-1,74
 980 504 980 504 1023 513 c 1,75,76
 988 471 988 471 947.5 449.5 c 128,-1,77
 907 428 907 428 870 403 c 0,78,79
 830 378 830 378 790.5 351 c 128,-1,80
 751 324 751 324 711 297 c 0,81,82
 657 261 657 261 610 215.5 c 128,-1,83
 563 170 563 170 520 121 c 0,84,85
 491 90 491 90 467 53.5 c 128,-1,86
 443 17 443 17 405 -6 c 1,87,-1
 367 -6 l 1,88,89
 346 8 346 8 334.5 30 c 128,-1,90
 323 52 323 52 332 77 c 0,91,92
 343 131 343 131 388.5 159.5 c 128,-1,93
 434 188 434 188 473 218 c 0,94,95
 527 261 527 261 583.5 299 c 128,-1,96
 640 337 640 337 701 368 c 0,69,70
EndSplineSet
Validated: 33
EndChar

StartChar: uniE620
Encoding: 58912 58912 38
Width: 1024
GlyphClass: 1
Flags: W
LayerCount: 2
Fore
SplineSet
507 869 m 1,0,-1
 516 869 l 1,1,2
 519 861 519 861 521 853 c 128,-1,3
 523 845 523 845 524 837 c 2,4,-1
 534 741 l 2,5,6
 539 693 539 693 544 645.5 c 128,-1,7
 549 598 549 598 554 550 c 2,8,-1
 564 454 l 2,9,10
 566 443 566 443 567.5 431.5 c 128,-1,11
 569 420 569 420 577 412 c 0,12,13
 586 405 586 405 595 411 c 128,-1,14
 604 417 604 417 609 424 c 0,15,16
 634 457 634 457 659 490.5 c 128,-1,17
 684 524 684 524 709 557 c 2,18,-1
 759 623 l 2,19,20
 784 656 784 656 809 690 c 0,21,22
 814 697 814 697 821 703 c 128,-1,23
 828 709 828 709 837 714 c 1,24,25
 836 704 836 704 834.5 694 c 128,-1,26
 833 684 833 684 829 675 c 0,27,28
 799 603 799 603 770.5 531 c 128,-1,29
 742 459 742 459 712 387 c 0,30,31
 709 377 709 377 705.5 366.5 c 128,-1,32
 702 356 702 356 706 346 c 0,33,34
 711 336 711 336 722 338 c 128,-1,35
 733 340 733 340 741 342 c 0,36,37
 798 365 798 365 854.5 388 c 128,-1,38
 911 411 911 411 967 434 c 0,39,40
 981 440 981 440 995 445 c 128,-1,41
 1009 450 1009 450 1024 452 c 1,42,-1
 1024 443 l 1,43,44
 1015 432 1015 432 1003.5 423 c 128,-1,45
 992 414 992 414 982 404 c 0,46,47
 936 365 936 365 890.5 326 c 128,-1,48
 845 287 845 287 799 249 c 0,49,50
 791 242 791 242 785 233.5 c 128,-1,51
 779 225 779 225 780 214 c 0,52,53
 783 205 783 205 791.5 200.5 c 128,-1,54
 800 196 800 196 808 193 c 0,55,56
 862 180 862 180 916 166 c 128,-1,57
 970 152 970 152 1024 139 c 1,58,-1
 1024 129 l 1,59,60
 958 115 958 115 892.5 98.5 c 128,-1,61
 827 82 827 82 761 71 c 0,62,63
 750 70 750 70 737.5 67.5 c 128,-1,64
 725 65 725 65 714 72 c 1,65,66
 709 80 709 80 710.5 88.5 c 128,-1,67
 712 97 712 97 713 106 c 0,68,69
 718 136 718 136 714 166.5 c 128,-1,70
 710 197 710 197 697 225 c 0,71,72
 677 268 677 268 638 299 c 128,-1,73
 599 330 599 330 552 339 c 0,74,75
 510 348 510 348 466.5 338 c 128,-1,76
 423 328 423 328 389 302 c 0,77,78
 344 269 344 269 322 214 c 128,-1,79
 300 159 300 159 311 104 c 0,80,81
 312 96 312 96 313 86.5 c 128,-1,82
 314 77 314 77 307 70 c 0,83,84
 300 67 300 67 292 67.5 c 128,-1,85
 284 68 284 68 277 69 c 0,86,87
 212 78 212 78 148.5 94.5 c 128,-1,88
 85 111 85 111 20 124 c 0,89,90
 15 126 15 126 10 127 c 128,-1,91
 5 128 5 128 0 130 c 1,92,-1
 0 136 l 1,93,94
 6 139 6 139 12.5 141.5 c 128,-1,95
 19 144 19 144 25 145 c 0,96,97
 72 155 72 155 117.5 168 c 128,-1,98
 163 181 163 181 209 191 c 0,99,100
 219 194 219 194 229.5 198.5 c 128,-1,101
 240 203 240 203 243 214 c 0,102,103
 245 225 245 225 238.5 233.5 c 128,-1,104
 232 242 232 242 224 249 c 2,105,-1
 144 317 l 1,106,-1
 64 385 l 2,107,108
 48 400 48 400 31.5 413 c 128,-1,109
 15 426 15 426 0 442 c 1,110,-1
 0 452 l 1,111,112
 8 450 8 450 16.5 448.5 c 128,-1,113
 25 447 25 447 32 444 c 0,114,115
 92 419 92 419 151.5 395 c 128,-1,116
 211 371 211 371 271 346 c 0,117,118
 281 342 281 342 298.5 338 c 128,-1,119
 316 334 316 334 319 351 c 0,120,121
 320 366 320 366 314 380 c 128,-1,122
 308 394 308 394 303 408 c 0,123,124
 279 466 279 466 255.5 524.5 c 128,-1,125
 232 583 232 583 209 641 c 0,126,127
 202 658 202 658 194 676 c 128,-1,128
 186 694 186 694 187 713 c 1,129,130
 195 709 195 709 202 703 c 128,-1,131
 209 697 209 697 215 690 c 0,132,133
 239 657 239 657 264 624 c 128,-1,134
 289 591 289 591 313.5 558 c 128,-1,135
 338 525 338 525 363 492 c 2,136,-1
 413 426 l 2,137,138
 418 417 418 417 427.5 412 c 128,-1,139
 437 407 437 407 448 409 c 1,140,141
 452 420 452 420 455 431 c 128,-1,142
 458 442 458 442 459 453 c 0,143,144
 463 494 463 494 467.5 535.5 c 128,-1,145
 472 577 472 577 476.5 618 c 128,-1,146
 481 659 481 659 485 700 c 128,-1,147
 489 741 489 741 494 782 c 2,148,-1
 498 826 l 2,149,150
 500 848 500 848 507 869 c 1,0,-1
EndSplineSet
Validated: 33
EndChar

StartChar: uniE621
Encoding: 58913 58913 39
Width: 1024
GlyphClass: 1
Flags: W
LayerCount: 2
Fore
SplineSet
438 879 m 1,0,-1
 807 879 l 2,1,2
 814 876 814 876 820 871.5 c 128,-1,3
 826 867 826 867 827 860 c 0,4,5
 826 850 826 850 821 842.5 c 128,-1,6
 816 835 816 835 809 828 c 0,7,8
 798 814 798 814 784 801 c 128,-1,9
 770 788 770 788 757 775 c 0,10,11
 749 767 749 767 742.5 758.5 c 128,-1,12
 736 750 736 750 728 743 c 0,13,14
 715 729 715 729 701.5 716 c 128,-1,15
 688 703 688 703 676 689 c 0,16,17
 665 677 665 677 654 666 c 128,-1,18
 643 655 643 655 631 644 c 0,19,20
 625 638 625 638 619.5 630.5 c 128,-1,21
 614 623 614 623 607 617 c 0,22,23
 594 603 594 603 580 590 c 128,-1,24
 566 577 566 577 554 562 c 0,25,26
 541 548 541 548 528 535.5 c 128,-1,27
 515 523 515 523 502 510 c 0,28,29
 494 499 494 499 484 490 c 2,30,-1
 466 471 l 1,31,-1
 450 456 l 2,32,33
 443 448 443 448 439 438 c 0,34,35
 437 431 437 431 444 428 c 128,-1,36
 451 425 451 425 457 426 c 2,37,-1
 575 450 l 2,38,39
 634 462 634 462 694 473 c 0,40,41
 702 475 702 475 711 473 c 128,-1,42
 720 471 720 471 725 463 c 0,43,44
 735 448 735 448 739 430 c 128,-1,45
 743 412 743 412 752 396 c 0,46,47
 757 388 757 388 766.5 384.5 c 128,-1,48
 776 381 776 381 785 381 c 0,49,50
 798 382 798 382 811.5 384 c 128,-1,51
 825 386 825 386 839 384 c 0,52,53
 842 384 842 384 845 381.5 c 128,-1,54
 848 379 848 379 851 377 c 2,55,-1
 851 365 l 1,56,57
 845 356 845 356 837.5 349 c 128,-1,58
 830 342 830 342 823 334 c 2,59,-1
 784 296 l 1,60,-1
 746 257 l 2,61,62
 740 250 740 250 733 245 c 128,-1,63
 726 240 726 240 720 233 c 0,64,65
 695 209 695 209 670.5 184 c 128,-1,66
 646 159 646 159 621 134 c 0,67,68
 610 122 610 122 597 111.5 c 128,-1,69
 584 101 584 101 573 89 c 0,70,71
 551 66 551 66 528.5 44 c 128,-1,72
 506 22 506 22 484 0 c 0,73,74
 478 -6 478 -6 471.5 -11 c 128,-1,75
 465 -16 465 -16 457 -20 c 2,76,-1
 447 -23 l 1,77,78
 450 -6 450 -6 460 7 c 128,-1,79
 470 20 470 20 478 35 c 0,80,81
 519 99 519 99 560 163.5 c 128,-1,82
 601 228 601 228 642 292 c 0,83,84
 645 297 645 297 647 303 c 128,-1,85
 649 309 649 309 648 316 c 0,86,87
 646 325 646 325 637.5 329 c 128,-1,88
 629 333 629 333 621 332 c 0,89,90
 575 325 575 325 529 318 c 2,91,-1
 438 304 l 2,92,93
 393 297 393 297 347.5 289.5 c 128,-1,94
 302 282 302 282 257 275 c 0,95,96
 240 273 240 273 223.5 270 c 128,-1,97
 207 267 207 267 190 270 c 0,98,99
 185 271 185 271 180.5 275 c 128,-1,100
 176 279 176 279 173 284 c 2,101,-1
 173 306 l 1,102,103
 182 326 182 326 192.5 346 c 128,-1,104
 203 366 203 366 214 386 c 0,105,106
 244 440 244 440 274.5 493.5 c 128,-1,107
 305 547 305 547 335 601 c 0,108,109
 340 610 340 610 345.5 619 c 128,-1,110
 351 628 351 628 353 638 c 0,111,112
 356 644 356 644 351 650 c 128,-1,113
 346 656 346 656 340 657 c 0,114,115
 330 660 330 660 319.5 660 c 128,-1,116
 309 660 309 660 303 670 c 0,117,118
 298 685 298 685 305 698 c 128,-1,119
 312 711 312 711 319 723 c 0,120,121
 339 755 339 755 358 787 c 128,-1,122
 377 819 377 819 397 850 c 0,123,124
 404 861 404 861 415 868 c 128,-1,125
 426 875 426 875 438 879 c 1,0,-1
EndSplineSet
Validated: 33
EndChar

StartChar: uniE622
Encoding: 58914 58914 40
Width: 1024
GlyphClass: 1
Flags: W
LayerCount: 2
Fore
SplineSet
344 847 m 0,0,1
 364 855 364 855 376 844.5 c 128,-1,2
 388 834 388 834 392 826 c 0,3,4
 418 790 418 790 432.5 748 c 128,-1,5
 447 706 447 706 466 666 c 0,6,7
 491 613 491 613 521 561 c 128,-1,8
 551 509 551 509 595 469 c 0,9,10
 601 463 601 463 610.5 459 c 128,-1,11
 620 455 620 455 625 461 c 0,12,13
 643 483 643 483 658.5 507 c 128,-1,14
 674 531 674 531 687 556 c 0,15,16
 696 573 696 573 713.5 583 c 128,-1,17
 731 593 731 593 750 593 c 0,18,19
 765 593 765 593 778 584.5 c 128,-1,20
 791 576 791 576 800 564 c 0,21,22
 819 535 819 535 830.5 501.5 c 128,-1,23
 842 468 842 468 855 435 c 0,24,25
 871 401 871 401 890 367.5 c 128,-1,26
 909 334 909 334 936 307 c 0,27,28
 952 292 952 292 969 278 c 128,-1,29
 986 264 986 264 1001 248 c 0,30,31
 1009 241 1009 241 1014 231 c 128,-1,32
 1019 221 1019 221 1023 211 c 1,33,-1
 1023 210 l 1,34,35
 1027 181 1027 181 1015.5 166.5 c 128,-1,36
 1004 152 1004 152 994 146 c 0,37,38
 977 131 977 131 956 122 c 128,-1,39
 935 113 935 113 914 105 c 0,40,41
 842 80 842 80 767 66 c 128,-1,42
 692 52 692 52 616 49 c 0,43,44
 492 44 492 44 437 47 c 128,-1,45
 382 50 382 50 369 52 c 0,46,47
 323 56 323 56 277.5 63.5 c 128,-1,48
 232 71 232 71 186 82 c 0,49,50
 149 92 149 92 112.5 104 c 128,-1,51
 76 116 76 116 43 137 c 0,52,53
 30 144 30 144 12.5 158 c 128,-1,54
 -5 172 -5 172 2 211 c 0,55,56
 9 237 9 237 26 257 c 128,-1,57
 43 277 43 277 61 296 c 0,58,59
 74 314 74 314 90.5 328.5 c 128,-1,60
 107 343 107 343 120 361 c 0,61,62
 151 401 151 401 174.5 446 c 128,-1,63
 198 491 198 491 216 538 c 0,64,65
 232 579 232 579 244 622 c 128,-1,66
 256 665 256 665 270 707 c 0,67,68
 277 734 277 734 288 760 c 128,-1,69
 299 786 299 786 312 811 c 0,70,71
 317 822 317 822 325.5 831.5 c 128,-1,72
 334 841 334 841 344 847 c 0,0,1
EndSplineSet
Validated: 33
EndChar

StartChar: uniE623
Encoding: 58915 58915 41
Width: 1024
GlyphClass: 1
Flags: W
LayerCount: 2
Fore
SplineSet
512 960 m 1,0,1
 513 958 513 958 513.5 956 c 128,-1,2
 514 954 514 954 514 952 c 0,3,4
 515 942 515 942 516 931 c 128,-1,5
 517 920 517 920 518 910 c 0,6,7
 520 881 520 881 521.5 852.5 c 128,-1,8
 523 824 523 824 525 796 c 0,9,10
 528 750 528 750 531.5 703.5 c 128,-1,11
 535 657 535 657 542 611 c 0,12,13
 545 589 545 589 549.5 567.5 c 128,-1,14
 554 546 554 546 561 525 c 1,15,16
 569 524 569 524 578 523.5 c 128,-1,17
 587 523 587 523 596 522 c 1,18,19
 600 535 600 535 602.5 548 c 128,-1,20
 605 561 605 561 607 575 c 0,21,22
 609 587 609 587 611 599.5 c 128,-1,23
 613 612 613 612 614 625 c 0,24,25
 620 673 620 673 624.5 722.5 c 128,-1,26
 629 772 629 772 634 821 c 2,27,-1
 636 841 l 1,28,-1
 638 861 l 1,29,30
 639 859 639 859 639.5 856.5 c 128,-1,31
 640 854 640 854 640 852 c 2,32,-1
 642 838 l 2,33,34
 643 831 643 831 644 825 c 0,35,36
 648 779 648 779 652.5 733 c 128,-1,37
 657 687 657 687 663 641 c 2,38,-1
 669 599 l 2,39,40
 672 578 672 578 676 557 c 0,41,42
 679 544 679 544 682 530.5 c 128,-1,43
 685 517 685 517 690 504 c 1,44,45
 698 501 698 501 706 498.5 c 128,-1,46
 714 496 714 496 722 492 c 1,47,48
 725 498 725 498 727 504 c 128,-1,49
 729 510 729 510 730 515 c 0,50,51
 735 531 735 531 738 546.5 c 128,-1,52
 741 562 741 562 744 578 c 0,53,54
 750 612 750 612 753.5 646 c 128,-1,55
 757 680 757 680 762 714 c 0,56,57
 763 722 763 722 764 729.5 c 128,-1,58
 765 737 765 737 768 745 c 1,59,60
 769 741 769 741 769.5 738 c 128,-1,61
 770 735 770 735 771 731 c 0,62,63
 773 716 773 716 774.5 700.5 c 128,-1,64
 776 685 776 685 778 670 c 0,65,66
 779 653 779 653 780.5 636 c 128,-1,67
 782 619 782 619 784 603 c 1,68,-1
 784 604 l 1,69,-1
 784 599 l 1,70,-1
 784 594 l 1,71,72
 788 554 788 554 791 513.5 c 128,-1,73
 794 473 794 473 797 432 c 1,74,75
 774 424 774 424 752.5 412 c 128,-1,76
 731 400 731 400 711 386 c 0,77,78
 685 366 685 366 661.5 342.5 c 128,-1,79
 638 319 638 319 619 292 c 0,80,81
 599 264 599 264 583 233.5 c 128,-1,82
 567 203 567 203 556 171 c 0,83,84
 542 130 542 130 533.5 87.5 c 128,-1,85
 525 45 525 45 520 3 c 0,86,87
 519 -11 519 -11 518 -24 c 2,88,-1
 516 -50 l 2,89,90
 515 -54 515 -54 514.5 -57.5 c 128,-1,91
 514 -61 514 -61 513 -64 c 2,92,-1
 512 -64 l 2,93,94
 510 -62 510 -62 509.5 -59 c 128,-1,95
 509 -56 509 -56 509 -53 c 0,96,97
 508 -45 508 -45 507 -36 c 128,-1,98
 506 -27 506 -27 506 -18 c 0,99,100
 504 5 504 5 501 28.5 c 128,-1,101
 498 52 498 52 493 76 c 0,102,103
 486 114 486 114 474.5 151 c 128,-1,104
 463 188 463 188 446 223 c 0,105,106
 427 263 427 263 400 299 c 128,-1,107
 373 335 373 335 339 364 c 0,108,109
 314 386 314 386 286 403.5 c 128,-1,110
 258 421 258 421 227 432 c 1,111,112
 231 489 231 489 235.5 545 c 128,-1,113
 240 601 240 601 245 658 c 2,114,-1
 249 694 l 2,115,116
 251 712 251 712 253 731 c 0,117,118
 254 734 254 734 254.5 737.5 c 128,-1,119
 255 741 255 741 256 744 c 2,120,-1
 257 744 l 1,121,122
 259 737 259 737 260 730 c 128,-1,123
 261 723 261 723 262 717 c 0,124,125
 265 690 265 690 268 664 c 128,-1,126
 271 638 271 638 275 611 c 0,127,128
 278 590 278 590 281.5 569 c 128,-1,129
 285 548 285 548 290 528 c 0,130,131
 293 519 293 519 295.5 510 c 128,-1,132
 298 501 298 501 302 492 c 1,133,134
 310 496 310 496 318 498.5 c 128,-1,135
 326 501 326 501 334 504 c 1,136,137
 337 512 337 512 339.5 520.5 c 128,-1,138
 342 529 342 529 343 537 c 0,139,140
 346 550 346 550 348.5 563 c 128,-1,141
 351 576 351 576 353 590 c 0,142,143
 362 644 362 644 367.5 699 c 128,-1,144
 373 754 373 754 379 809 c 2,145,-1
 381 829 l 1,146,-1
 383 849 l 2,147,148
 384 852 384 852 384.5 855 c 128,-1,149
 385 858 385 858 386 861 c 1,150,151
 387 855 387 855 387.5 848 c 128,-1,152
 388 841 388 841 389 834 c 0,153,154
 393 787 393 787 397.5 740 c 128,-1,155
 402 693 402 693 407 647 c 0,156,157
 409 625 409 625 412 602.5 c 128,-1,158
 415 580 415 580 419 558 c 2,159,-1
 423 540 l 2,160,161
 425 531 425 531 428 522 c 1,162,163
 437 523 437 523 446 523.5 c 128,-1,164
 455 524 455 524 463 525 c 1,165,166
 470 545 470 545 474 566.5 c 128,-1,167
 478 588 478 588 482 609 c 0,168,169
 485 633 485 633 488 657.5 c 128,-1,170
 491 682 491 682 493 706 c 0,171,172
 496 747 496 747 498.5 788.5 c 128,-1,173
 501 830 501 830 504 871 c 0,174,175
 505 889 505 889 506 907.5 c 128,-1,176
 507 926 507 926 509 944 c 0,177,178
 510 948 510 948 510.5 952 c 128,-1,179
 511 956 511 956 512 960 c 1,0,1
EndSplineSet
Validated: 5
EndChar

StartChar: uniE624
Encoding: 58916 58916 42
Width: 1024
GlyphClass: 1
Flags: W
LayerCount: 2
Fore
SplineSet
409 898 m 0,0,1
 423 895 423 895 437.5 891 c 128,-1,2
 452 887 452 887 463 878 c 0,3,4
 467 875 467 875 468 870.5 c 128,-1,5
 469 866 469 866 469 862 c 0,6,7
 455 861 455 861 440.5 863.5 c 128,-1,8
 426 866 426 866 412 864 c 0,9,10
 390 861 390 861 368.5 853 c 128,-1,11
 347 845 347 845 332 828 c 0,12,13
 318 812 318 812 316 791 c 128,-1,14
 314 770 314 770 318 750 c 0,15,16
 321 730 321 730 335 715 c 128,-1,17
 349 700 349 700 365 689 c 0,18,19
 390 673 390 673 417.5 661 c 128,-1,20
 445 649 445 649 469 631 c 0,21,22
 494 613 494 613 514 589.5 c 128,-1,23
 534 566 534 566 560 549 c 0,24,25
 569 542 569 542 579 538 c 128,-1,26
 589 534 589 534 600 535 c 0,27,28
 617 533 617 533 632.5 543 c 128,-1,29
 648 553 648 553 654 568 c 0,30,31
 663 597 663 597 651 627.5 c 128,-1,32
 639 658 639 658 612 673 c 0,33,34
 594 683 594 683 574 689 c 128,-1,35
 554 695 554 695 535 703 c 0,36,37
 530 705 530 705 525 708.5 c 128,-1,38
 520 712 520 712 519 718 c 0,39,40
 520 722 520 722 522.5 725 c 128,-1,41
 525 728 525 728 530 729 c 0,42,43
 561 734 561 734 591.5 727 c 128,-1,44
 622 720 622 720 650 708 c 0,45,46
 692 686 692 686 729 656 c 128,-1,47
 766 626 766 626 794 587 c 0,48,49
 821 552 821 552 837 509.5 c 128,-1,50
 853 467 853 467 861 424 c 0,51,52
 862 413 862 413 864 403 c 128,-1,53
 866 393 866 393 867 383 c 2,54,-1
 867 294 l 1,55,56
 863 264 863 264 856 233 c 128,-1,57
 849 202 849 202 836 174 c 0,58,59
 816 130 816 130 784 93 c 128,-1,60
 752 56 752 56 710 32 c 0,61,62
 685 18 685 18 657 7 c 128,-1,63
 629 -4 629 -4 522 -2 c 0,64,65
 510 2 510 2 505.5 6.5 c 128,-1,66
 501 11 501 11 498 19 c 1,67,68
 502 30 502 30 512.5 34.5 c 128,-1,69
 523 39 523 39 533 41 c 0,70,71
 544 44 544 44 556 47 c 128,-1,72
 568 50 568 50 574 61 c 1,73,74
 571 74 571 74 560 81.5 c 128,-1,75
 549 89 549 89 537 94 c 0,76,77
 520 100 520 100 501 100.5 c 128,-1,78
 482 101 482 101 464 98 c 0,79,80
 438 94 438 94 413 83 c 128,-1,81
 388 72 388 72 360 73 c 0,82,83
 327 73 327 73 296 86 c 128,-1,84
 265 99 265 99 238 119 c 0,85,86
 219 132 219 132 204 150.5 c 128,-1,87
 189 169 189 169 177 190 c 0,88,89
 169 204 169 204 158 234.5 c 128,-1,90
 147 265 147 265 156 307 c 1,91,-1
 156 308 l 1,92,93
 162 334 162 334 172.5 359.5 c 128,-1,94
 183 385 183 385 204 403 c 0,95,96
 218 414 218 414 234 421.5 c 128,-1,97
 250 429 250 429 268 430 c 0,98,99
 274 430 274 430 281.5 428.5 c 128,-1,100
 289 427 289 427 292 421 c 0,101,102
 292 418 292 418 291 416.5 c 128,-1,103
 290 415 290 415 287 413 c 0,104,105
 279 408 279 408 269.5 403 c 128,-1,106
 260 398 260 398 254 389 c 0,107,108
 243 375 243 375 241 356.5 c 128,-1,109
 239 338 239 338 242 320 c 0,110,111
 246 298 246 298 260 280.5 c 128,-1,112
 274 263 274 263 293 252 c 0,113,114
 309 243 309 243 325 236.5 c 128,-1,115
 341 230 341 230 358 227 c 0,116,117
 374 224 374 224 389.5 222.5 c 128,-1,118
 405 221 405 221 421 220 c 0,119,120
 436 220 436 220 449.5 221.5 c 128,-1,121
 463 223 463 223 477 222 c 0,122,123
 496 222 496 222 515 220 c 128,-1,124
 534 218 534 218 552 210 c 0,125,126
 575 200 575 200 595.5 183 c 128,-1,127
 616 166 616 166 629 143 c 0,128,129
 634 134 634 134 636 124 c 128,-1,130
 638 114 638 114 643 106 c 1,131,132
 654 108 654 108 659.5 117 c 128,-1,133
 665 126 665 126 668 135 c 0,134,135
 675 156 675 156 670.5 178 c 128,-1,136
 666 200 666 200 657 220 c 0,137,138
 643 249 643 249 617 269.5 c 128,-1,139
 591 290 591 290 560 299 c 0,140,141
 530 309 530 309 499.5 309.5 c 128,-1,142
 469 310 469 310 440 320 c 0,143,144
 426 325 426 325 415.5 334.5 c 128,-1,145
 405 344 405 344 396 355 c 0,146,147
 390 361 390 361 388 369.5 c 128,-1,148
 386 378 386 378 389 387 c 1,149,150
 402 390 402 390 414.5 384 c 128,-1,151
 427 378 427 378 440 380 c 0,152,153
 452 383 452 383 459.5 392 c 128,-1,154
 467 401 467 401 469 412 c 0,155,156
 474 428 474 428 470 445.5 c 128,-1,157
 466 463 466 463 455 477 c 0,158,159
 441 495 441 495 420.5 506.5 c 128,-1,160
 400 518 400 518 379 526 c 0,161,162
 355 535 355 535 329.5 541.5 c 128,-1,163
 304 548 304 548 282 562 c 0,164,165
 258 577 258 577 238.5 599 c 128,-1,166
 219 621 219 621 209 648 c 0,167,168
 200 672 200 672 199 697.5 c 128,-1,169
 198 723 198 723 199 748 c 0,170,171
 201 772 201 772 211 794 c 128,-1,172
 221 816 221 816 235 835 c 0,173,174
 244 848 244 848 256.5 857 c 128,-1,175
 269 866 269 866 282 875 c 0,176,177
 297 884 297 884 331 894 c 128,-1,178
 365 904 365 904 409 898 c 0,0,1
EndSplineSet
Validated: 33
EndChar

StartChar: uniE625
Encoding: 58917 58917 43
Width: 1024
GlyphClass: 1
Flags: W
LayerCount: 2
Fore
SplineSet
1024 757 m 1,0,1
 799 787 799 787 611.5 791.5 c 128,-1,2
 424 796 424 796 288 788.5 c 128,-1,3
 152 781 152 781 76 769.5 c 128,-1,4
 0 758 0 758 0 757 c 2,5,-1
 12 718 l 2,6,7
 23 679 23 679 35 614.5 c 128,-1,8
 47 550 47 550 54 468 c 128,-1,9
 61 386 61 386 52 301 c 1,10,11
 118 256 118 256 198.5 219.5 c 128,-1,12
 279 183 279 183 348.5 157 c 128,-1,13
 418 131 418 131 465 117 c 2,14,-1
 512 103 l 1,15,-1
 511 103 l 1,16,-1
 558 117 l 2,17,18
 605 131 605 131 675 157 c 128,-1,19
 745 183 745 183 825 219.5 c 128,-1,20
 905 256 905 256 971 301 c 1,21,-1
 969 301 l 1,22,23
 960 386 960 386 967 468 c 128,-1,24
 974 550 974 550 986 614.5 c 128,-1,25
 998 679 998 679 1010 718 c 2,26,-1
 1021 757 l 1,27,-1
 1024 757 l 1,0,1
EndSplineSet
Validated: 37
EndChar

StartChar: uniE626
Encoding: 58918 58918 44
Width: 1024
GlyphClass: 1
Flags: W
LayerCount: 2
Fore
SplineSet
0 205 m 1,0,-1
 10 246 l 2,1,2
 21 286 21 286 28 354 c 128,-1,3
 35 422 35 422 31.5 511 c 128,-1,4
 28 600 28 600 0 696 c 1,5,-1
 52 704 l 2,6,7
 104 712 104 712 181.5 721 c 128,-1,8
 259 730 259 730 348.5 738 c 128,-1,9
 438 746 438 746 512 746 c 0,10,11
 593 746 593 746 683 737.5 c 128,-1,12
 773 729 773 729 849 719 c 128,-1,13
 925 709 925 709 974 700 c 2,14,-1
 1024 692 l 1,15,16
 997 601 997 601 993 513.5 c 128,-1,17
 989 426 989 426 995 357.5 c 128,-1,18
 1001 289 1001 289 1011 247 c 2,19,-1
 1021 205 l 1,20,-1
 968 196 l 2,21,22
 916 188 916 188 839 177.5 c 128,-1,23
 762 167 762 167 673.5 158.5 c 128,-1,24
 585 150 585 150 512 150 c 128,-1,25
 439 150 439 150 350 158.5 c 128,-1,26
 261 167 261 167 183.5 177.5 c 128,-1,27
 106 188 106 188 53 196 c 2,28,-1
 0 205 l 1,0,-1
EndSplineSet
Validated: 33
EndChar

StartChar: uniE627
Encoding: 58919 58919 45
Width: 1024
GlyphClass: 1
Flags: W
LayerCount: 2
Fore
SplineSet
1024 139 m 1,0,1
 799 109 799 109 611.5 104.5 c 128,-1,2
 424 100 424 100 288 107.5 c 128,-1,3
 152 115 152 115 76 126.5 c 128,-1,4
 0 138 0 138 0 139 c 2,5,-1
 12 178 l 2,6,7
 25 217 25 217 37 281.5 c 128,-1,8
 49 346 49 346 56 428 c 128,-1,9
 63 510 63 510 52 595 c 0,10,11
 52 596 52 596 123.5 631 c 128,-1,12
 195 666 195 666 280.5 707 c 128,-1,13
 366 748 366 748 437 782 c 2,14,-1
 508 816 l 1,15,-1
 510 816 l 1,16,-1
 582 782 l 2,17,18
 654 747 654 747 740.5 705.5 c 128,-1,19
 827 664 827 664 899 630 c 2,20,-1
 971 595 l 1,21,-1
 969 595 l 1,22,23
 960 510 960 510 967 428 c 128,-1,24
 974 346 974 346 986 281.5 c 128,-1,25
 998 217 998 217 1010 178 c 2,26,-1
 1021 139 l 1,27,-1
 1024 139 l 1,0,1
EndSplineSet
Validated: 33
EndChar

StartChar: uniE628
Encoding: 58920 58920 46
Width: 1024
GlyphClass: 1
Flags: W
LayerCount: 2
Fore
SplineSet
714 755 m 1,0,-1
 1023 642 l 1,1,-1
 994 593 l 2,2,3
 966 545 966 545 955 473 c 0,4,5
 943 401 943 401 949 351 c 2,6,-1
 955 302 l 1,7,-1
 512 148 l 1,8,-1
 72 302 l 1,9,-1
 77 350 l 2,10,11
 83 398 83 398 75 463 c 0,12,13
 67 527 67 527 34 584 c 2,14,-1
 1 642 l 1,15,-1
 309 752 l 1,16,-1
 311 752 l 1,17,18
 327 710 327 710 369 688.5 c 128,-1,19
 411 667 411 667 450 659 c 0,20,21
 471 655 471 655 482 654.5 c 128,-1,22
 493 654 493 654 512 653 c 0,23,24
 561 654 561 654 628.5 676 c 128,-1,25
 696 698 696 698 714 755 c 1,0,-1
EndSplineSet
Validated: 33
EndChar

StartChar: uniE629
Encoding: 58921 58921 47
Width: 668
GlyphClass: 1
Flags: W
LayerCount: 2
Fore
SplineSet
287 960 m 1,0,1
 295 960 295 960 303 959.5 c 128,-1,2
 311 959 311 959 319 958 c 2,3,-1
 433 940 l 2,4,5
 486 930 486 930 528.5 899 c 128,-1,6
 571 868 571 868 601 819 c 128,-1,7
 631 770 631 770 647.5 706.5 c 128,-1,8
 664 643 664 643 664 568 c 2,9,-1
 664 -48 l 2,10,11
 664 -54 664 -54 659.5 -59 c 128,-1,12
 655 -64 655 -64 648 -64 c 2,13,-1
 122 -64 l 2,14,15
 118 -64 118 -64 114.5 -62.5 c 128,-1,16
 111 -61 111 -61 109 -58 c 2,17,-1
 7 76 l 2,18,19
 6 78 6 78 5 80.5 c 128,-1,20
 4 83 4 83 4 86 c 2,21,-1
 4 578 l 2,22,23
 4 664 4 664 24.5 734.5 c 128,-1,24
 45 805 45 805 82 855 c 128,-1,25
 119 905 119 905 171 932.5 c 128,-1,26
 223 960 223 960 287 960 c 1,27,-1
 287 960 l 1,0,1
385 919 m 1,28,29
 330 919 330 919 284.5 894 c 128,-1,30
 239 869 239 869 206.5 823.5 c 128,-1,31
 174 778 174 778 156 714.5 c 128,-1,32
 138 651 138 651 138 574 c 2,33,-1
 138 -32 l 1,34,-1
 632 -32 l 1,35,-1
 632 574 l 2,36,37
 632 651 632 651 614 714.5 c 128,-1,38
 596 778 596 778 563.5 823.5 c 128,-1,39
 531 869 531 869 485.5 894 c 128,-1,40
 440 919 440 919 385 919 c 1,41,-1
 385 919 l 1,28,29
479 231 m 2,42,43
 486 231 486 231 490.5 226.5 c 128,-1,44
 495 222 495 222 495 215 c 128,-1,45
 495 208 495 208 490.5 203.5 c 128,-1,46
 486 199 486 199 479 199 c 2,47,-1
 298 199 l 2,48,49
 291 199 291 199 286.5 203.5 c 128,-1,50
 282 208 282 208 282 215 c 128,-1,51
 282 222 282 222 286.5 226.5 c 128,-1,52
 291 231 291 231 298 231 c 2,53,-1
 479 231 l 2,42,43
530 374 m 2,54,55
 537 374 537 374 541.5 369.5 c 128,-1,56
 546 365 546 365 546 358 c 128,-1,57
 546 351 546 351 541.5 346.5 c 128,-1,58
 537 342 537 342 530 342 c 2,59,-1
 247 342 l 2,60,61
 240 342 240 342 235.5 346.5 c 128,-1,62
 231 351 231 351 231 358 c 128,-1,63
 231 365 231 365 235.5 369.5 c 128,-1,64
 240 374 240 374 247 374 c 2,65,-1
 530 374 l 2,54,55
471 553 m 2,66,67
 477 553 477 553 482 548 c 128,-1,68
 487 543 487 543 487 536 c 0,69,70
 487 530 487 530 482 525 c 128,-1,71
 477 520 477 520 471 520 c 2,72,-1
 307 520 l 2,73,74
 300 520 300 520 295 525 c 128,-1,75
 290 530 290 530 290 536 c 0,76,77
 290 543 290 543 295 548 c 128,-1,78
 300 553 300 553 307 553 c 2,79,-1
 471 553 l 2,66,67
530 676 m 2,80,81
 537 676 537 676 541.5 671.5 c 128,-1,82
 546 667 546 667 546 660 c 128,-1,83
 546 653 546 653 541.5 648.5 c 128,-1,84
 537 644 537 644 530 644 c 2,85,-1
 247 644 l 2,86,87
 240 644 240 644 235.5 648.5 c 128,-1,88
 231 653 231 653 231 660 c 128,-1,89
 231 667 231 667 235.5 671.5 c 128,-1,90
 240 676 240 676 247 676 c 2,91,-1
 530 676 l 2,80,81
EndSplineSet
Validated: 5
EndChar

StartChar: uniE62A
Encoding: 58922 58922 48
Width: 1024
GlyphClass: 1
Flags: W
LayerCount: 2
Fore
SplineSet
305 886 m 1,0,-1
 305 185 l 2,1,2
 305 122 305 122 331 91 c 128,-1,3
 357 60 357 60 409 60 c 2,4,-1
 427 60 l 1,5,-1
 427 12 l 1,6,-1
 53 12 l 1,7,-1
 53 60 l 1,8,-1
 78 60 l 2,9,10
 130 60 130 60 156.5 91 c 128,-1,11
 183 122 183 122 183 185 c 2,12,-1
 183 645 l 2,13,14
 183 708 183 708 160.5 740 c 128,-1,15
 138 772 138 772 93 772 c 2,16,-1
 56 772 l 1,17,-1
 56 819 l 1,18,-1
 71 819 l 2,19,20
 125 819 125 819 174.5 836 c 128,-1,21
 224 853 224 853 268 886 c 1,22,-1
 305 886 l 1,0,-1
542 505 m 1,23,24
 591 551 591 551 640 573.5 c 128,-1,25
 689 596 689 596 738 596 c 0,26,27
 792 596 792 596 835 575 c 128,-1,28
 878 554 878 554 911 511 c 0,29,30
 941 472 941 472 956 424.5 c 128,-1,31
 971 377 971 377 971 322 c 0,32,33
 971 262 971 262 953.5 209 c 128,-1,34
 936 156 936 156 900 110 c 0,35,36
 861 60 861 60 812.5 35 c 128,-1,37
 764 10 764 10 706 10 c 0,38,39
 636 10 636 10 580 40 c 128,-1,40
 524 70 524 70 482 130 c 0,41,42
 444 184 444 184 425.5 247 c 128,-1,43
 407 310 407 310 407 383 c 0,44,45
 407 460 407 460 428 531.5 c 128,-1,46
 449 603 449 603 492 668 c 128,-1,47
 535 733 535 733 592 779 c 128,-1,48
 649 825 649 825 720 853 c 0,49,50
 761 868 761 868 804 876 c 128,-1,51
 847 884 847 884 891 884 c 1,52,-1
 891 838 l 1,53,54
 844 835 844 835 802 824.5 c 128,-1,55
 760 814 760 814 724 794.5 c 128,-1,56
 688 775 688 775 658.5 747.5 c 128,-1,57
 629 720 629 720 605 685 c 0,58,59
 581 648 581 648 565.5 603 c 128,-1,60
 550 558 550 558 542 505 c 1,23,24
533 416 m 1,61,62
 533 403 533 403 532.5 390 c 128,-1,63
 532 377 532 377 532 363 c 0,64,65
 532 313 532 313 541 265.5 c 128,-1,66
 550 218 550 218 567 175 c 0,67,68
 590 118 590 118 623.5 89.5 c 128,-1,69
 657 61 657 61 701 61 c 0,70,71
 740 61 740 61 768.5 80.5 c 128,-1,72
 797 100 797 100 816 139 c 0,73,74
 831 170 831 170 838.5 206 c 128,-1,75
 846 242 846 242 846 285 c 0,76,77
 846 331 846 331 839 370 c 128,-1,78
 832 409 832 409 818 441 c 0,79,80
 799 486 799 486 769.5 508 c 128,-1,81
 740 530 740 530 700 530 c 0,82,83
 651 530 651 530 609.5 501.5 c 128,-1,84
 568 473 568 473 533 416 c 1,61,62
EndSplineSet
Validated: 1
EndChar

StartChar: uniE62B
Encoding: 58923 58923 49
Width: 1024
GlyphClass: 1
Flags: W
LayerCount: 2
Fore
SplineSet
308 885 m 1,0,-1
 308 184 l 2,1,2
 308 121 308 121 334 89.5 c 128,-1,3
 360 58 360 58 412 58 c 2,4,-1
 429 58 l 1,5,-1
 429 11 l 1,6,-1
 56 11 l 1,7,-1
 56 58 l 1,8,-1
 80 58 l 2,9,10
 133 58 133 58 159.5 89.5 c 128,-1,11
 186 121 186 121 186 184 c 2,12,-1
 186 644 l 2,13,14
 186 707 186 707 163.5 739 c 128,-1,15
 141 771 141 771 96 771 c 2,16,-1
 59 771 l 1,17,-1
 59 818 l 1,18,-1
 73 818 l 2,19,20
 128 818 128 818 177.5 835 c 128,-1,21
 227 852 227 852 271 885 c 1,22,-1
 308 885 l 1,0,-1
720 11 m 1,23,-1
 593 11 l 1,24,-1
 593 24 l 2,25,26
 593 85 593 85 612 161 c 128,-1,27
 631 237 631 237 669 328 c 0,28,29
 698 397 698 397 725.5 458 c 128,-1,30
 753 519 753 519 779.5 571.5 c 128,-1,31
 806 624 806 624 831.5 669 c 128,-1,32
 857 714 857 714 881 750 c 2,33,-1
 890 764 l 1,34,-1
 593 764 l 2,35,36
 560 764 560 764 535.5 757 c 128,-1,37
 511 750 511 750 495 737 c 0,38,39
 478 723 478 723 465.5 700.5 c 128,-1,40
 453 678 453 678 444 647 c 1,41,-1
 395 647 l 1,42,-1
 449 885 l 1,43,-1
 480 885 l 1,44,45
 495 878 495 878 519.5 874 c 128,-1,46
 544 870 544 870 579 870 c 2,47,-1
 968 870 l 1,48,-1
 968 803 l 1,49,50
 958 788 958 788 944.5 764 c 128,-1,51
 931 740 931 740 914 707 c 0,52,53
 883 646 883 646 854 574.5 c 128,-1,54
 825 503 825 503 799 421 c 0,55,56
 780 361 780 361 765 305 c 128,-1,57
 750 249 750 249 740 198 c 128,-1,58
 730 147 730 147 725 100 c 128,-1,59
 720 53 720 53 720 11 c 1,23,-1
EndSplineSet
Validated: 1
EndChar

StartChar: uniE62C
Encoding: 58924 58924 50
Width: 1024
GlyphClass: 1
Flags: W
LayerCount: 2
Fore
SplineSet
303 885 m 1,0,-1
 303 184 l 2,1,2
 303 121 303 121 329 89.5 c 128,-1,3
 355 58 355 58 407 58 c 2,4,-1
 425 58 l 1,5,-1
 425 11 l 1,6,-1
 51 11 l 1,7,-1
 51 58 l 1,8,-1
 76 58 l 2,9,10
 128 58 128 58 154.5 89.5 c 128,-1,11
 181 121 181 121 181 184 c 2,12,-1
 181 644 l 2,13,14
 181 707 181 707 158.5 739 c 128,-1,15
 136 771 136 771 91 771 c 2,16,-1
 54 771 l 1,17,-1
 54 818 l 1,18,-1
 68 818 l 2,19,20
 123 818 123 818 172.5 835 c 128,-1,21
 222 852 222 852 266 885 c 1,22,-1
 303 885 l 1,0,-1
584 454 m 1,23,-1
 565 467 l 2,24,25
 522 496 522 496 494 519 c 128,-1,26
 466 542 466 542 452 560 c 0,27,28
 435 582 435 582 426.5 607.5 c 128,-1,29
 418 633 418 633 418 663 c 0,30,31
 418 713 418 713 439 754 c 128,-1,32
 460 795 460 795 503 826 c 0,33,34
 543 856 543 856 589 870.5 c 128,-1,35
 635 885 635 885 688 885 c 0,36,37
 737 885 737 885 781 872 c 128,-1,38
 825 859 825 859 864 834 c 0,39,40
 907 805 907 805 929 767 c 128,-1,41
 951 729 951 729 951 682 c 0,42,43
 951 625 951 625 910 578.5 c 128,-1,44
 869 532 869 532 787 497 c 1,45,46
 880 452 880 452 926.5 391 c 128,-1,47
 973 330 973 330 973 251 c 0,48,49
 973 194 973 194 951 149 c 128,-1,50
 929 104 929 104 884 71 c 0,51,52
 845 41 845 41 795 26 c 128,-1,53
 745 11 745 11 685 11 c 0,54,55
 628 11 628 11 580 25 c 128,-1,56
 532 39 532 39 491 67 c 0,57,58
 445 98 445 98 421.5 140 c 128,-1,59
 398 182 398 182 398 235 c 0,60,61
 398 287 398 287 423 330 c 128,-1,62
 448 373 448 373 497 407 c 0,63,64
 511 416 511 416 532.5 427.5 c 128,-1,65
 554 439 554 439 584 454 c 1,23,-1
635 433 m 1,66,67
 568 403 568 403 534 355.5 c 128,-1,68
 500 308 500 308 500 243 c 0,69,70
 500 201 500 201 514 167.5 c 128,-1,71
 528 134 528 134 555 109 c 0,72,73
 582 83 582 83 617.5 70.5 c 128,-1,74
 653 58 653 58 695 58 c 0,75,76
 734 58 734 58 766.5 68 c 128,-1,77
 799 78 799 78 825 98 c 0,78,79
 852 119 852 119 865.5 147 c 128,-1,80
 879 175 879 175 879 211 c 0,81,82
 879 265 879 265 842 309 c 128,-1,83
 805 353 805 353 732 387 c 2,84,-1
 635 433 l 1,66,67
736 520 m 1,85,86
 795 546 795 546 824.5 584.5 c 128,-1,87
 854 623 854 623 854 675 c 0,88,89
 854 710 854 710 841.5 738.5 c 128,-1,90
 829 767 829 767 804 788 c 128,-1,91
 779 809 779 809 748 820 c 128,-1,92
 717 831 717 831 680 831 c 0,93,94
 649 831 649 831 622.5 822.5 c 128,-1,95
 596 814 596 814 574 798 c 0,96,97
 549 781 549 781 536.5 757 c 128,-1,98
 524 733 524 733 524 704 c 0,99,100
 524 668 524 668 541.5 639 c 128,-1,101
 559 610 559 610 593 588 c 0,102,103
 600 583 600 583 630 569 c 128,-1,104
 660 555 660 555 713 530 c 2,105,-1
 736 520 l 1,85,86
EndSplineSet
Validated: 1
EndChar

StartChar: uniE62D
Encoding: 58925 58925 51
Width: 1024
GlyphClass: 1
Flags: W
LayerCount: 2
Fore
SplineSet
308 885 m 1,0,-1
 308 184 l 2,1,2
 308 121 308 121 334 89.5 c 128,-1,3
 360 58 360 58 412 58 c 2,4,-1
 429 58 l 1,5,-1
 429 11 l 1,6,-1
 56 11 l 1,7,-1
 56 58 l 1,8,-1
 80 58 l 2,9,10
 133 58 133 58 159.5 89.5 c 128,-1,11
 186 121 186 121 186 184 c 2,12,-1
 186 644 l 2,13,14
 186 707 186 707 163.5 739 c 128,-1,15
 141 771 141 771 96 771 c 2,16,-1
 59 771 l 1,17,-1
 59 818 l 1,18,-1
 73 818 l 2,19,20
 128 818 128 818 177.5 835 c 128,-1,21
 227 852 227 852 271 885 c 1,22,-1
 308 885 l 1,0,-1
833 388 m 1,23,24
 784 342 784 342 735.5 319 c 128,-1,25
 687 296 687 296 637 296 c 0,26,27
 584 296 584 296 541 317.5 c 128,-1,28
 498 339 498 339 465 382 c 0,29,30
 435 421 435 421 420 468 c 128,-1,31
 405 515 405 515 405 570 c 0,32,33
 405 630 405 630 422.5 683 c 128,-1,34
 440 736 440 736 475 783 c 0,35,36
 514 834 514 834 562 859.5 c 128,-1,37
 610 885 610 885 668 885 c 0,38,39
 739 885 739 885 795 854.5 c 128,-1,40
 851 824 851 824 893 763 c 0,41,42
 931 709 931 709 949.5 645.5 c 128,-1,43
 968 582 968 582 968 508 c 0,44,45
 968 456 968 456 959.5 408 c 128,-1,46
 951 360 951 360 934 316 c 128,-1,47
 917 272 917 272 891 232 c 128,-1,48
 865 192 865 192 830 156 c 0,49,50
 796 120 796 120 757 93 c 128,-1,51
 718 66 718 66 674.5 48 c 128,-1,52
 631 30 631 30 583.5 20.5 c 128,-1,53
 536 11 536 11 484 11 c 1,54,-1
 484 57 l 1,55,56
 516 58 516 58 541.5 61.5 c 128,-1,57
 567 65 567 65 586 71 c 0,58,59
 639 87 639 87 681 115 c 128,-1,60
 723 143 723 143 753.5 182.5 c 128,-1,61
 784 222 784 222 804 273.5 c 128,-1,62
 824 325 824 325 833 388 c 1,23,24
842 476 m 1,63,64
 843 490 843 490 843 503 c 2,65,-1
 843 529 l 2,66,67
 843 580 843 580 834.5 627.5 c 128,-1,68
 826 675 826 675 808 717 c 0,69,70
 784 774 784 774 750.5 802.5 c 128,-1,71
 717 831 717 831 673 831 c 0,72,73
 634 831 634 831 606 811.5 c 128,-1,74
 578 792 578 792 559 753 c 0,75,76
 545 722 545 722 537.5 686 c 128,-1,77
 530 650 530 650 530 607 c 0,78,79
 530 561 530 561 537 522 c 128,-1,80
 544 483 544 483 558 451 c 0,81,82
 577 407 577 407 606.5 385 c 128,-1,83
 636 363 636 363 676 363 c 0,84,85
 724 363 724 363 765.5 391 c 128,-1,86
 807 419 807 419 842 476 c 1,63,64
EndSplineSet
Validated: 1
EndChar

StartChar: uniE62E
Encoding: 58926 58926 52
Width: 1024
GlyphClass: 1
Flags: W
LayerCount: 2
Fore
SplineSet
544 237 m 1,0,-1
 486 28 l 1,1,-1
 0 28 l 1,2,-1
 0 73 l 1,3,4
 18 93 18 93 56.5 135.5 c 128,-1,5
 95 178 95 178 155 241 c 0,6,7
 191 279 191 279 227 319.5 c 128,-1,8
 263 360 263 360 298 403 c 0,9,10
 316 423 316 423 329.5 441.5 c 128,-1,11
 343 460 343 460 353 475 c 0,12,13
 374 507 374 507 384.5 540 c 128,-1,14
 395 573 395 573 395 607 c 0,15,16
 395 640 395 640 385 669.5 c 128,-1,17
 375 699 375 699 356 724 c 128,-1,18
 337 749 337 749 312 761.5 c 128,-1,19
 287 774 287 774 256 774 c 0,20,21
 190 774 190 774 138 727 c 128,-1,22
 86 680 86 680 49 586 c 1,23,-1
 5 603 l 1,24,25
 28 669 28 669 56.5 719 c 128,-1,26
 85 769 85 769 119.5 802 c 128,-1,27
 154 835 154 835 195.5 851.5 c 128,-1,28
 237 868 237 868 284 868 c 128,-1,29
 331 868 331 868 371 851 c 128,-1,30
 411 834 411 834 444 800 c 128,-1,31
 477 766 477 766 493.5 724.5 c 128,-1,32
 510 683 510 683 510 633 c 0,33,34
 510 570 510 570 476 508 c 128,-1,35
 442 446 442 446 373 385 c 2,36,-1
 278 302 l 2,37,38
 232 261 232 261 194.5 223.5 c 128,-1,39
 157 186 157 186 127 150 c 0,40,41
 125 148 125 148 120.5 143 c 128,-1,42
 116 138 116 138 110 130 c 1,43,-1
 363 130 l 2,44,45
 393 130 393 130 415 136 c 128,-1,46
 437 142 437 142 452 155 c 0,47,48
 465 166 465 166 477.5 186.5 c 128,-1,49
 490 207 490 207 502 237 c 1,50,-1
 544 237 l 1,0,-1
523 423 m 0,51,52
 523 500 523 500 537.5 571 c 128,-1,53
 552 642 552 642 580 707 c 0,54,55
 616 787 616 787 664.5 827.5 c 128,-1,56
 713 868 713 868 775 868 c 128,-1,57
 837 868 837 868 884.5 833.5 c 128,-1,58
 932 799 932 799 967 731 c 0,59,60
 995 674 995 674 1009.5 608.5 c 128,-1,61
 1024 543 1024 543 1024 468 c 0,62,63
 1024 390 1024 390 1009.5 319.5 c 128,-1,64
 995 249 995 249 967 186 c 0,65,66
 932 107 932 107 883 67.5 c 128,-1,67
 834 28 834 28 772 28 c 0,68,69
 712 28 712 28 665 62 c 128,-1,70
 618 96 618 96 583 164 c 0,71,72
 553 222 553 222 538 286.5 c 128,-1,73
 523 351 523 351 523 423 c 0,51,52
628 469 m 2,74,75
 628 418 628 418 631.5 373 c 128,-1,76
 635 328 635 328 641.5 288.5 c 128,-1,77
 648 249 648 249 658 215 c 128,-1,78
 668 181 668 181 682 152 c 0,79,80
 700 113 700 113 724 93 c 128,-1,81
 748 73 748 73 778 73 c 0,82,83
 813 73 813 73 839.5 94 c 128,-1,84
 866 115 866 115 883.5 156 c 128,-1,85
 901 197 901 197 910 259 c 128,-1,86
 919 321 919 321 919 404 c 0,87,88
 919 477 919 477 913.5 538.5 c 128,-1,89
 908 600 908 600 897 650 c 0,90,91
 877 733 877 733 844.5 774.5 c 128,-1,92
 812 816 812 816 765 816 c 0,93,94
 731 816 731 816 705 796 c 128,-1,95
 679 776 679 776 662 736 c 128,-1,96
 645 696 645 696 636.5 636 c 128,-1,97
 628 576 628 576 628 496 c 2,98,-1
 628 469 l 2,74,75
EndSplineSet
Validated: 1
EndChar

StartChar: uniE700
Encoding: 59136 59136 53
Width: 1034
GlyphClass: 2
Flags: W
LayerCount: 2
Fore
SplineSet
581 905 m 0,0,1
 604 912 604 912 641 912 c 0,2,3
 678 913 678 913 698 902 c 0,4,5
 718 893 718 893 730 876.5 c 128,-1,6
 742 860 742 860 742 822 c 0,7,8
 742 796 742 796 739.5 788 c 128,-1,9
 737 780 737 780 724 769 c 0,10,11
 707 754 707 754 656 741 c 0,12,13
 606 729 606 729 570 710 c 0,14,15
 533 689 533 689 516 662 c 0,16,17
 496 633 496 633 493 618 c 0,18,19
 490 602 490 602 480 596 c 128,-1,20
 470 590 470 590 455 590 c 128,-1,21
 440 590 440 590 431 607 c 0,22,23
 423 623 423 623 417 664 c 0,24,25
 411 703 411 703 417 731 c 0,26,27
 422 758 422 758 434 784 c 0,28,29
 445 810 445 810 476 840 c 0,30,31
 505 870 505 870 533 884 c 0,32,33
 559 898 559 898 581 905 c 0,0,1
182 794 m 0,34,35
 197 809 197 809 206 812 c 128,-1,36
 215 815 215 815 242 815 c 128,-1,37
 269 815 269 815 277.5 812 c 128,-1,38
 286 809 286 809 300 795 c 2,39,-1
 319 776 l 1,40,-1
 318 693 l 1,41,-1
 316 611 l 1,42,-1
 335 572 l 2,43,44
 355 533 355 533 380 516 c 0,45,46
 396 504 396 504 400.5 497.5 c 128,-1,47
 405 491 405 491 405 478 c 0,48,49
 405 466 405 466 402 461 c 128,-1,50
 399 456 399 456 390 452 c 0,51,52
 372 445 372 445 334 449 c 0,53,54
 294 452 294 452 263.5 467 c 128,-1,55
 233 482 233 482 203 515 c 0,56,57
 173 547 173 547 158 588 c 0,58,59
 144 629 144 629 144 680 c 0,60,61
 145 734 145 734 151 753 c 0,62,63
 159 774 159 774 182 794 c 0,34,35
348 744 m 0,64,65
 355 752 355 752 373 750 c 2,66,-1
 391 749 l 1,67,-1
 392 702 l 2,68,69
 393 656 393 656 408 618 c 0,70,71
 423 581 423 581 423 564 c 128,-1,72
 423 547 423 547 416 540 c 128,-1,73
 409 533 409 533 396 533 c 0,74,75
 384 533 384 533 366 553 c 0,76,77
 349 573 349 573 342 603 c 0,78,79
 335 634 335 634 338 684 c 0,80,81
 341 735 341 735 348 744 c 0,64,65
637 717 m 128,-1,83
 680 728 680 728 691 728 c 0,84,85
 702 729 702 729 715 715 c 128,-1,86
 728 701 728 701 726 688 c 0,87,88
 726 680 726 680 718.5 676 c 128,-1,89
 711 672 711 672 687 666 c 0,90,91
 649 656 649 656 624 641 c 0,92,93
 599 627 599 627 584 611 c 0,94,95
 569 596 569 596 553.5 596 c 128,-1,96
 538 596 538 596 526 602 c 0,97,98
 515 608 515 608 515 622 c 0,99,100
 515 637 515 637 535 660 c 0,101,102
 556 683 556 683 575 694 c 0,103,82
 594 706 594 706 637 717 c 128,-1,83
657 637 m 0,104,105
 685 648 685 648 739 646 c 0,106,107
 774 645 774 645 789.5 642 c 128,-1,108
 805 639 805 639 825 628 c 0,109,110
 857 613 857 613 893 578 c 0,111,112
 929 542 929 542 943 508 c 0,113,114
 953 488 953 488 955.5 474.5 c 128,-1,115
 958 461 958 461 956 439 c 0,116,117
 955 416 955 416 950.5 407 c 128,-1,118
 946 398 946 398 930 383 c 0,119,120
 914 367 914 367 905 363.5 c 128,-1,121
 896 360 896 360 872 360 c 0,122,123
 838 360 838 360 824 371 c 0,124,125
 810 383 810 383 791 417 c 0,126,127
 774 452 774 452 751 480 c 0,128,129
 728 509 728 509 700 524 c 0,130,131
 672 540 672 540 641 543 c 0,132,133
 609 546 609 546 600 555 c 0,134,135
 589 563 589 563 589 580 c 0,136,137
 589 595 589 595 609 611 c 0,138,139
 627 625 627 625 657 637 c 0,104,105
466 569 m 0,140,141
 482 579 482 579 519 578 c 0,142,143
 555 576 555 576 570 562 c 0,144,145
 585 547 585 547 593 532 c 128,-1,146
 601 517 601 517 601 491.5 c 128,-1,147
 601 466 601 466 591 447 c 0,148,149
 582 428 582 428 561 416 c 0,150,151
 541 404 541 404 511 404 c 128,-1,152
 481 404 481 404 465 416 c 0,153,154
 450 426 450 426 438 443 c 0,155,156
 426 458 426 458 426 492 c 0,157,158
 426 525 426 525 437 541 c 128,-1,159
 448 557 448 557 466 569 c 0,140,141
628 517 m 0,160,161
 631 521 631 521 648 521 c 128,-1,162
 665 521 665 521 683 513 c 0,163,164
 701 507 701 507 728 478 c 0,165,166
 754 449 754 449 773 417 c 0,167,168
 791 383 791 383 790 365 c 0,169,170
 788 353 788 353 785 349.5 c 128,-1,171
 782 346 782 346 770 344 c 0,172,173
 757 343 757 343 752 347 c 128,-1,174
 747 351 747 351 737 370 c 0,175,176
 723 398 723 398 703 417 c 0,177,178
 688 434 688 434 654 456 c 0,179,180
 635 469 635 469 629.5 475.5 c 128,-1,181
 624 482 624 482 624 495 c 0,182,183
 624 514 624 514 628 517 c 0,160,161
218 450 m 128,-1,185
 221 458 221 458 232 458 c 0,186,187
 242 458 242 458 268 446 c 0,188,189
 294 433 294 433 359 431 c 0,190,191
 426 428 426 428 433 419 c 0,192,193
 440 409 440 409 440 397 c 0,194,195
 440 388 440 388 434.5 383 c 128,-1,196
 429 378 429 378 413 371 c 0,197,198
 387 359 387 359 347 362 c 0,199,200
 308 364 308 364 263 387 c 0,201,202
 235 401 235 401 226.5 408 c 128,-1,203
 218 415 218 415 217 425 c 0,204,184
 215 442 215 442 218 450 c 128,-1,185
607 438 m 128,-1,206
 614 447 614 447 625 447 c 128,-1,207
 636 447 636 447 652 438 c 0,208,209
 669 430 669 430 693 402 c 0,210,211
 715 378 715 378 726 355 c 0,212,213
 734 334 734 334 740 300 c 0,214,215
 746 265 746 265 739 228 c 0,216,217
 733 192 733 192 719 160 c 0,218,219
 705 131 705 131 675 98 c 0,220,221
 645 67 645 67 629 58 c 0,222,223
 613 50 613 50 581 50 c 0,224,225
 550 50 550 50 531 58 c 0,226,227
 513 69 513 69 503 86 c 0,228,229
 492 105 492 105 492 131 c 0,230,231
 492 151 492 151 497.5 161.5 c 128,-1,232
 503 172 503 172 531 202 c 0,233,234
 571 246 571 246 589 281 c 0,235,236
 609 318 609 318 609 346 c 0,237,238
 609 372 609 372 604 402 c 0,239,205
 600 429 600 429 607 438 c 128,-1,206
143 393 m 0,240,241
 161 401 161 401 183 398 c 128,-1,242
 205 395 205 395 244 375 c 0,243,244
 285 354 285 354 318 345 c 0,245,246
 352 336 352 336 379 340 c 0,247,248
 403 343 403 343 435 364 c 0,249,250
 465 384 465 384 482 382 c 0,251,252
 495 381 495 381 497.5 377 c 128,-1,253
 500 373 500 373 499 352 c 0,254,255
 498 325 498 325 486 300 c 0,256,257
 475 274 475 274 451 249 c 0,258,259
 428 223 428 223 397 208 c 0,260,261
 368 194 368 194 331 187 c 0,262,263
 293 181 293 181 254 188 c 0,264,265
 212 194 212 194 180 209 c 0,266,267
 147 224 147 224 126 246 c 0,268,269
 110 262 110 262 106.5 271 c 128,-1,270
 103 280 103 280 102 307 c 0,271,272
 100 346 100 346 112 365 c 128,-1,273
 124 384 124 384 143 393 c 0,240,241
531 379 m 128,-1,275
 540 390 540 390 563 388 c 2,276,-1
 587 386 l 1,277,-1
 588 355 l 2,278,279
 590 323 590 323 580 298 c 0,280,281
 571 274 571 274 527 227 c 0,282,283
 499 197 499 197 488.5 189.5 c 128,-1,284
 478 182 478 182 466 183 c 0,285,286
 455 184 455 184 451.5 187.5 c 128,-1,287
 448 191 448 191 447 201 c 0,288,289
 445 216 445 216 466 241 c 0,290,291
 485 261 485 261 501 295 c 0,292,293
 516 327 516 327 519 347 c 0,294,274
 522 368 522 368 531 379 c 128,-1,275
EndSplineSet
Validated: 33
EndChar

StartChar: uniE701
Encoding: 59137 59137 54
Width: 1024
GlyphClass: 2
Flags: W
LayerCount: 2
Fore
SplineSet
143 475 m 1,0,-1
 143 932 l 1,1,-1
 187 932 l 1,2,-1
 230 932 l 1,3,-1
 230 898 l 1,4,-1
 230 864 l 1,5,-1
 266 868 l 2,6,7
 302 870 302 870 350 864 c 0,8,9
 392 860 392 860 503 833 c 0,10,11
 607 807 607 807 657 801 c 0,12,13
 706 796 706 796 745 801 c 0,14,15
 782 806 782 806 817 819 c 0,16,17
 849 831 849 831 865 840 c 0,18,19
 881 850 881 850 883 850 c 128,-1,20
 885 850 885 850 885 659 c 2,21,-1
 885 468 l 1,22,-1
 862 455 l 2,23,24
 837 441 837 441 810 432 c 128,-1,25
 783 423 783 423 741 417 c 0,26,27
 700 411 700 411 651 417 c 0,28,29
 599 424 599 424 525 442 c 0,30,31
 444 463 444 463 415 469 c 0,32,33
 385 476 385 476 339 481 c 0,34,35
 296 487 296 487 264 483 c 2,36,-1
 230 480 l 1,37,-1
 230 257 l 2,38,39
 230 35 230 35 224 33 c 0,40,41
 220 32 220 32 181 24 c 2,42,-1
 143 17 l 1,43,-1
 143 475 l 1,0,-1
EndSplineSet
Validated: 33
EndChar

StartChar: uniE702
Encoding: 59138 59138 55
Width: 1024
GlyphClass: 2
Flags: W
LayerCount: 2
Fore
SplineSet
320 906 m 0,0,1
 348 910 348 910 393 912 c 0,2,3
 433 912 433 912 473 907 c 0,4,5
 512 901 512 901 552 883 c 0,6,7
 591 864 591 864 622 842 c 0,8,9
 652 821 652 821 679 788 c 0,10,11
 704 756 704 756 723 723 c 0,12,13
 741 690 741 690 752 629 c 2,14,-1
 763 567 l 1,15,-1
 752 507 l 2,16,17
 742 445 742 445 726 414 c 0,18,19
 709 383 709 383 709 372.5 c 128,-1,20
 709 362 709 362 730 342 c 0,21,22
 767 304 767 304 851 222 c 0,23,24
 913 161 913 161 934 137 c 128,-1,25
 955 113 955 113 958 101 c 0,26,27
 964 82 964 82 958 60 c 128,-1,28
 952 38 952 38 936 28 c 0,29,30
 918 17 918 17 895 17 c 0,31,32
 869 18 869 18 857 24 c 0,33,34
 842 31 842 31 748 124 c 0,35,36
 661 210 661 210 631 242 c 0,37,38
 616 258 616 258 610 262 c 128,-1,39
 604 266 604 266 595 264 c 0,40,41
 581 261 581 261 567 251 c 128,-1,42
 553 241 553 241 535 237 c 128,-1,43
 517 233 517 233 491 223 c 0,44,45
 466 213 466 213 404 213 c 0,46,47
 363 213 363 213 345 216 c 128,-1,48
 327 219 327 219 294 230 c 0,49,50
 248 245 248 245 222 260 c 0,51,52
 201 272 201 272 175 292 c 0,53,54
 152 311 152 311 133 331 c 0,55,56
 114 352 114 352 100 375 c 0,57,58
 84 401 84 401 71 431 c 0,59,60
 59 462 59 462 52 486 c 0,61,62
 46 510 46 510 49 581 c 0,63,64
 51 634 51 634 53.5 650 c 128,-1,65
 56 666 56 666 68 692 c 0,66,67
 86 731 86 731 89 735 c 0,68,69
 89 736 89 736 95.5 745.5 c 128,-1,70
 102 755 102 755 106 762 c 0,71,72
 121 783 121 783 146 808 c 0,73,74
 173 834 173 834 194 849 c 0,75,76
 218 865 218 865 252 883 c 0,77,78
 287 902 287 902 320 906 c 0,0,1
470 827 m 0,79,80
 422 838 422 838 393 837 c 0,81,82
 364 837 364 837 349 832 c 0,83,84
 336 826 336 826 312 822 c 0,85,86
 286 816 286 816 259 798 c 0,87,88
 229 779 229 779 203 753 c 0,89,90
 175 725 175 725 156 691 c 128,-1,91
 137 657 137 657 132 619 c 0,92,93
 126 580 126 580 129 534 c 0,94,95
 131 503 131 503 135 488.5 c 128,-1,96
 139 474 139 474 151 449 c 0,97,98
 171 412 171 412 187 392 c 0,99,100
 202 374 202 374 230 352 c 0,101,102
 258 331 258 331 296 313 c 0,103,104
 326 300 326 300 340 297.5 c 128,-1,105
 354 295 354 295 402 296 c 0,106,107
 452 296 452 296 466 298.5 c 128,-1,108
 480 301 480 301 511 316 c 0,109,110
 553 337 553 337 572 350 c 0,111,112
 590 363 590 363 606 382 c 0,113,114
 623 401 623 401 636 422 c 0,115,116
 651 445 651 445 664 485 c 0,117,118
 678 525 678 525 678 562 c 0,119,120
 678 600 678 600 667 635 c 128,-1,121
 656 670 656 670 635 706 c 0,122,123
 613 742 613 742 595 759 c 0,124,125
 578 775 578 775 545 797 c 0,126,127
 516 816 516 816 470 827 c 0,79,80
EndSplineSet
Validated: 33
EndChar

StartChar: uniE900
Encoding: 59648 59648 56
Width: 1841
GlyphClass: 1
Flags: W
LayerCount: 2
Fore
SplineSet
291 960 m 1,0,-1
 291 139 l 2,1,2
 291 66 291 66 322 29 c 128,-1,3
 353 -8 353 -8 415 -8 c 2,4,-1
 437 -8 l 1,5,-1
 437 -64 l 1,6,-1
 0 -64 l 1,7,-1
 0 -8 l 1,8,-1
 27 -8 l 2,9,10
 87 -8 87 -8 117 29 c 128,-1,11
 147 66 147 66 147 139 c 2,12,-1
 147 678 l 2,13,14
 147 752 147 752 121.5 789.5 c 128,-1,15
 96 827 96 827 44 827 c 2,16,-1
 0 827 l 1,17,-1
 0 881 l 1,18,-1
 16 881 l 2,19,20
 80 881 80 881 138 901 c 128,-1,21
 196 921 196 921 247 960 c 1,22,-1
 291 960 l 1,0,-1
422 417 m 0,23,24
 422 464 422 464 427 509 c 128,-1,25
 432 554 432 554 442 597.5 c 128,-1,26
 452 641 452 641 466.5 682.5 c 128,-1,27
 481 724 481 724 501 763 c 0,28,29
 526 813 526 813 555 849.5 c 128,-1,30
 584 886 584 886 617.5 910.5 c 128,-1,31
 651 935 651 935 689.5 947.5 c 128,-1,32
 728 960 728 960 770 960 c 0,33,34
 855 960 855 960 921 918 c 128,-1,35
 987 876 987 876 1034 793 c 0,36,37
 1054 758 1054 758 1069 721 c 128,-1,38
 1084 684 1084 684 1093.5 644 c 128,-1,39
 1103 604 1103 604 1108 561 c 128,-1,40
 1113 518 1113 518 1113 472 c 0,41,42
 1113 425 1113 425 1108 379.5 c 128,-1,43
 1103 334 1103 334 1093.5 291.5 c 128,-1,44
 1084 249 1084 249 1069 208 c 128,-1,45
 1054 167 1054 167 1034 129 c 0,46,47
 1010 81 1010 81 981 44.5 c 128,-1,48
 952 8 952 8 918.5 -16 c 128,-1,49
 885 -40 885 -40 846.5 -52 c 128,-1,50
 808 -64 808 -64 765 -64 c 0,51,52
 683 -64 683 -64 618 -22.5 c 128,-1,53
 553 19 553 19 505 101 c 0,54,55
 484 137 484 137 468.5 174.5 c 128,-1,56
 453 212 453 212 442.5 251 c 128,-1,57
 432 290 432 290 427 331.5 c 128,-1,58
 422 373 422 373 422 417 c 0,23,24
567 474 m 2,59,60
 567 412 567 412 571.5 356.5 c 128,-1,61
 576 301 576 301 585.5 253 c 128,-1,62
 595 205 595 205 608.5 163.5 c 128,-1,63
 622 122 622 122 641 88 c 0,64,65
 667 39 667 39 700 15 c 128,-1,66
 733 -9 733 -9 774 -9 c 0,67,68
 822 -9 822 -9 858.5 16.5 c 128,-1,69
 895 42 895 42 919.5 92 c 128,-1,70
 944 142 944 142 956 218 c 128,-1,71
 968 294 968 294 968 395 c 0,72,73
 968 483 968 483 960.5 558 c 128,-1,74
 953 633 953 633 937 695 c 0,75,76
 911 795 911 795 865.5 845.5 c 128,-1,77
 820 896 820 896 756 896 c 0,78,79
 709 896 709 896 673.5 872 c 128,-1,80
 638 848 638 848 614 799 c 128,-1,81
 590 750 590 750 578.5 677 c 128,-1,82
 567 604 567 604 567 507 c 2,83,-1
 567 474 l 2,59,60
1150 417 m 0,84,85
 1150 464 1150 464 1155 509 c 128,-1,86
 1160 554 1160 554 1169.5 597.5 c 128,-1,87
 1179 641 1179 641 1194 682.5 c 128,-1,88
 1209 724 1209 724 1229 763 c 0,89,90
 1254 813 1254 813 1283 849.5 c 128,-1,91
 1312 886 1312 886 1345.5 910.5 c 128,-1,92
 1379 935 1379 935 1417 947.5 c 128,-1,93
 1455 960 1455 960 1498 960 c 0,94,95
 1582 960 1582 960 1648 918 c 128,-1,96
 1714 876 1714 876 1762 793 c 0,97,98
 1781 758 1781 758 1796 721 c 128,-1,99
 1811 684 1811 684 1821 644 c 128,-1,100
 1831 604 1831 604 1836 561 c 128,-1,101
 1841 518 1841 518 1841 472 c 0,102,103
 1841 425 1841 425 1836 379.5 c 128,-1,104
 1831 334 1831 334 1821 291.5 c 128,-1,105
 1811 249 1811 249 1796 208 c 128,-1,106
 1781 167 1781 167 1762 129 c 0,107,108
 1738 81 1738 81 1709 44.5 c 128,-1,109
 1680 8 1680 8 1646 -16 c 128,-1,110
 1612 -40 1612 -40 1574 -52 c 128,-1,111
 1536 -64 1536 -64 1493 -64 c 0,112,113
 1411 -64 1411 -64 1346 -22.5 c 128,-1,114
 1281 19 1281 19 1232 101 c 0,115,116
 1212 137 1212 137 1196.5 174.5 c 128,-1,117
 1181 212 1181 212 1170.5 251 c 128,-1,118
 1160 290 1160 290 1155 331.5 c 128,-1,119
 1150 373 1150 373 1150 417 c 0,84,85
1294 474 m 2,120,121
 1294 412 1294 412 1299 356.5 c 128,-1,122
 1304 301 1304 301 1313 253 c 128,-1,123
 1322 205 1322 205 1336 163.5 c 128,-1,124
 1350 122 1350 122 1369 88 c 0,125,126
 1394 39 1394 39 1427.5 15 c 128,-1,127
 1461 -9 1461 -9 1501 -9 c 0,128,129
 1550 -9 1550 -9 1586.5 16.5 c 128,-1,130
 1623 42 1623 42 1647.5 92 c 128,-1,131
 1672 142 1672 142 1684 218 c 128,-1,132
 1696 294 1696 294 1696 395 c 0,133,134
 1696 483 1696 483 1688.5 558 c 128,-1,135
 1681 633 1681 633 1665 695 c 0,136,137
 1638 795 1638 795 1593 845.5 c 128,-1,138
 1548 896 1548 896 1484 896 c 0,139,140
 1437 896 1437 896 1401.5 872 c 128,-1,141
 1366 848 1366 848 1342 799 c 128,-1,142
 1318 750 1318 750 1306 677 c 128,-1,143
 1294 604 1294 604 1294 507 c 2,144,-1
 1294 474 l 2,120,121
EndSplineSet
Validated: 1
EndChar

StartChar: uniE901
Encoding: 59649 59649 57
Width: 5120
GlyphClass: 1
Flags: W
LayerCount: 2
Fore
SplineSet
291 960 m 1,0,-1
 291 139 l 2,1,2
 291 66 291 66 322 29 c 128,-1,3
 353 -8 353 -8 415 -8 c 2,4,-1
 437 -8 l 1,5,-1
 437 -64 l 1,6,-1
 0 -64 l 1,7,-1
 0 -8 l 1,8,-1
 27 -8 l 2,9,10
 87 -8 87 -8 117 29 c 128,-1,11
 147 66 147 66 147 139 c 2,12,-1
 147 678 l 2,13,14
 147 752 147 752 121.5 789.5 c 128,-1,15
 96 827 96 827 44 827 c 2,16,-1
 0 827 l 1,17,-1
 0 881 l 1,18,-1
 16 881 l 2,19,20
 80 881 80 881 138 901 c 128,-1,21
 196 921 196 921 247 960 c 1,22,-1
 291 960 l 1,0,-1
630 417 m 0,23,24
 630 464 630 464 635 509 c 128,-1,25
 640 554 640 554 650 597.5 c 128,-1,26
 660 641 660 641 675 682.5 c 128,-1,27
 690 724 690 724 709 763 c 0,28,29
 734 813 734 813 763 849.5 c 128,-1,30
 792 886 792 886 825.5 910.5 c 128,-1,31
 859 935 859 935 897.5 947.5 c 128,-1,32
 936 960 936 960 978 960 c 0,33,34
 1063 960 1063 960 1129 918 c 128,-1,35
 1195 876 1195 876 1242 793 c 0,36,37
 1262 758 1262 758 1277 721 c 128,-1,38
 1292 684 1292 684 1302 644 c 128,-1,39
 1312 604 1312 604 1316.5 561 c 128,-1,40
 1321 518 1321 518 1321 472 c 0,41,42
 1321 425 1321 425 1316.5 379.5 c 128,-1,43
 1312 334 1312 334 1302 291.5 c 128,-1,44
 1292 249 1292 249 1277 208 c 128,-1,45
 1262 167 1262 167 1242 129 c 0,46,47
 1218 81 1218 81 1189 44.5 c 128,-1,48
 1160 8 1160 8 1126.5 -16 c 128,-1,49
 1093 -40 1093 -40 1054.5 -52 c 128,-1,50
 1016 -64 1016 -64 973 -64 c 0,51,52
 891 -64 891 -64 826 -22.5 c 128,-1,53
 761 19 761 19 713 101 c 0,54,55
 692 137 692 137 676.5 174.5 c 128,-1,56
 661 212 661 212 651 251 c 128,-1,57
 641 290 641 290 635.5 331.5 c 128,-1,58
 630 373 630 373 630 417 c 0,23,24
775 474 m 2,59,60
 775 412 775 412 779.5 356.5 c 128,-1,61
 784 301 784 301 793.5 253 c 128,-1,62
 803 205 803 205 817 163.5 c 128,-1,63
 831 122 831 122 849 88 c 0,64,65
 875 39 875 39 908 15 c 128,-1,66
 941 -9 941 -9 982 -9 c 0,67,68
 1031 -9 1031 -9 1067.5 16.5 c 128,-1,69
 1104 42 1104 42 1128 92 c 128,-1,70
 1152 142 1152 142 1164.5 218 c 128,-1,71
 1177 294 1177 294 1177 395 c 0,72,73
 1177 483 1177 483 1169 558 c 128,-1,74
 1161 633 1161 633 1146 695 c 0,75,76
 1119 795 1119 795 1073.5 845.5 c 128,-1,77
 1028 896 1028 896 965 896 c 0,78,79
 917 896 917 896 881.5 872 c 128,-1,80
 846 848 846 848 822.5 799 c 128,-1,81
 799 750 799 750 787 677 c 128,-1,82
 775 604 775 604 775 507 c 2,83,-1
 775 474 l 2,59,60
1358 417 m 0,84,85
 1358 464 1358 464 1363 509 c 128,-1,86
 1368 554 1368 554 1378 597.5 c 128,-1,87
 1388 641 1388 641 1402.5 682.5 c 128,-1,88
 1417 724 1417 724 1437 763 c 0,89,90
 1462 813 1462 813 1491 849.5 c 128,-1,91
 1520 886 1520 886 1553.5 910.5 c 128,-1,92
 1587 935 1587 935 1625 947.5 c 128,-1,93
 1663 960 1663 960 1706 960 c 0,94,95
 1791 960 1791 960 1856.5 918 c 128,-1,96
 1922 876 1922 876 1970 793 c 0,97,98
 1990 758 1990 758 2004.5 721 c 128,-1,99
 2019 684 2019 684 2029 644 c 128,-1,100
 2039 604 2039 604 2044 561 c 128,-1,101
 2049 518 2049 518 2049 472 c 0,102,103
 2049 425 2049 425 2044 379.5 c 128,-1,104
 2039 334 2039 334 2029 291.5 c 128,-1,105
 2019 249 2019 249 2004.5 208 c 128,-1,106
 1990 167 1990 167 1970 129 c 0,107,108
 1946 81 1946 81 1917 44.5 c 128,-1,109
 1888 8 1888 8 1854.5 -16 c 128,-1,110
 1821 -40 1821 -40 1782.5 -52 c 128,-1,111
 1744 -64 1744 -64 1701 -64 c 0,112,113
 1619 -64 1619 -64 1554 -22.5 c 128,-1,114
 1489 19 1489 19 1441 101 c 0,115,116
 1420 137 1420 137 1404.5 174.5 c 128,-1,117
 1389 212 1389 212 1378.5 251 c 128,-1,118
 1368 290 1368 290 1363 331.5 c 128,-1,119
 1358 373 1358 373 1358 417 c 0,84,85
1503 474 m 2,120,121
 1503 412 1503 412 1507.5 356.5 c 128,-1,122
 1512 301 1512 301 1521 253 c 128,-1,123
 1530 205 1530 205 1544 163.5 c 128,-1,124
 1558 122 1558 122 1577 88 c 0,125,126
 1603 39 1603 39 1636 15 c 128,-1,127
 1669 -9 1669 -9 1710 -9 c 0,128,129
 1758 -9 1758 -9 1794.5 16.5 c 128,-1,130
 1831 42 1831 42 1855.5 92 c 128,-1,131
 1880 142 1880 142 1892 218 c 128,-1,132
 1904 294 1904 294 1904 395 c 0,133,134
 1904 483 1904 483 1896.5 558 c 128,-1,135
 1889 633 1889 633 1873 695 c 0,136,137
 1847 795 1847 795 1801.5 845.5 c 128,-1,138
 1756 896 1756 896 1692 896 c 0,139,140
 1645 896 1645 896 1609.5 872 c 128,-1,141
 1574 848 1574 848 1550 799 c 128,-1,142
 1526 750 1526 750 1514.5 677 c 128,-1,143
 1503 604 1503 604 1503 507 c 2,144,-1
 1503 474 l 2,120,121
2087 417 m 0,145,146
 2087 464 2087 464 2092 509 c 128,-1,147
 2097 554 2097 554 2107 597.5 c 128,-1,148
 2117 641 2117 641 2132 682.5 c 128,-1,149
 2147 724 2147 724 2167 763 c 0,150,151
 2191 813 2191 813 2220 849.5 c 128,-1,152
 2249 886 2249 886 2282.5 910.5 c 128,-1,153
 2316 935 2316 935 2354.5 947.5 c 128,-1,154
 2393 960 2393 960 2435 960 c 0,155,156
 2520 960 2520 960 2586 918 c 128,-1,157
 2652 876 2652 876 2699 793 c 0,158,159
 2719 758 2719 758 2734 721 c 128,-1,160
 2749 684 2749 684 2759 644 c 128,-1,161
 2769 604 2769 604 2773.5 561 c 128,-1,162
 2778 518 2778 518 2778 472 c 0,163,164
 2778 425 2778 425 2773.5 379.5 c 128,-1,165
 2769 334 2769 334 2759 291.5 c 128,-1,166
 2749 249 2749 249 2734 208 c 128,-1,167
 2719 167 2719 167 2699 129 c 0,168,169
 2675 81 2675 81 2646 44.5 c 128,-1,170
 2617 8 2617 8 2583.5 -16 c 128,-1,171
 2550 -40 2550 -40 2511.5 -52 c 128,-1,172
 2473 -64 2473 -64 2430 -64 c 0,173,174
 2348 -64 2348 -64 2283 -22.5 c 128,-1,175
 2218 19 2218 19 2170 101 c 0,176,177
 2149 137 2149 137 2133.5 174.5 c 128,-1,178
 2118 212 2118 212 2108 251 c 128,-1,179
 2098 290 2098 290 2092.5 331.5 c 128,-1,180
 2087 373 2087 373 2087 417 c 0,145,146
2232 474 m 2,181,182
 2232 412 2232 412 2236.5 356.5 c 128,-1,183
 2241 301 2241 301 2250.5 253 c 128,-1,184
 2260 205 2260 205 2274 163.5 c 128,-1,185
 2288 122 2288 122 2306 88 c 0,186,187
 2332 39 2332 39 2365 15 c 128,-1,188
 2398 -9 2398 -9 2439 -9 c 0,189,190
 2488 -9 2488 -9 2524.5 16.5 c 128,-1,191
 2561 42 2561 42 2585 92 c 128,-1,192
 2609 142 2609 142 2621.5 218 c 128,-1,193
 2634 294 2634 294 2634 395 c 0,194,195
 2634 483 2634 483 2626 558 c 128,-1,196
 2618 633 2618 633 2603 695 c 0,197,198
 2576 795 2576 795 2530.5 845.5 c 128,-1,199
 2485 896 2485 896 2422 896 c 0,200,201
 2374 896 2374 896 2338.5 872 c 128,-1,202
 2303 848 2303 848 2279.5 799 c 128,-1,203
 2256 750 2256 750 2244 677 c 128,-1,204
 2232 604 2232 604 2232 507 c 2,205,-1
 2232 474 l 2,181,182
481 -64 m 1,206,-1
 481 -36 l 1,207,208
 533 -31 533 -31 560 -12 c 0,209,210
 586 7 586 7 586 39 c 0,211,212
 586 60 586 60 580 70 c 0,213,214
 573 80 573 80 557 81 c 2,215,-1
 547 82 l 2,216,217
 527 83 527 83 516 94 c 0,218,219
 504 105 504 105 504 124 c 0,220,221
 504 145 504 145 518 158 c 128,-1,222
 532 171 532 171 553 171 c 0,223,224
 586 171 586 171 608 139 c 0,225,226
 630 108 630 108 630 62 c 0,227,228
 630 3 630 3 591 -30 c 128,-1,229
 552 -63 552 -63 481 -64 c 1,206,-1
2968 417 m 0,230,231
 2968 464 2968 464 2973 509 c 128,-1,232
 2978 554 2978 554 2988 597.5 c 128,-1,233
 2998 641 2998 641 3013 682.5 c 128,-1,234
 3028 724 3028 724 3048 763 c 0,235,236
 3072 813 3072 813 3101 849.5 c 128,-1,237
 3130 886 3130 886 3164 910.5 c 128,-1,238
 3198 935 3198 935 3236 947.5 c 128,-1,239
 3274 960 3274 960 3317 960 c 0,240,241
 3401 960 3401 960 3467 918 c 128,-1,242
 3533 876 3533 876 3580 793 c 0,243,244
 3600 758 3600 758 3615 721 c 128,-1,245
 3630 684 3630 684 3640 644 c 128,-1,246
 3650 604 3650 604 3655 561 c 128,-1,247
 3660 518 3660 518 3660 472 c 0,248,249
 3660 425 3660 425 3655 379.5 c 128,-1,250
 3650 334 3650 334 3640 291.5 c 128,-1,251
 3630 249 3630 249 3615 208 c 128,-1,252
 3600 167 3600 167 3580 129 c 0,253,254
 3556 81 3556 81 3527 44.5 c 128,-1,255
 3498 8 3498 8 3464.5 -16 c 128,-1,256
 3431 -40 3431 -40 3392.5 -52 c 128,-1,257
 3354 -64 3354 -64 3311 -64 c 0,258,259
 3229 -64 3229 -64 3164 -22.5 c 128,-1,260
 3099 19 3099 19 3051 101 c 0,261,262
 3030 137 3030 137 3014.5 174.5 c 128,-1,263
 2999 212 2999 212 2989 251 c 128,-1,264
 2979 290 2979 290 2973.5 331.5 c 128,-1,265
 2968 373 2968 373 2968 417 c 0,230,231
3113 474 m 2,266,267
 3113 412 3113 412 3117.5 356.5 c 128,-1,268
 3122 301 3122 301 3131.5 253 c 128,-1,269
 3141 205 3141 205 3155 163.5 c 128,-1,270
 3169 122 3169 122 3187 88 c 0,271,272
 3213 39 3213 39 3246 15 c 128,-1,273
 3279 -9 3279 -9 3320 -9 c 0,274,275
 3369 -9 3369 -9 3405.5 16.5 c 128,-1,276
 3442 42 3442 42 3466 92 c 128,-1,277
 3490 142 3490 142 3502.5 218 c 128,-1,278
 3515 294 3515 294 3515 395 c 0,279,280
 3515 483 3515 483 3507 558 c 128,-1,281
 3499 633 3499 633 3484 695 c 0,282,283
 3457 795 3457 795 3412 845.5 c 128,-1,284
 3367 896 3367 896 3303 896 c 0,285,286
 3255 896 3255 896 3219.5 872 c 128,-1,287
 3184 848 3184 848 3160.5 799 c 128,-1,288
 3137 750 3137 750 3125 677 c 128,-1,289
 3113 604 3113 604 3113 507 c 2,290,-1
 3113 474 l 2,266,267
3696 417 m 0,291,292
 3696 464 3696 464 3701 509 c 128,-1,293
 3706 554 3706 554 3716 597.5 c 128,-1,294
 3726 641 3726 641 3740.5 682.5 c 128,-1,295
 3755 724 3755 724 3775 763 c 0,296,297
 3800 813 3800 813 3829 849.5 c 128,-1,298
 3858 886 3858 886 3891.5 910.5 c 128,-1,299
 3925 935 3925 935 3963.5 947.5 c 128,-1,300
 4002 960 4002 960 4044 960 c 0,301,302
 4129 960 4129 960 4195 918 c 128,-1,303
 4261 876 4261 876 4308 793 c 0,304,305
 4328 758 4328 758 4343 721 c 128,-1,306
 4358 684 4358 684 4367.5 644 c 128,-1,307
 4377 604 4377 604 4382 561 c 128,-1,308
 4387 518 4387 518 4387 472 c 0,309,310
 4387 425 4387 425 4382 379.5 c 128,-1,311
 4377 334 4377 334 4367.5 291.5 c 128,-1,312
 4358 249 4358 249 4343 208 c 128,-1,313
 4328 167 4328 167 4308 129 c 0,314,315
 4284 81 4284 81 4255 44.5 c 128,-1,316
 4226 8 4226 8 4192.5 -16 c 128,-1,317
 4159 -40 4159 -40 4120.5 -52 c 128,-1,318
 4082 -64 4082 -64 4039 -64 c 0,319,320
 3957 -64 3957 -64 3892 -22.5 c 128,-1,321
 3827 19 3827 19 3779 101 c 0,322,323
 3758 137 3758 137 3742.5 174.5 c 128,-1,324
 3727 212 3727 212 3716.5 251 c 128,-1,325
 3706 290 3706 290 3701 331.5 c 128,-1,326
 3696 373 3696 373 3696 417 c 0,291,292
3841 474 m 2,327,328
 3841 412 3841 412 3845.5 356.5 c 128,-1,329
 3850 301 3850 301 3859.5 253 c 128,-1,330
 3869 205 3869 205 3882.5 163.5 c 128,-1,331
 3896 122 3896 122 3915 88 c 0,332,333
 3941 39 3941 39 3974 15 c 128,-1,334
 4007 -9 4007 -9 4048 -9 c 0,335,336
 4096 -9 4096 -9 4132.5 16.5 c 128,-1,337
 4169 42 4169 42 4193.5 92 c 128,-1,338
 4218 142 4218 142 4230.5 218 c 128,-1,339
 4243 294 4243 294 4243 395 c 0,340,341
 4243 483 4243 483 4235 558 c 128,-1,342
 4227 633 4227 633 4212 695 c 0,343,344
 4185 795 4185 795 4139.5 845.5 c 128,-1,345
 4094 896 4094 896 4030 896 c 0,346,347
 3983 896 3983 896 3947.5 872 c 128,-1,348
 3912 848 3912 848 3888.5 799 c 128,-1,349
 3865 750 3865 750 3853 677 c 128,-1,350
 3841 604 3841 604 3841 507 c 2,351,-1
 3841 474 l 2,327,328
4425 417 m 0,352,353
 4425 464 4425 464 4430 509 c 128,-1,354
 4435 554 4435 554 4445 597.5 c 128,-1,355
 4455 641 4455 641 4470 682.5 c 128,-1,356
 4485 724 4485 724 4505 763 c 0,357,358
 4529 813 4529 813 4558 849.5 c 128,-1,359
 4587 886 4587 886 4621 910.5 c 128,-1,360
 4655 935 4655 935 4693 947.5 c 128,-1,361
 4731 960 4731 960 4774 960 c 0,362,363
 4858 960 4858 960 4924 918 c 128,-1,364
 4990 876 4990 876 5037 793 c 0,365,366
 5057 758 5057 758 5072 721 c 128,-1,367
 5087 684 5087 684 5097 644 c 128,-1,368
 5107 604 5107 604 5112 561 c 128,-1,369
 5117 518 5117 518 5117 472 c 0,370,371
 5117 425 5117 425 5112 379.5 c 128,-1,372
 5107 334 5107 334 5097 291.5 c 128,-1,373
 5087 249 5087 249 5072 208 c 128,-1,374
 5057 167 5057 167 5037 129 c 0,375,376
 5013 81 5013 81 4984 44.5 c 128,-1,377
 4955 8 4955 8 4921.5 -16 c 128,-1,378
 4888 -40 4888 -40 4849.5 -52 c 128,-1,379
 4811 -64 4811 -64 4768 -64 c 0,380,381
 4686 -64 4686 -64 4621 -22.5 c 128,-1,382
 4556 19 4556 19 4508 101 c 0,383,384
 4487 137 4487 137 4471.5 174.5 c 128,-1,385
 4456 212 4456 212 4446 251 c 128,-1,386
 4436 290 4436 290 4430.5 331.5 c 128,-1,387
 4425 373 4425 373 4425 417 c 0,352,353
4570 474 m 2,388,389
 4570 412 4570 412 4574.5 356.5 c 128,-1,390
 4579 301 4579 301 4588.5 253 c 128,-1,391
 4598 205 4598 205 4612 163.5 c 128,-1,392
 4626 122 4626 122 4644 88 c 0,393,394
 4670 39 4670 39 4703.5 15 c 128,-1,395
 4737 -9 4737 -9 4777 -9 c 0,396,397
 4826 -9 4826 -9 4862.5 16.5 c 128,-1,398
 4899 42 4899 42 4923 92 c 128,-1,399
 4947 142 4947 142 4959.5 218 c 128,-1,400
 4972 294 4972 294 4972 395 c 0,401,402
 4972 483 4972 483 4964 558 c 128,-1,403
 4956 633 4956 633 4941 695 c 0,404,405
 4914 795 4914 795 4869 845.5 c 128,-1,406
 4824 896 4824 896 4760 896 c 0,407,408
 4712 896 4712 896 4676.5 872 c 128,-1,409
 4641 848 4641 848 4617.5 799 c 128,-1,410
 4594 750 4594 750 4582 677 c 128,-1,411
 4570 604 4570 604 4570 507 c 2,412,-1
 4570 474 l 2,388,389
2819 -64 m 1,413,-1
 2819 -36 l 1,414,415
 2872 -31 2872 -31 2898 -12 c 128,-1,416
 2924 7 2924 7 2924 39 c 0,417,418
 2924 60 2924 60 2918 70 c 0,419,420
 2911 80 2911 80 2895 81 c 2,421,-1
 2885 82 l 2,422,423
 2866 83 2866 83 2854 94 c 0,424,425
 2843 105 2843 105 2843 124 c 0,426,427
 2843 145 2843 145 2856 158 c 0,428,429
 2870 171 2870 171 2891 171 c 0,430,431
 2924 171 2924 171 2946 139 c 0,432,433
 2968 108 2968 108 2968 62 c 0,434,435
 2968 3 2968 3 2929 -30 c 128,-1,436
 2890 -63 2890 -63 2819 -64 c 1,413,-1
EndSplineSet
Validated: 1
EndChar

StartChar: uniE902
Encoding: 59650 59650 58
Width: 1024
GlyphClass: 1
Flags: W
LayerCount: 2
Fore
SplineSet
545 960 m 1,0,-1
 545 598 l 2,1,2
 545 566 545 566 558.5 549.5 c 128,-1,3
 572 533 572 533 599 533 c 2,4,-1
 609 533 l 1,5,-1
 609 508 l 1,6,-1
 416 508 l 1,7,-1
 416 533 l 1,8,-1
 428 533 l 2,9,10
 455 533 455 533 468 549.5 c 128,-1,11
 481 566 481 566 481 598 c 2,12,-1
 481 836 l 2,13,14
 481 868 481 868 469.5 884.5 c 128,-1,15
 458 901 458 901 436 901 c 2,16,-1
 416 901 l 1,17,-1
 416 925 l 1,18,-1
 423 925 l 2,19,20
 451 925 451 925 476.5 934 c 128,-1,21
 502 943 502 943 525 960 c 1,22,-1
 545 960 l 1,0,-1
667 48 m 1,23,-1
 634 -64 l 1,24,-1
 357 -64 l 1,25,-1
 357 -40 l 1,26,27
 367 -29 367 -29 389 -6.5 c 128,-1,28
 411 16 411 16 445 51 c 0,29,30
 466 71 466 71 486.5 92.5 c 128,-1,31
 507 114 507 114 527 137 c 0,32,33
 537 148 537 148 544 158 c 2,34,-1
 558 176 l 2,35,36
 570 193 570 193 576 211 c 128,-1,37
 582 229 582 229 582 247 c 128,-1,38
 582 265 582 265 576.5 280.5 c 128,-1,39
 571 296 571 296 560 310 c 0,40,41
 549 323 549 323 534.5 330 c 128,-1,42
 520 337 520 337 503 337 c 0,43,44
 465 337 465 337 435.5 311.5 c 128,-1,45
 406 286 406 286 385 236 c 1,46,-1
 360 245 l 1,47,48
 385 316 385 316 425 351.5 c 128,-1,49
 465 387 465 387 519 387 c 0,50,51
 546 387 546 387 568.5 378 c 128,-1,52
 591 369 591 369 610 351 c 128,-1,53
 629 333 629 333 638 310.5 c 128,-1,54
 647 288 647 288 647 261 c 0,55,56
 647 227 647 227 627.5 193.5 c 128,-1,57
 608 160 608 160 569 128 c 2,58,-1
 515 83 l 2,59,60
 489 61 489 61 467.5 41 c 128,-1,61
 446 21 446 21 429 2 c 0,62,63
 428 1 428 1 425.5 -2 c 128,-1,64
 423 -5 423 -5 420 -9 c 1,65,-1
 564 -9 l 2,66,67
 581 -9 581 -9 593.5 -5.5 c 128,-1,68
 606 -2 606 -2 614 4 c 128,-1,69
 622 10 622 10 629 21 c 128,-1,70
 636 32 636 32 643 48 c 1,71,-1
 667 48 l 1,23,-1
892 469 m 1,72,-1
 892 425 l 1,73,-1
 132 425 l 1,74,-1
 132 469 l 1,75,-1
 892 469 l 1,72,-1
EndSplineSet
Validated: 1
EndChar

StartChar: uniE903
Encoding: 59651 59651 59
Width: 1024
GlyphClass: 1
Flags: W
LayerCount: 2
Fore
SplineSet
687 552 m 0,0,1
 663 536 663 536 630 511 c 0,2,3
 598 485 598 485 561 449 c 1,4,5
 630 380 630 380 687 346 c 0,6,7
 745 312 745 312 789 312 c 0,8,9
 820 312 820 312 847 323 c 0,10,11
 873 334 873 334 892 354 c 0,12,13
 912 373 912 373 923 399 c 128,-1,14
 934 425 934 425 934 453 c 0,15,16
 934 482 934 482 923 506 c 128,-1,17
 912 530 912 530 892 547 c 128,-1,18
 872 564 872 564 845 574 c 0,19,20
 818 583 818 583 786 583 c 0,21,22
 739 583 739 583 687 552 c 0,0,1
240 312 m 0,23,24
 288 312 288 312 345 345 c 128,-1,25
 402 378 402 378 466 444 c 1,26,27
 400 514 400 514 341 548 c 0,28,29
 282 583 282 583 231 583 c 0,30,31
 200 583 200 583 174 573 c 0,32,33
 148 562 148 562 129 544 c 128,-1,34
 110 526 110 526 100 502 c 0,35,36
 89 478 89 478 89 451 c 0,37,38
 89 422 89 422 101 397 c 0,39,40
 112 372 112 372 132 353 c 0,41,42
 153 334 153 334 181 323 c 0,43,44
 208 312 208 312 240 312 c 0,23,24
229 658 m 0,45,46
 368 658 368 658 516 502 c 1,47,48
 559 544 559 544 600 576 c 128,-1,49
 641 608 641 608 672 625 c 128,-1,50
 703 642 703 642 737 650 c 0,51,52
 770 658 770 658 803 658 c 0,53,54
 851 658 851 658 891 643 c 0,55,56
 932 627 932 627 961 599 c 0,57,58
 991 572 991 572 1007 533 c 0,59,60
 1024 494 1024 494 1024 449 c 0,61,62
 1024 402 1024 402 1006 364 c 0,63,64
 988 325 988 325 955 297 c 0,65,66
 923 269 923 269 879 253 c 0,67,68
 834 238 834 238 782 238 c 0,69,70
 721 238 721 238 653 275 c 0,71,72
 584 313 584 313 508 388 c 1,73,74
 435 313 435 313 364 275 c 0,75,76
 292 238 292 238 223 238 c 0,77,78
 176 238 176 238 135 254 c 0,79,80
 95 270 95 270 65 298 c 0,81,82
 34 326 34 326 17 364 c 128,-1,83
 0 402 0 402 0 447 c 128,-1,84
 0 492 0 492 18 531 c 0,85,86
 36 569 36 569 67 598 c 0,87,88
 98 626 98 626 139 642 c 0,89,90
 181 658 181 658 229 658 c 0,45,46
EndSplineSet
Validated: 1
EndChar

StartChar: uniE904
Encoding: 59652 59652 60
Width: 1024
GlyphClass: 1
Flags: W
LayerCount: 2
Fore
SplineSet
429 770 m 128,-1,1
 453 805 453 805 471.5 842.5 c 128,-1,2
 490 880 490 880 512 916 c 1,3,4
 533 882 533 882 550.5 845 c 128,-1,5
 568 808 568 808 591 775 c 0,6,7
 616 738 616 738 644 704 c 128,-1,8
 672 670 672 670 703 639 c 128,-1,9
 734 608 734 608 768 580 c 128,-1,10
 802 552 802 552 839 528 c 0,11,12
 872 504 872 504 909 486.5 c 128,-1,13
 946 469 946 469 980 448 c 1,14,15
 945 427 945 427 908.5 409.5 c 128,-1,16
 872 392 872 392 838 368 c 0,17,18
 801 343 801 343 767 314.5 c 128,-1,19
 733 286 733 286 701.5 254.5 c 128,-1,20
 670 223 670 223 641.5 188.5 c 128,-1,21
 613 154 613 154 588 117 c 0,22,23
 566 84 566 84 549 48.5 c 128,-1,24
 532 13 532 13 512 -20 c 1,25,26
 491 14 491 14 473 51 c 128,-1,27
 455 88 455 88 432 121 c 0,28,29
 408 158 408 158 379.5 192 c 128,-1,30
 351 226 351 226 320 257 c 128,-1,31
 289 288 289 288 255 316 c 128,-1,32
 221 344 221 344 185 368 c 0,33,34
 152 392 152 392 115 409.5 c 128,-1,35
 78 427 78 427 44 448 c 1,36,37
 80 470 80 470 117.5 488 c 128,-1,38
 155 506 155 506 190 531 c 0,39,40
 225 555 225 555 257.5 582 c 128,-1,41
 290 609 290 609 320 639.5 c 128,-1,42
 350 670 350 670 377.5 702.5 c 128,-1,0
 405 735 405 735 429 770 c 128,-1,1
236 448 m 1,43,44
 276 420 276 420 314 388.5 c 128,-1,45
 352 357 352 357 386.5 322.5 c 128,-1,46
 421 288 421 288 452.5 250.5 c 128,-1,47
 484 213 484 213 512 172 c 1,48,49
 540 212 540 212 571.5 250 c 128,-1,50
 603 288 603 288 637.5 322.5 c 128,-1,51
 672 357 672 357 709.5 388.5 c 128,-1,52
 747 420 747 420 788 448 c 1,53,54
 747 476 747 476 709.5 507.5 c 128,-1,55
 672 539 672 539 637.5 573.5 c 128,-1,56
 603 608 603 608 571.5 646 c 128,-1,57
 540 684 540 684 512 724 c 1,58,59
 484 684 484 684 452.5 646 c 128,-1,60
 421 608 421 608 386 573.5 c 128,-1,61
 351 539 351 539 313.5 507.5 c 128,-1,62
 276 476 276 476 236 448 c 1,43,44
EndSplineSet
Validated: 1
EndChar

StartChar: uniE905
Encoding: 59653 59653 61
Width: 1024
GlyphClass: 1
Flags: W
LayerCount: 2
Fore
SplineSet
473 957 m 0,0,1
 522 960 522 960 572 954.5 c 128,-1,2
 622 949 622 949 669 933 c 0,3,4
 713 919 713 919 754.5 896.5 c 128,-1,5
 796 874 796 874 832 844.5 c 128,-1,6
 868 815 868 815 898.5 779 c 128,-1,7
 929 743 929 743 952 702 c 0,8,9
 985 646 985 646 1002 583.5 c 128,-1,10
 1019 521 1019 521 1020 456 c 0,11,12
 1021 397 1021 397 1008 338.5 c 128,-1,13
 995 280 995 280 970 227 c 0,14,15
 951 187 951 187 925.5 151 c 128,-1,16
 900 115 900 115 868.5 84.5 c 128,-1,17
 837 54 837 54 801 28.5 c 128,-1,18
 765 3 765 3 725 -15 c 0,19,20
 672 -40 672 -40 614 -52 c 128,-1,21
 556 -64 556 -64 498 -62 c 0,22,23
 435 -60 435 -60 374 -42.5 c 128,-1,24
 313 -25 313 -25 258 6 c 0,25,26
 216 30 216 30 179.5 62.5 c 128,-1,27
 143 95 143 95 113 133 c 128,-1,28
 83 171 83 171 60.5 214.5 c 128,-1,29
 38 258 38 258 24 305 c 0,30,31
 5 370 5 370 4 439.5 c 128,-1,32
 3 509 3 509 20 576 c 0,33,34
 30 616 30 616 47 653.5 c 128,-1,35
 64 691 64 691 86.5 726 c 128,-1,36
 109 761 109 761 136.5 791.5 c 128,-1,37
 164 822 164 822 196 848 c 0,38,39
 255 895 255 895 326.5 923 c 128,-1,40
 398 951 398 951 473 957 c 0,0,1
254 790 m 0,41,42
 209 757 209 757 173.5 714 c 128,-1,43
 138 671 138 671 115 621 c 0,44,45
 93 574 93 574 83 522.5 c 128,-1,46
 73 471 73 471 77 420 c 0,47,48
 80 367 80 367 96.5 315.5 c 128,-1,49
 113 264 113 264 142 220 c 0,50,51
 171 174 171 174 210.5 136 c 128,-1,52
 250 98 250 98 297 71 c 0,53,54
 354 36 354 36 420 18.5 c 128,-1,55
 486 1 486 1 553 1 c 1,56,57
 538 5 538 5 523.5 10.5 c 128,-1,58
 509 16 509 16 495 23 c 0,59,60
 436 49 436 49 385 89.5 c 128,-1,61
 334 130 334 130 296 182 c 0,62,63
 264 227 264 227 243 278.5 c 128,-1,64
 222 330 222 330 214 384 c 0,65,66
 206 446 206 446 214.5 508 c 128,-1,67
 223 570 223 570 249 627 c 0,68,69
 279 693 279 693 329.5 748 c 128,-1,70
 380 803 380 803 443 840 c 0,71,72
 469 855 469 855 497 867.5 c 128,-1,73
 525 880 525 880 554 889 c 1,74,75
 514 889 514 889 474 882.5 c 128,-1,76
 434 876 434 876 396 863.5 c 128,-1,77
 358 851 358 851 322 832.5 c 128,-1,78
 286 814 286 814 254 790 c 0,41,42
EndSplineSet
Validated: 33
EndChar

StartChar: uniE906
Encoding: 59654 59654 62
Width: 1024
GlyphClass: 1
Flags: W
LayerCount: 2
Fore
SplineSet
473 956 m 0,0,1
 517 960 517 960 561 955.5 c 128,-1,2
 605 951 605 951 647.5 939.5 c 128,-1,3
 690 928 690 928 730 909 c 128,-1,4
 770 890 770 890 806 865 c 0,5,6
 845 837 845 837 878.5 802.5 c 128,-1,7
 912 768 912 768 938.5 727.5 c 128,-1,8
 965 687 965 687 983.5 642.5 c 128,-1,9
 1002 598 1002 598 1012 551 c 0,10,11
 1026 482 1026 482 1021 411.5 c 128,-1,12
 1016 341 1016 341 992 275 c 0,13,14
 974 225 974 225 945.5 179 c 128,-1,15
 917 133 917 133 880 94 c 0,16,17
 840 53 840 53 792 21.5 c 128,-1,18
 744 -10 744 -10 691 -30 c 0,19,20
 621 -56 621 -56 546 -61 c 128,-1,21
 471 -66 471 -66 399 -49 c 0,22,23
 353 -39 353 -39 309.5 -20 c 128,-1,24
 266 -1 266 -1 227 25 c 0,25,26
 180 57 180 57 140.5 98.5 c 128,-1,27
 101 140 101 140 73 189 c 0,28,29
 44 237 44 237 26.5 291 c 128,-1,30
 9 345 9 345 4 401 c 0,31,32
 -2 464 -2 464 8 527.5 c 128,-1,33
 18 591 18 591 43 649 c 0,34,35
 66 703 66 703 101.5 750.5 c 128,-1,36
 137 798 137 798 181 836 c 0,37,38
 212 862 212 862 246.5 883 c 128,-1,39
 281 904 281 904 318 919.5 c 128,-1,40
 355 935 355 935 394 944.5 c 128,-1,41
 433 954 433 954 473 956 c 0,0,1
393 886 m 1,42,43
 387 866 387 866 377.5 847 c 128,-1,44
 368 828 368 828 353 813 c 0,45,46
 336 795 336 795 314 783 c 128,-1,47
 292 771 292 771 268 766 c 0,48,49
 249 763 249 763 229.5 764 c 128,-1,50
 210 765 210 765 191 770 c 1,51,52
 195 753 195 753 197.5 735.5 c 128,-1,53
 200 718 200 718 197 701 c 0,54,55
 193 669 193 669 176.5 641 c 128,-1,56
 160 613 160 613 134 594 c 0,57,58
 121 583 121 583 105 576.5 c 128,-1,59
 89 570 89 570 73 565 c 1,60,61
 95 545 95 545 108.5 517 c 128,-1,62
 122 489 122 489 124 458 c 0,63,64
 125 434 125 434 119.5 411 c 128,-1,65
 114 388 114 388 102 367 c 0,66,67
 96 357 96 357 88 348 c 2,68,-1
 72 330 l 1,69,70
 78 328 78 328 84 326.5 c 128,-1,71
 90 325 90 325 96 322 c 0,72,73
 120 313 120 313 140 296.5 c 128,-1,74
 160 280 160 280 173 258 c 0,75,76
 188 234 188 234 193.5 205.5 c 128,-1,77
 199 177 199 177 194 149 c 0,78,79
 193 143 193 143 191.5 137.5 c 128,-1,80
 190 132 190 132 189 126 c 1,81,82
 200 128 200 128 211 130.5 c 128,-1,83
 222 133 222 133 233 133 c 0,84,85
 260 134 260 134 287 125.5 c 128,-1,86
 314 117 314 117 336 100 c 128,-1,87
 358 83 358 83 373 59 c 128,-1,88
 388 35 388 35 395 8 c 1,89,90
 413 29 413 29 438 42 c 128,-1,91
 463 55 463 55 490 59 c 0,92,93
 513 63 513 63 536 59 c 128,-1,94
 559 55 559 55 580 46 c 0,95,96
 595 39 595 39 607.5 29 c 128,-1,97
 620 19 620 19 631 7 c 1,98,99
 635 19 635 19 638.5 31 c 128,-1,100
 642 43 642 43 649 54 c 0,101,102
 666 86 666 86 698 107.5 c 128,-1,103
 730 129 730 129 767 133 c 0,104,105
 784 136 784 136 801.5 133.5 c 128,-1,106
 819 131 819 131 836 126 c 1,107,108
 829 149 829 149 828 173.5 c 128,-1,109
 827 198 827 198 835 221 c 0,110,111
 845 256 845 256 870.5 283 c 128,-1,112
 896 310 896 310 930 323 c 0,113,114
 936 325 936 325 942 326.5 c 128,-1,115
 948 328 948 328 953 331 c 1,116,117
 938 344 938 344 926.5 361 c 128,-1,118
 915 378 915 378 908 397 c 0,119,120
 897 430 897 430 900.5 465.5 c 128,-1,121
 904 501 904 501 922 530 c 0,122,123
 928 541 928 541 936 549.5 c 128,-1,124
 944 558 944 558 952 567 c 1,125,126
 948 569 948 569 943.5 570 c 128,-1,127
 939 571 939 571 934 572 c 0,128,129
 898 583 898 583 871 611 c 128,-1,130
 844 639 844 639 833 675 c 0,131,132
 828 690 828 690 827 706.5 c 128,-1,133
 826 723 826 723 828 739 c 0,134,135
 829 747 829 747 831 755 c 128,-1,136
 833 763 833 763 834 771 c 1,137,138
 823 769 823 769 812.5 766.5 c 128,-1,139
 802 764 802 764 791 764 c 0,140,141
 764 763 764 763 738 771 c 128,-1,142
 712 779 712 779 690 795 c 0,143,144
 674 806 674 806 662 821.5 c 128,-1,145
 650 837 650 837 641 855 c 0,146,147
 637 863 637 863 634.5 871 c 128,-1,148
 632 879 632 879 629 887 c 1,149,150
 613 870 613 870 591.5 857.5 c 128,-1,151
 570 845 570 845 546 840 c 0,152,153
 515 833 515 833 482.5 839.5 c 128,-1,154
 450 846 450 846 423 864 c 0,155,156
 415 869 415 869 408.5 875 c 128,-1,157
 402 881 402 881 395 887 c 1,158,-1
 394 887 l 1,159,-1
 393 886 l 1,42,43
471 758 m 0,160,161
 508 764 508 764 544.5 759 c 128,-1,162
 581 754 581 754 615 742 c 0,163,164
 657 727 657 727 693.5 701 c 128,-1,165
 730 675 730 675 756 639 c 0,166,167
 778 611 778 611 792.5 578.5 c 128,-1,168
 807 546 807 546 814 512 c 0,169,170
 817 499 817 499 818.5 485.5 c 128,-1,171
 820 472 820 472 821 458 c 0,172,173
 822 401 822 401 802 346.5 c 128,-1,174
 782 292 782 292 745 248 c 0,175,176
 725 224 725 224 700.5 205.5 c 128,-1,177
 676 187 676 187 648 173 c 0,178,179
 607 153 607 153 561.5 144.5 c 128,-1,180
 516 136 516 136 470 143 c 0,181,182
 423 149 423 149 379 169.5 c 128,-1,183
 335 190 335 190 300 222 c 0,184,185
 258 261 258 261 232.5 313.5 c 128,-1,186
 207 366 207 366 201 422 c 0,187,188
 196 477 196 477 210.5 530.5 c 128,-1,189
 225 584 225 584 256 628 c 0,190,191
 293 682 293 682 350 716 c 128,-1,192
 407 750 407 750 471 758 c 0,160,161
477 780 m 0,193,194
 419 776 419 776 365.5 750 c 128,-1,195
 312 724 312 724 272 682 c 0,196,197
 230 639 230 639 205.5 583.5 c 128,-1,198
 181 528 181 528 180 468 c 0,199,200
 179 459 179 459 179 450 c 128,-1,201
 179 441 179 441 180 432 c 0,202,203
 180 410 180 410 184.5 387 c 128,-1,204
 189 364 189 364 196 343 c 0,205,206
 212 295 212 295 243 254 c 128,-1,207
 274 213 274 213 314 183 c 0,208,209
 356 152 356 152 406.5 135 c 128,-1,210
 457 118 457 118 510 120 c 0,211,212
 530 120 530 120 550 121.5 c 128,-1,213
 570 123 570 123 590 128 c 0,214,215
 653 143 653 143 706.5 183 c 128,-1,216
 760 223 760 223 794 278 c 0,217,218
 812 307 812 307 823 339 c 128,-1,219
 834 371 834 371 839 404 c 0,220,221
 843 439 843 439 841 474 c 128,-1,222
 839 509 839 509 829 543 c 0,223,224
 819 578 819 578 801.5 610 c 128,-1,225
 784 642 784 642 760 669 c 2,226,-1
 738 691 l 2,227,228
 727 702 727 702 715 712 c 0,229,230
 691 731 691 731 663.5 745 c 128,-1,231
 636 759 636 759 607 768 c 0,232,233
 576 778 576 778 543 780.5 c 128,-1,234
 510 783 510 783 477 780 c 0,193,194
EndSplineSet
Validated: 41
EndChar

StartChar: uniE907
Encoding: 59655 59655 63
Width: 872
GlyphClass: 1
Flags: W
LayerCount: 2
Fore
SplineSet
651 880 m 0,0,1
 662 881 662 881 672 884.5 c 128,-1,2
 682 888 682 888 693 890 c 1,3,4
 693 886 693 886 693.5 881.5 c 128,-1,5
 694 877 694 877 695 873 c 0,6,7
 695 856 695 856 697.5 839 c 128,-1,8
 700 822 700 822 701 805 c 0,9,10
 705 779 705 779 709.5 753 c 128,-1,11
 714 727 714 727 720 701 c 2,12,-1
 724 681 l 2,13,14
 726 671 726 671 729 661 c 128,-1,15
 732 651 732 651 734 640 c 128,-1,16
 736 629 736 629 740 619 c 0,17,18
 743 607 743 607 747 595 c 2,19,-1
 755 571 l 2,20,21
 758 564 758 564 760 557 c 128,-1,22
 762 550 762 550 765 543 c 0,23,24
 768 530 768 530 773.5 518.5 c 128,-1,25
 779 507 779 507 784 494 c 0,26,27
 787 488 787 488 790 481.5 c 128,-1,28
 793 475 793 475 795 469 c 0,29,30
 799 459 799 459 804 450.5 c 128,-1,31
 809 442 809 442 813 433 c 0,32,33
 823 415 823 415 829.5 404 c 128,-1,34
 836 393 836 393 843 384 c 0,35,36
 847 377 847 377 851.5 370.5 c 128,-1,37
 856 364 856 364 862 358 c 0,38,39
 864 355 864 355 867.5 351.5 c 128,-1,40
 871 348 871 348 871 343 c 1,41,42
 865 341 865 341 859 338 c 2,43,-1
 847 332 l 2,44,45
 829 326 829 326 811 318.5 c 128,-1,46
 793 311 793 311 775 303 c 0,47,48
 751 292 751 292 728 279.5 c 128,-1,49
 705 267 705 267 682 253 c 0,50,51
 649 233 649 233 617 209.5 c 128,-1,52
 585 186 585 186 556 159 c 0,53,54
 537 142 537 142 519.5 123.5 c 128,-1,55
 502 105 502 105 486 86 c 0,56,57
 480 78 480 78 474.5 70.5 c 128,-1,58
 469 63 469 63 465 55 c 0,59,60
 460 47 460 47 454 39 c 128,-1,61
 448 31 448 31 443 23 c 0,62,63
 440 19 440 19 437.5 14.5 c 128,-1,64
 435 10 435 10 432 6 c 1,65,66
 429 10 429 10 426 14.5 c 128,-1,67
 423 19 423 19 421 24 c 0,68,69
 400 58 400 58 375 89 c 128,-1,70
 350 120 350 120 321 148 c 0,71,72
 287 180 287 180 249 208 c 128,-1,73
 211 236 211 236 171 260 c 0,74,75
 150 272 150 272 129 283 c 128,-1,76
 108 294 108 294 86 305 c 0,77,78
 81 308 81 308 75 310 c 128,-1,79
 69 312 69 312 63 315 c 0,80,81
 48 323 48 323 32 328.5 c 128,-1,82
 16 334 16 334 1 341 c 1,83,84
 5 349 5 349 10 356 c 2,85,-1
 20 370 l 2,86,87
 31 385 31 385 40.5 400.5 c 128,-1,88
 50 416 50 416 59 432 c 0,89,90
 81 474 81 474 98.5 518 c 128,-1,91
 116 562 116 562 129 608 c 0,92,93
 143 654 143 654 152 701 c 128,-1,94
 161 748 161 748 168 795 c 0,95,96
 170 813 170 813 171.5 831 c 128,-1,97
 173 849 173 849 174 867 c 0,98,99
 174 872 174 872 174.5 877 c 128,-1,100
 175 882 175 882 176 887 c 1,101,102
 181 887 181 887 186 886 c 2,103,-1
 196 884 l 2,104,105
 213 879 213 879 230 875.5 c 128,-1,106
 247 872 247 872 264 869 c 0,107,108
 291 865 291 865 318.5 861 c 128,-1,109
 346 857 346 857 374 856 c 0,110,111
 392 855 392 855 409.5 854 c 128,-1,112
 427 853 427 853 445 853 c 0,113,114
 462 853 462 853 478.5 854 c 128,-1,115
 495 855 495 855 512 856 c 0,116,117
 528 858 528 858 543.5 859.5 c 128,-1,118
 559 861 559 861 575 864 c 0,119,120
 588 866 588 866 592.5 866.5 c 128,-1,121
 597 867 597 867 598 867 c 0,122,123
 612 870 612 870 625 873 c 128,-1,124
 638 876 638 876 651 880 c 0,0,1
551 813 m 0,125,126
 535 807 535 807 518 803 c 128,-1,127
 501 799 501 799 484 796 c 0,128,129
 471 794 471 794 457.5 793 c 128,-1,130
 444 792 444 792 431 792 c 0,131,132
 405 792 405 792 379 796 c 128,-1,133
 353 800 353 800 329 810 c 1,134,135
 328 807 328 807 328.5 804 c 128,-1,136
 329 801 329 801 329 798 c 0,137,138
 331 785 331 785 331.5 772.5 c 128,-1,139
 332 760 332 760 331 748 c 0,140,141
 329 720 329 720 322 693.5 c 128,-1,142
 315 667 315 667 305 641 c 0,143,144
 303 635 303 635 300 628.5 c 128,-1,145
 297 622 297 622 296 615 c 0,146,147
 272 560 272 560 240 510 c 128,-1,148
 208 460 208 460 171 413 c 0,149,150
 168 408 168 408 164 404 c 128,-1,151
 160 400 160 400 157 395 c 1,152,153
 163 395 163 395 168 396.5 c 128,-1,154
 173 398 173 398 178 399 c 0,155,156
 205 406 205 406 232.5 411 c 128,-1,157
 260 416 260 416 288 419 c 0,158,159
 307 421 307 421 326 421 c 2,160,-1
 365 421 l 2,161,162
 386 421 386 421 407.5 418 c 128,-1,163
 429 415 429 415 450 410 c 0,164,165
 451 408 451 408 450.5 406 c 128,-1,166
 450 404 450 404 450 402 c 0,167,168
 443 379 443 379 438.5 356 c 128,-1,169
 434 333 434 333 432 310 c 0,170,171
 428 282 428 282 428 253.5 c 128,-1,172
 428 225 428 225 429 196 c 128,-1,173
 430 167 430 167 433 138 c 128,-1,174
 436 109 436 109 442 81 c 1,175,176
 444 91 444 91 445.5 101 c 128,-1,177
 447 111 447 111 450 121 c 0,178,179
 455 146 455 146 463.5 171 c 128,-1,180
 472 196 472 196 482 220 c 0,181,182
 499 260 499 260 519.5 299 c 128,-1,183
 540 338 540 338 562 375 c 0,184,185
 586 415 586 415 612.5 454 c 128,-1,186
 639 493 639 493 667 530 c 0,187,188
 670 533 670 533 669.5 536.5 c 128,-1,189
 669 540 669 540 669 543 c 1,190,191
 667 543 667 543 665 542.5 c 128,-1,192
 663 542 663 542 660 542 c 0,193,194
 648 539 648 539 636 537 c 2,195,-1
 612 533 l 2,196,197
 604 533 604 533 595.5 531.5 c 128,-1,198
 587 530 587 530 578 530 c 1,199,200
 579 529 579 529 580 529 c 128,-1,201
 581 529 581 529 583 528 c 1,202,203
 578 529 578 529 573 529 c 128,-1,204
 568 529 568 529 563 528 c 0,205,206
 550 526 550 526 537 526.5 c 128,-1,207
 524 527 524 527 511 527 c 128,-1,208
 498 527 498 527 485.5 526.5 c 128,-1,209
 473 526 473 526 460 528 c 0,210,211
 449 528 449 528 438.5 530.5 c 128,-1,212
 428 533 428 533 418 534 c 1,213,214
 417 544 417 544 419 554.5 c 128,-1,215
 421 565 421 565 423 575 c 0,216,217
 436 638 436 638 468 695 c 128,-1,218
 500 752 500 752 544 799 c 0,219,220
 547 803 547 803 551.5 806 c 128,-1,221
 556 809 556 809 558 813 c 0,222,223
 557 814 557 814 555 813.5 c 128,-1,224
 553 813 553 813 551 813 c 0,125,126
EndSplineSet
Validated: 1
EndChar

StartChar: uniE908
Encoding: 59656 59656 64
Width: 1024
GlyphClass: 1
Flags: W
LayerCount: 2
Fore
SplineSet
512 960 m 128,-1,1
 618 960 618 960 711.5 920 c 128,-1,2
 805 880 805 880 874.5 810.5 c 128,-1,3
 944 741 944 741 984 647.5 c 128,-1,4
 1024 554 1024 554 1024 448 c 128,-1,5
 1024 342 1024 342 984 248.5 c 128,-1,6
 944 155 944 155 874.5 85.5 c 128,-1,7
 805 16 805 16 711.5 -24 c 128,-1,8
 618 -64 618 -64 512 -64 c 128,-1,9
 406 -64 406 -64 312.5 -24 c 128,-1,10
 219 16 219 16 149.5 85.5 c 128,-1,11
 80 155 80 155 40 248.5 c 128,-1,12
 0 342 0 342 0 448 c 128,-1,13
 0 554 0 554 40 647.5 c 128,-1,14
 80 741 80 741 149.5 810.5 c 128,-1,15
 219 880 219 880 312.5 920 c 128,-1,0
 406 960 406 960 512 960 c 128,-1,1
511 909 m 1,16,-1
 509 899 l 1,17,-1
 507 889 l 2,18,19
 505 867 505 867 503.5 844.5 c 128,-1,20
 502 822 502 822 501 800 c 0,21,22
 498 749 498 749 495 698.5 c 128,-1,23
 492 648 492 648 487 597 c 0,24,25
 485 568 485 568 481.5 538 c 128,-1,26
 478 508 478 508 474 479 c 0,27,28
 470 453 470 453 464.5 426.5 c 128,-1,29
 459 400 459 400 451 375 c 1,30,31
 440 374 440 374 429.5 373 c 128,-1,32
 419 372 419 372 408 371 c 1,33,34
 404 382 404 382 401.5 393.5 c 128,-1,35
 399 405 399 405 397 416 c 0,36,37
 392 443 392 443 388.5 470.5 c 128,-1,38
 385 498 385 498 382 525 c 0,39,40
 376 582 376 582 370.5 639.5 c 128,-1,41
 365 697 365 697 360 754 c 0,42,43
 359 763 359 763 358 771.5 c 128,-1,44
 357 780 357 780 356 788 c 1,45,46
 355 784 355 784 354.5 780.5 c 128,-1,47
 354 777 354 777 353 773 c 0,48,49
 351 761 351 761 350 748.5 c 128,-1,50
 349 736 349 736 348 724 c 0,51,52
 341 657 341 657 334 589.5 c 128,-1,53
 327 522 327 522 316 455 c 0,54,55
 314 439 314 439 311 422.5 c 128,-1,56
 308 406 308 406 304 390 c 0,57,58
 302 380 302 380 299 369.5 c 128,-1,59
 296 359 296 359 293 349 c 1,60,61
 283 346 283 346 273 342.5 c 128,-1,62
 263 339 263 339 253 335 c 1,63,64
 249 346 249 346 245.5 357 c 128,-1,65
 242 368 242 368 239 379 c 0,66,67
 233 404 233 404 228.5 429.5 c 128,-1,68
 224 455 224 455 220 481 c 0,69,70
 216 514 216 514 212 546 c 128,-1,71
 208 578 208 578 204 611 c 0,72,73
 203 619 203 619 201.5 627.5 c 128,-1,74
 200 636 200 636 198 644 c 1,75,-1
 197 644 l 1,76,-1
 195 636 l 2,77,78
 194 632 194 632 194 628 c 0,79,80
 191 605 191 605 188.5 583 c 128,-1,81
 186 561 186 561 184 538 c 0,82,83
 177 469 177 469 171.5 400 c 128,-1,84
 166 331 166 331 161 262 c 1,85,86
 199 247 199 247 234 226 c 128,-1,87
 269 205 269 205 299 178 c 0,88,89
 327 154 327 154 356 127.5 c 128,-1,90
 385 101 385 101 413 72 c 128,-1,91
 441 43 441 43 466 12.5 c 128,-1,92
 491 -18 491 -18 510 -49 c 1,93,-1
 510 -50 l 2,94,95
 511 -51 511 -51 512 -50 c 0,96,97
 533 -7 533 -7 558.5 25 c 128,-1,98
 584 57 584 57 619 90 c 0,99,100
 650 119 650 119 681.5 145.5 c 128,-1,101
 713 172 713 172 746 195 c 0,102,103
 770 213 770 213 801.5 232 c 128,-1,104
 833 251 833 251 861 262 c 1,105,106
 857 311 857 311 853 361 c 128,-1,107
 849 411 849 411 845 460 c 0,108,109
 845 463 845 463 844.5 466 c 128,-1,110
 844 469 844 469 844 472 c 1,111,-1
 844 471 l 1,112,113
 843 491 843 491 841 511.5 c 128,-1,114
 839 532 839 532 837 553 c 2,115,-1
 833 591 l 2,116,117
 831 610 831 610 828 628 c 0,118,119
 828 633 828 633 827 637 c 2,120,-1
 825 645 l 1,121,122
 822 636 822 636 820.5 626 c 128,-1,123
 819 616 819 616 818 607 c 0,124,125
 812 565 812 565 807 523.5 c 128,-1,126
 802 482 802 482 795 440 c 0,127,128
 792 421 792 421 788 402 c 128,-1,129
 784 383 784 383 779 364 c 0,130,131
 777 357 777 357 774.5 349.5 c 128,-1,132
 772 342 772 342 769 335 c 1,133,134
 759 339 759 339 749.5 342.5 c 128,-1,135
 740 346 740 346 729 349 c 1,136,137
 724 365 724 365 720 381.5 c 128,-1,138
 716 398 716 398 712 415 c 0,139,140
 708 441 708 441 704 466.5 c 128,-1,141
 700 492 700 492 697 518 c 0,142,143
 689 574 689 574 683.5 630.5 c 128,-1,144
 678 687 678 687 672 743 c 0,145,146
 671 751 671 751 670.5 759.5 c 128,-1,147
 670 768 670 768 668 777 c 0,148,149
 668 779 668 779 667.5 782 c 128,-1,150
 667 785 667 785 666 788 c 1,151,152
 664 775 664 775 663 763 c 128,-1,153
 662 751 662 751 661 738 c 0,154,155
 655 678 655 678 649.5 618 c 128,-1,156
 644 558 644 558 637 498 c 0,157,158
 635 482 635 482 633 466.5 c 128,-1,159
 631 451 631 451 628 436 c 0,160,161
 625 420 625 420 622 403.5 c 128,-1,162
 619 387 619 387 614 371 c 1,163,164
 603 373 603 373 592 373.5 c 128,-1,165
 581 374 581 374 571 375 c 1,166,167
 563 401 563 401 557.5 427.5 c 128,-1,168
 552 454 552 454 548 480 c 0,169,170
 540 537 540 537 535 594 c 128,-1,171
 530 651 530 651 527 708 c 0,172,173
 524 743 524 743 522 777.5 c 128,-1,174
 520 812 520 812 518 847 c 2,175,-1
 516 873 l 2,176,177
 515 886 515 886 513 899 c 0,178,179
 513 902 513 902 512.5 904.5 c 128,-1,180
 512 907 512 907 511 909 c 1,181,-1
 511 909 l 1,16,-1
EndSplineSet
Validated: 5
EndChar

StartChar: uniE909
Encoding: 59657 59657 65
Width: 1024
GlyphClass: 1
Flags: W
LayerCount: 2
Fore
SplineSet
512 960 m 128,-1,1
 618 960 618 960 711.5 920 c 128,-1,2
 805 880 805 880 874.5 810.5 c 128,-1,3
 944 741 944 741 984 647.5 c 128,-1,4
 1024 554 1024 554 1024 448 c 128,-1,5
 1024 342 1024 342 984 248.5 c 128,-1,6
 944 155 944 155 874.5 85.5 c 128,-1,7
 805 16 805 16 711.5 -24 c 128,-1,8
 618 -64 618 -64 512 -64 c 128,-1,9
 406 -64 406 -64 312.5 -24 c 128,-1,10
 219 16 219 16 149.5 85.5 c 128,-1,11
 80 155 80 155 40 248.5 c 128,-1,12
 0 342 0 342 0 448 c 128,-1,13
 0 554 0 554 40 647.5 c 128,-1,14
 80 741 80 741 149.5 810.5 c 128,-1,15
 219 880 219 880 312.5 920 c 128,-1,0
 406 960 406 960 512 960 c 128,-1,1
519 515 m 1,16,17
 461 512 461 512 410 504 c 128,-1,18
 359 496 359 496 311.5 481.5 c 128,-1,19
 264 467 264 467 217 445.5 c 128,-1,20
 170 424 170 424 119 394 c 1,21,22
 165 358 165 358 213.5 317.5 c 128,-1,23
 262 277 262 277 305 238 c 0,24,25
 360 189 360 189 394.5 148.5 c 128,-1,26
 429 108 429 108 461 69 c 0,27,28
 474 53 474 53 485.5 37 c 128,-1,29
 497 21 497 21 514 4 c 1,30,31
 553 61 553 61 597.5 114.5 c 128,-1,32
 642 168 642 168 692 216.5 c 128,-1,33
 742 265 742 265 795.5 309.5 c 128,-1,34
 849 354 849 354 905 395 c 1,35,36
 838 434 838 434 765.5 462.5 c 128,-1,37
 693 491 693 491 616 506 c 0,38,39
 576 512 576 512 576 511.5 c 128,-1,40
 576 511 576 511 519 515 c 1,16,17
493 709 m 0,41,42
 478 707 478 707 463.5 705.5 c 128,-1,43
 449 704 449 704 435 701 c 0,44,45
 396 691 396 691 360.5 673 c 128,-1,46
 325 655 325 655 295.5 629 c 128,-1,47
 266 603 266 603 243.5 570 c 128,-1,48
 221 537 221 537 208 499 c 1,49,50
 246 512 246 512 284.5 524.5 c 128,-1,51
 323 537 323 537 362.5 546.5 c 128,-1,52
 402 556 402 556 441.5 561 c 128,-1,53
 481 566 481 566 522 564 c 0,54,55
 599 566 599 566 671.5 544 c 128,-1,56
 744 522 744 522 815 499 c 1,57,58
 802 538 802 538 779 572 c 128,-1,59
 756 606 756 606 725 632.5 c 128,-1,60
 694 659 694 659 656.5 677 c 128,-1,61
 619 695 619 695 579 703 c 0,62,63
 543 709 543 709 543 708.5 c 128,-1,64
 543 708 543 708 493 709 c 0,41,42
EndSplineSet
Validated: 33
EndChar

StartChar: uniE90A
Encoding: 59658 59658 66
Width: 1024
GlyphClass: 1
Flags: W
LayerCount: 2
Fore
SplineSet
512 960 m 128,-1,1
 618 960 618 960 711.5 920 c 128,-1,2
 805 880 805 880 874.5 810.5 c 128,-1,3
 944 741 944 741 984 647.5 c 128,-1,4
 1024 554 1024 554 1024 448 c 128,-1,5
 1024 342 1024 342 984 248.5 c 128,-1,6
 944 155 944 155 874.5 85.5 c 128,-1,7
 805 16 805 16 711.5 -24 c 128,-1,8
 618 -64 618 -64 512 -64 c 128,-1,9
 406 -64 406 -64 313 -24 c 128,-1,10
 220 16 220 16 150.5 85.5 c 128,-1,11
 81 155 81 155 40.5 248.5 c 128,-1,12
 0 342 0 342 0 448 c 128,-1,13
 0 554 0 554 40.5 647.5 c 128,-1,14
 81 741 81 741 150.5 810.5 c 128,-1,15
 220 880 220 880 313 920 c 128,-1,0
 406 960 406 960 512 960 c 128,-1,1
510 887 m 1,16,17
 497 884 497 884 488 874 c 128,-1,18
 479 864 479 864 470 855 c 0,19,20
 439 820 439 820 404 789.5 c 128,-1,21
 369 759 369 759 331 731.5 c 128,-1,22
 293 704 293 704 254 678.5 c 128,-1,23
 215 653 215 653 175 630 c 0,24,25
 152 620 152 620 149 595.5 c 128,-1,26
 146 571 146 571 155 552 c 1,27,28
 206 539 206 539 258.5 541 c 128,-1,29
 311 543 311 543 362 529 c 1,30,31
 385 515 385 515 387 488.5 c 128,-1,32
 389 462 389 462 383 440 c 1,33,34
 367 418 367 418 342.5 403.5 c 128,-1,35
 318 389 318 389 308 363 c 1,36,37
 320 339 320 339 336 316 c 128,-1,38
 352 293 352 293 366 270 c 1,39,40
 360 248 360 248 356.5 223.5 c 128,-1,41
 353 199 353 199 375 183 c 1,42,43
 374 191 374 191 372 206 c 128,-1,44
 370 221 370 221 373 225 c 0,45,46
 375 229 375 229 381 232.5 c 128,-1,47
 387 236 387 236 391 233 c 0,48,49
 394 225 394 225 407 194 c 128,-1,50
 420 163 420 163 429 139 c 1,51,52
 424 141 424 141 416.5 143 c 128,-1,53
 409 145 409 145 401 148 c 128,-1,54
 393 151 393 151 384.5 155.5 c 128,-1,55
 376 160 376 160 370 162 c 1,56,57
 380 136 380 136 400 119 c 128,-1,58
 420 102 420 102 442 88 c 1,59,60
 441 79 441 79 439 65 c 128,-1,61
 437 51 437 51 436 42 c 1,62,63
 413 44 413 44 396 55.5 c 128,-1,64
 379 67 379 67 410 100 c 1,65,66
 403 93 403 93 391.5 83 c 128,-1,67
 380 73 380 73 375 65 c 0,68,69
 357 40 357 40 384.5 27 c 128,-1,70
 412 14 412 14 427 2 c 1,71,72
 439 14 439 14 455 24.5 c 128,-1,73
 471 35 471 35 470 55 c 0,74,75
 472 108 472 108 489 158.5 c 128,-1,76
 506 209 506 209 511 262 c 1,77,78
 515 209 515 209 529 154.5 c 128,-1,79
 543 100 543 100 551 55 c 0,80,81
 554 35 554 35 567.5 24.5 c 128,-1,82
 581 14 581 14 593 3 c 1,83,84
 611 12 611 12 636 26 c 128,-1,85
 661 40 661 40 658 47 c 0,86,87
 652 65 652 65 638 75.5 c 128,-1,88
 624 86 624 86 612 100 c 1,89,90
 639 68 639 68 625.5 55 c 128,-1,91
 612 42 612 42 589 42 c 0,92,93
 587 42 587 42 584.5 49.5 c 128,-1,94
 582 57 582 57 580 66 c 0,95,96
 579 72 579 72 578.5 78 c 128,-1,97
 578 84 578 84 576 90 c 1,98,99
 602 100 602 100 621.5 118 c 128,-1,100
 641 136 641 136 650 162 c 1,101,102
 639 158 639 158 620.5 151 c 128,-1,103
 602 144 602 144 591 139 c 1,104,105
 605 163 605 163 611.5 190.5 c 128,-1,106
 618 218 618 218 642 238 c 0,107,108
 651 244 651 244 649.5 210.5 c 128,-1,109
 648 177 648 177 653 186 c 0,110,111
 669 215 669 215 666.5 232 c 128,-1,112
 664 249 664 249 656 272 c 1,113,114
 670 295 670 295 685.5 317.5 c 128,-1,115
 701 340 701 340 713 364 c 1,116,117
 701 388 701 388 678 403 c 128,-1,118
 655 418 655 418 639 439 c 1,119,120
 632 462 632 462 634 488 c 128,-1,121
 636 514 636 514 658 529 c 1,122,123
 709 543 709 543 762.5 540.5 c 128,-1,124
 816 538 816 538 867 551 c 0,125,126
 872 553 872 553 874 557 c 128,-1,127
 876 561 876 561 877 567 c 0,128,129
 879 580 879 580 880 594.5 c 128,-1,130
 881 609 881 609 871 615 c 0,131,132
 804 656 804 656 737.5 698 c 128,-1,133
 671 740 671 740 613 794 c 0,134,135
 587 815 587 815 565.5 840 c 128,-1,136
 544 865 544 865 518 886 c 1,137,-1
 510 887 l 1,16,17
529 334 m 1,138,139
 546 312 546 312 563 290.5 c 128,-1,140
 580 269 580 269 598 248 c 1,141,142
 592 230 592 230 585.5 211.5 c 128,-1,143
 579 193 579 193 573 174 c 1,144,145
 557 212 557 212 545.5 252 c 128,-1,146
 534 292 534 292 529 334 c 1,138,139
492 334 m 1,147,148
 486 293 486 293 475.5 253 c 128,-1,149
 465 213 465 213 449 175 c 1,150,151
 442 192 442 192 435.5 210 c 128,-1,152
 429 228 429 228 422 246 c 1,153,-1
 449 279 l 2,154,155
 475 312 475 312 492 334 c 1,147,148
560 402 m 1,156,157
 584 395 584 395 607.5 385 c 128,-1,158
 631 375 631 375 653 362 c 1,159,160
 643 345 643 345 633 328.5 c 128,-1,161
 623 312 623 312 612 295 c 1,162,163
 596 320 596 320 583 347 c 128,-1,164
 570 374 570 374 560 402 c 1,156,157
461 402 m 1,165,166
 451 374 451 374 437 348.5 c 128,-1,167
 423 323 423 323 407 298 c 1,168,169
 397 315 397 315 387.5 330 c 128,-1,170
 378 345 378 345 368 362 c 1,171,172
 390 375 390 375 413.5 385 c 128,-1,173
 437 395 437 395 461 402 c 1,165,166
EndSplineSet
Validated: 33
EndChar

StartChar: uniE90B
Encoding: 59659 59659 67
Width: 1024
GlyphClass: 1
Flags: W
LayerCount: 2
Fore
SplineSet
512 960 m 128,-1,1
 618 960 618 960 711.5 920 c 128,-1,2
 805 880 805 880 874.5 810.5 c 128,-1,3
 944 741 944 741 984 647.5 c 128,-1,4
 1024 554 1024 554 1024 448 c 128,-1,5
 1024 342 1024 342 984 248.5 c 128,-1,6
 944 155 944 155 874.5 85.5 c 128,-1,7
 805 16 805 16 711.5 -24 c 128,-1,8
 618 -64 618 -64 512 -64 c 128,-1,9
 406 -64 406 -64 312.5 -24 c 128,-1,10
 219 16 219 16 149.5 85.5 c 128,-1,11
 80 155 80 155 40 248.5 c 128,-1,12
 0 342 0 342 0 448 c 128,-1,13
 0 554 0 554 40 647.5 c 128,-1,14
 80 741 80 741 149.5 810.5 c 128,-1,15
 219 880 219 880 312.5 920 c 128,-1,0
 406 960 406 960 512 960 c 128,-1,1
512 861 m 128,-1,17
 426 861 426 861 351 828.5 c 128,-1,18
 276 796 276 796 220 740 c 128,-1,19
 164 684 164 684 131.5 609 c 128,-1,20
 99 534 99 534 99 448 c 128,-1,21
 99 362 99 362 131.5 287 c 128,-1,22
 164 212 164 212 220 156 c 128,-1,23
 276 100 276 100 351 67.5 c 128,-1,24
 426 35 426 35 512 35 c 128,-1,25
 598 35 598 35 673 67.5 c 128,-1,26
 748 100 748 100 804 156 c 128,-1,27
 860 212 860 212 892.5 287 c 128,-1,28
 925 362 925 362 925 448 c 128,-1,29
 925 534 925 534 892.5 609 c 128,-1,30
 860 684 860 684 804 740 c 128,-1,31
 748 796 748 796 673 828.5 c 128,-1,16
 598 861 598 861 512 861 c 128,-1,17
519 801 m 1,32,-1
 584 796 l 1,33,-1
 582 787 l 1,34,35
 507 778 507 778 431 762 c 128,-1,36
 355 746 355 746 291 705 c 0,37,38
 274 695 274 695 286.5 683 c 128,-1,39
 299 671 299 671 311 672 c 0,40,41
 345 666 345 666 384.5 657.5 c 128,-1,42
 424 649 424 649 436 609 c 1,43,44
 425 574 425 574 396.5 554.5 c 128,-1,45
 368 535 368 535 332 534 c 1,46,47
 326 494 326 494 339 455.5 c 128,-1,48
 352 417 352 417 339 378 c 0,49,50
 327 327 327 327 356.5 284 c 128,-1,51
 386 241 386 241 433 226 c 1,52,53
 438 184 438 184 476.5 177.5 c 128,-1,54
 515 171 515 171 548 175 c 0,55,56
 560 179 560 179 569.5 173.5 c 128,-1,57
 579 168 579 168 585 157 c 1,58,59
 534 149 534 149 491 115.5 c 128,-1,60
 448 82 448 82 393 98 c 0,61,62
 329 116 329 116 281.5 164 c 128,-1,63
 234 212 234 212 195 262 c 0,64,65
 153 323 153 323 136 398.5 c 128,-1,66
 119 474 119 474 142 546 c 0,67,68
 151 570 151 570 161 597.5 c 128,-1,69
 171 625 171 625 197 635 c 1,70,71
 227 626 227 626 245 599 c 128,-1,72
 263 572 263 572 291 560 c 1,73,74
 306 569 306 569 317.5 582.5 c 128,-1,75
 329 596 329 596 324 615 c 1,76,77
 296 629 296 629 261 639.5 c 128,-1,78
 226 650 226 650 217 684 c 1,79,80
 232 717 232 717 260.5 744.5 c 128,-1,81
 289 772 289 772 322 789 c 1,82,83
 403 799 403 799 403 798 c 128,-1,84
 403 797 403 797 519 801 c 1,32,-1
742 293 m 2,85,86
 760 291 760 291 771.5 283 c 128,-1,87
 783 275 783 275 792 260 c 0,88,89
 813 225 813 225 784 192 c 128,-1,90
 755 159 755 159 720 156 c 1,91,92
 675 165 675 165 673.5 217 c 128,-1,93
 672 269 672 269 704 290 c 1,94,-1
 720 293 l 1,95,-1
 742 293 l 2,85,86
557 377 m 1,96,97
 588 372 588 372 604 356.5 c 128,-1,98
 620 341 620 341 609 308 c 1,99,100
 603 275 603 275 561.5 258 c 128,-1,101
 520 241 520 241 505 282 c 0,102,103
 496 307 496 307 509 333 c 128,-1,104
 522 359 522 359 543 373 c 1,105,-1
 557 377 l 1,96,97
773 607 m 1,106,107
 800 602 800 602 800.5 602.5 c 128,-1,108
 801 603 801 603 818 592 c 1,109,110
 842 562 842 562 863 530.5 c 128,-1,111
 884 499 884 499 893 458 c 0,112,113
 897 440 897 440 893 423 c 128,-1,114
 889 406 889 406 886 408 c 0,115,116
 863 385 863 385 844.5 364.5 c 128,-1,117
 826 344 826 344 795 331 c 1,118,119
 742 318 742 318 693.5 359.5 c 128,-1,120
 645 401 645 401 654 456 c 1,121,122
 667 483 667 483 682 509.5 c 128,-1,123
 697 536 697 536 708 565 c 0,124,125
 718 588 718 588 734 595 c 128,-1,126
 750 602 750 602 773 607 c 1,106,107
518 490 m 0,127,128
 527 490 527 490 533.5 483.5 c 128,-1,129
 540 477 540 477 540 468 c 128,-1,130
 540 459 540 459 533.5 452.5 c 128,-1,131
 527 446 527 446 518 446 c 0,132,133
 508 446 508 446 501.5 452.5 c 128,-1,134
 495 459 495 459 495 468 c 128,-1,135
 495 477 495 477 501.5 483.5 c 128,-1,136
 508 490 508 490 518 490 c 0,127,128
588 554 m 128,-1,138
 595 554 595 554 600 549 c 128,-1,139
 605 544 605 544 605 537 c 0,140,141
 605 531 605 531 600 526 c 128,-1,142
 595 521 595 521 588 521 c 128,-1,143
 581 521 581 521 576.5 526 c 128,-1,144
 572 531 572 531 572 537 c 0,145,146
 572 544 572 544 576.5 549 c 128,-1,137
 581 554 581 554 588 554 c 128,-1,138
644 711 m 1,147,148
 677 704 677 704 696 685.5 c 128,-1,149
 715 667 715 667 706 631 c 1,150,151
 672 608 672 608 640 640.5 c 128,-1,152
 608 673 608 673 629 707 c 1,153,-1
 644 711 l 1,147,148
EndSplineSet
Validated: 33
EndChar

